<svg class="main-svg" xmlns="http://www.w3.org/2000/svg" xmlns:xlink="http://www.w3.org/1999/xlink" width="800" height="600" style="" viewBox="0 0 800 600"><rect x="0" y="0" width="800" height="600" style="fill: rgb(255, 255, 255); fill-opacity: 1;"/><defs id="defs-a0b114"><g class="clips"><clipPath id="clipa0b114xyplot" class="plotclip"><rect width="538" height="470"/></clipPath><clipPath class="axesclip" id="clipa0b114x"><rect x="69" y="0" width="538" height="600"/></clipPath><clipPath class="axesclip" id="clipa0b114y"><rect x="0" y="70" width="800" height="470"/></clipPath><clipPath class="axesclip" id="clipa0b114xy"><rect x="69" y="70" width="538" height="470"/></clipPath></g><g class="gradients"/><g class="patterns"/></defs><g class="bglayer"><rect class="bg" x="69" y="70" width="538" height="470" style="fill: rgb(237, 237, 237); fill-opacity: 1; stroke-width: 0;"/></g><g class="layer-below"><g class="imagelayer"/><g class="shapelayer"/></g><g class="cartesianlayer"><g class="subplot xy"><g class="layer-subplot"><g class="shapelayer"/><g class="imagelayer"/></g><g class="minor-gridlayer"><g class="x"/><g class="y"/></g><g class="gridlayer"><g class="x"><path class="xgrid crisp" transform="translate(245.5,0)" d="M0,70v470" style="stroke: rgb(255, 255, 255); stroke-opacity: 1; stroke-width: 1px;"/><path class="xgrid crisp" transform="translate(401.1,0)" d="M0,70v470" style="stroke: rgb(255, 255, 255); stroke-opacity: 1; stroke-width: 1px;"/><path class="xgrid crisp" transform="translate(556.71,0)" d="M0,70v470" style="stroke: rgb(255, 255, 255); stroke-opacity: 1; stroke-width: 1px;"/></g><g class="y"><path class="ygrid crisp" transform="translate(0,465.04)" d="M69,0h538" style="stroke: rgb(255, 255, 255); stroke-opacity: 1; stroke-width: 1px;"/><path class="ygrid crisp" transform="translate(0,385.47)" d="M69,0h538" style="stroke: rgb(255, 255, 255); stroke-opacity: 1; stroke-width: 1px;"/><path class="ygrid crisp" transform="translate(0,305.9)" d="M69,0h538" style="stroke: rgb(255, 255, 255); stroke-opacity: 1; stroke-width: 1px;"/><path class="ygrid crisp" transform="translate(0,226.33)" d="M69,0h538" style="stroke: rgb(255, 255, 255); stroke-opacity: 1; stroke-width: 1px;"/><path class="ygrid crisp" transform="translate(0,146.76)" d="M69,0h538" style="stroke: rgb(255, 255, 255); stroke-opacity: 1; stroke-width: 1px;"/></g></g><g class="zerolinelayer"><path class="xzl zl crisp" transform="translate(89.9,0)" d="M0,70v470" style="stroke: rgb(255, 255, 255); stroke-opacity: 1; stroke-width: 1px;"/></g><g class="layer-between"><g class="shapelayer"/><g class="imagelayer"/></g><path class="xlines-below"/><path class="ylines-below"/><g class="overlines-below"/><g class="xaxislayer-below"/><g class="yaxislayer-below"/><g class="overaxes-below"/><g class="overplot"><g class="xy" transform="translate(69,70)" clip-path="url(#clipa0b114xyplot)"><g class="scatterlayer mlayer"><g class="trace scatter trace0abdc9" style="stroke-miterlimit: 2; opacity: 1;"><g class="fills"/><g class="errorbars"/><g class="lines"><path class="js-line" d="M31.28,27.88L34.47,50.44L37.66,82.03L47.23,161L50.42,184.48L60,251.85L63.19,283.55L66.38,299.77L69.57,328.2L79.15,389.42L82.34,405.54L85.53,406.76L88.72,401.44L91.91,394.85L95.11,386.51L98.3,390.36L101.49,390.29L104.68,396L107.87,397.86L111.06,410.78L114.25,428.36L117.45,438.88L120.64,441.31L123.83,442.13L127.02,440.9L130.21,438.55L133.4,433.57L139.79,411.36L142.98,405.96L146.17,402.88L149.36,407.22L155.74,418.38L158.94,418.85L162.13,427.43L165.32,421.2L168.51,414.72L171.7,411.75L181.28,389.56L184.47,388.6L187.66,389.5L190.85,395.61L194.04,396.68L197.24,401.79L200.43,398.31L203.62,392.72L206.81,388.38L210,375.18L213.19,364.99L216.38,361.36L219.58,351.85L222.77,349.86L225.96,346.93L229.15,350.13L232.34,346.61L235.53,351.66L238.73,356.59L241.92,354.77L245.11,349.65L248.3,338.61L251.49,330.13L254.68,332.23L257.87,325.93L261.07,322.13L267.45,310.08L270.64,309.35L273.83,302.7L277.02,293.16L283.41,277.9L286.6,260.88L289.79,255.15L292.98,258.93L296.17,262L299.37,270.72L302.56,259.76L305.75,258.77L308.94,256.67L312.13,245.92L315.32,249.82L318.51,238.77L321.71,231.82L324.9,221.09L328.09,209.97L331.28,214.77L334.47,211.8L337.66,206.8L340.86,202.74L344.05,207.42L350.43,190.36L353.62,185.96L356.81,183.27L360,178.88L363.2,177.15L366.39,169.73L369.58,171.87L372.77,166.29L375.96,170.86L379.15,171.66L382.35,171.3L385.54,164.71L388.73,156.24L391.92,145.51L395.11,133.42L398.3,127.15L401.5,119.7L404.69,116.88L407.88,127.85L411.07,117.5L414.26,126.47L417.45,119.28L420.64,119.54L423.84,118.3L427.03,109.82L430.22,107.75L433.41,104.23L436.6,106.28L439.79,106.24L442.99,104.51L446.18,109.22L449.37,102.31L452.56,103.4L455.75,102.84L458.94,101.77L462.13,96.64L468.52,78.35L471.71,79.2L478.09,75.12L481.28,72.13L487.67,78.28L490.86,80.32L497.24,92.1L500.43,89.89L503.63,87.22L506.73,101.04" style="vector-effect: none; fill: none; stroke: rgb(255, 0, 0); stroke-opacity: 1; stroke-width: 2px; opacity: 1;"/></g><g class="points"><path class="point" transform="translate(31.28,27.88)" d="M0,1.98l1.98,1.98l1.98,-1.98l-1.98,-1.98l1.98,-1.98l-1.98,-1.98l-1.98,1.98l-1.98,-1.98l-1.98,1.98l1.98,1.98l-1.98,1.98l1.98,1.98Z" style="opacity: 1; stroke-width: 0px; fill: rgb(255, 0, 0); fill-opacity: 1;"/><path class="point" transform="translate(34.47,50.44)" d="M0,1.98l1.98,1.98l1.98,-1.98l-1.98,-1.98l1.98,-1.98l-1.98,-1.98l-1.98,1.98l-1.98,-1.98l-1.98,1.98l1.98,1.98l-1.98,1.98l1.98,1.98Z" style="opacity: 1; stroke-width: 0px; fill: rgb(255, 0, 0); fill-opacity: 1;"/><path class="point" transform="translate(37.66,82.03)" d="M0,1.98l1.98,1.98l1.98,-1.98l-1.98,-1.98l1.98,-1.98l-1.98,-1.98l-1.98,1.98l-1.98,-1.98l-1.98,1.98l1.98,1.98l-1.98,1.98l1.98,1.98Z" style="opacity: 1; stroke-width: 0px; fill: rgb(255, 0, 0); fill-opacity: 1;"/><path class="point" transform="translate(40.85,109.28)" d="M0,1.98l1.98,1.98l1.98,-1.98l-1.98,-1.98l1.98,-1.98l-1.98,-1.98l-1.98,1.98l-1.98,-1.98l-1.98,1.98l1.98,1.98l-1.98,1.98l1.98,1.98Z" style="opacity: 1; stroke-width: 0px; fill: rgb(255, 0, 0); fill-opacity: 1;"/><path class="point" transform="translate(44.04,130.56)" d="M0,1.98l1.98,1.98l1.98,-1.98l-1.98,-1.98l1.98,-1.98l-1.98,-1.98l-1.98,1.98l-1.98,-1.98l-1.98,1.98l1.98,1.98l-1.98,1.98l1.98,1.98Z" style="opacity: 1; stroke-width: 0px; fill: rgb(255, 0, 0); fill-opacity: 1;"/><path class="point" transform="translate(47.23,161)" d="M0,1.98l1.98,1.98l1.98,-1.98l-1.98,-1.98l1.98,-1.98l-1.98,-1.98l-1.98,1.98l-1.98,-1.98l-1.98,1.98l1.98,1.98l-1.98,1.98l1.98,1.98Z" style="opacity: 1; stroke-width: 0px; fill: rgb(255, 0, 0); fill-opacity: 1;"/><path class="point" transform="translate(50.42,184.48)" d="M0,1.98l1.98,1.98l1.98,-1.98l-1.98,-1.98l1.98,-1.98l-1.98,-1.98l-1.98,1.98l-1.98,-1.98l-1.98,1.98l1.98,1.98l-1.98,1.98l1.98,1.98Z" style="opacity: 1; stroke-width: 0px; fill: rgb(255, 0, 0); fill-opacity: 1;"/><path class="point" transform="translate(53.62,206.87)" d="M0,1.98l1.98,1.98l1.98,-1.98l-1.98,-1.98l1.98,-1.98l-1.98,-1.98l-1.98,1.98l-1.98,-1.98l-1.98,1.98l1.98,1.98l-1.98,1.98l1.98,1.98Z" style="opacity: 1; stroke-width: 0px; fill: rgb(255, 0, 0); fill-opacity: 1;"/><path class="point" transform="translate(56.81,230.6)" d="M0,1.98l1.98,1.98l1.98,-1.98l-1.98,-1.98l1.98,-1.98l-1.98,-1.98l-1.98,1.98l-1.98,-1.98l-1.98,1.98l1.98,1.98l-1.98,1.98l1.98,1.98Z" style="opacity: 1; stroke-width: 0px; fill: rgb(255, 0, 0); fill-opacity: 1;"/><path class="point" transform="translate(60,251.85)" d="M0,1.98l1.98,1.98l1.98,-1.98l-1.98,-1.98l1.98,-1.98l-1.98,-1.98l-1.98,1.98l-1.98,-1.98l-1.98,1.98l1.98,1.98l-1.98,1.98l1.98,1.98Z" style="opacity: 1; stroke-width: 0px; fill: rgb(255, 0, 0); fill-opacity: 1;"/><path class="point" transform="translate(63.19,283.55)" d="M0,1.98l1.98,1.98l1.98,-1.98l-1.98,-1.98l1.98,-1.98l-1.98,-1.98l-1.98,1.98l-1.98,-1.98l-1.98,1.98l1.98,1.98l-1.98,1.98l1.98,1.98Z" style="opacity: 1; stroke-width: 0px; fill: rgb(255, 0, 0); fill-opacity: 1;"/><path class="point" transform="translate(66.38,299.77)" d="M0,1.98l1.98,1.98l1.98,-1.98l-1.98,-1.98l1.98,-1.98l-1.98,-1.98l-1.98,1.98l-1.98,-1.98l-1.98,1.98l1.98,1.98l-1.98,1.98l1.98,1.98Z" style="opacity: 1; stroke-width: 0px; fill: rgb(255, 0, 0); fill-opacity: 1;"/><path class="point" transform="translate(69.57,328.2)" d="M0,1.98l1.98,1.98l1.98,-1.98l-1.98,-1.98l1.98,-1.98l-1.98,-1.98l-1.98,1.98l-1.98,-1.98l-1.98,1.98l1.98,1.98l-1.98,1.98l1.98,1.98Z" style="opacity: 1; stroke-width: 0px; fill: rgb(255, 0, 0); fill-opacity: 1;"/><path class="point" transform="translate(72.76,347.84)" d="M0,1.98l1.98,1.98l1.98,-1.98l-1.98,-1.98l1.98,-1.98l-1.98,-1.98l-1.98,1.98l-1.98,-1.98l-1.98,1.98l1.98,1.98l-1.98,1.98l1.98,1.98Z" style="opacity: 1; stroke-width: 0px; fill: rgb(255, 0, 0); fill-opacity: 1;"/><path class="point" transform="translate(75.96,371.72)" d="M0,1.98l1.98,1.98l1.98,-1.98l-1.98,-1.98l1.98,-1.98l-1.98,-1.98l-1.98,1.98l-1.98,-1.98l-1.98,1.98l1.98,1.98l-1.98,1.98l1.98,1.98Z" style="opacity: 1; stroke-width: 0px; fill: rgb(255, 0, 0); fill-opacity: 1;"/><path class="point" transform="translate(79.15,389.42)" d="M0,1.98l1.98,1.98l1.98,-1.98l-1.98,-1.98l1.98,-1.98l-1.98,-1.98l-1.98,1.98l-1.98,-1.98l-1.98,1.98l1.98,1.98l-1.98,1.98l1.98,1.98Z" style="opacity: 1; stroke-width: 0px; fill: rgb(255, 0, 0); fill-opacity: 1;"/><path class="point" transform="translate(82.34,405.54)" d="M0,1.98l1.98,1.98l1.98,-1.98l-1.98,-1.98l1.98,-1.98l-1.98,-1.98l-1.98,1.98l-1.98,-1.98l-1.98,1.98l1.98,1.98l-1.98,1.98l1.98,1.98Z" style="opacity: 1; stroke-width: 0px; fill: rgb(255, 0, 0); fill-opacity: 1;"/><path class="point" transform="translate(85.53,406.76)" d="M0,1.98l1.98,1.98l1.98,-1.98l-1.98,-1.98l1.98,-1.98l-1.98,-1.98l-1.98,1.98l-1.98,-1.98l-1.98,1.98l1.98,1.98l-1.98,1.98l1.98,1.98Z" style="opacity: 1; stroke-width: 0px; fill: rgb(255, 0, 0); fill-opacity: 1;"/><path class="point" transform="translate(88.72,401.44)" d="M0,1.98l1.98,1.98l1.98,-1.98l-1.98,-1.98l1.98,-1.98l-1.98,-1.98l-1.98,1.98l-1.98,-1.98l-1.98,1.98l1.98,1.98l-1.98,1.98l1.98,1.98Z" style="opacity: 1; stroke-width: 0px; fill: rgb(255, 0, 0); fill-opacity: 1;"/><path class="point" transform="translate(91.91,394.85)" d="M0,1.98l1.98,1.98l1.98,-1.98l-1.98,-1.98l1.98,-1.98l-1.98,-1.98l-1.98,1.98l-1.98,-1.98l-1.98,1.98l1.98,1.98l-1.98,1.98l1.98,1.98Z" style="opacity: 1; stroke-width: 0px; fill: rgb(255, 0, 0); fill-opacity: 1;"/><path class="point" transform="translate(95.11,386.51)" d="M0,1.98l1.98,1.98l1.98,-1.98l-1.98,-1.98l1.98,-1.98l-1.98,-1.98l-1.98,1.98l-1.98,-1.98l-1.98,1.98l1.98,1.98l-1.98,1.98l1.98,1.98Z" style="opacity: 1; stroke-width: 0px; fill: rgb(255, 0, 0); fill-opacity: 1;"/><path class="point" transform="translate(98.3,390.36)" d="M0,1.98l1.98,1.98l1.98,-1.98l-1.98,-1.98l1.98,-1.98l-1.98,-1.98l-1.98,1.98l-1.98,-1.98l-1.98,1.98l1.98,1.98l-1.98,1.98l1.98,1.98Z" style="opacity: 1; stroke-width: 0px; fill: rgb(255, 0, 0); fill-opacity: 1;"/><path class="point" transform="translate(101.49,390.29)" d="M0,1.98l1.98,1.98l1.98,-1.98l-1.98,-1.98l1.98,-1.98l-1.98,-1.98l-1.98,1.98l-1.98,-1.98l-1.98,1.98l1.98,1.98l-1.98,1.98l1.98,1.98Z" style="opacity: 1; stroke-width: 0px; fill: rgb(255, 0, 0); fill-opacity: 1;"/><path class="point" transform="translate(104.68,396)" d="M0,1.98l1.98,1.98l1.98,-1.98l-1.98,-1.98l1.98,-1.98l-1.98,-1.98l-1.98,1.98l-1.98,-1.98l-1.98,1.98l1.98,1.98l-1.98,1.98l1.98,1.98Z" style="opacity: 1; stroke-width: 0px; fill: rgb(255, 0, 0); fill-opacity: 1;"/><path class="point" transform="translate(107.87,397.86)" d="M0,1.98l1.98,1.98l1.98,-1.98l-1.98,-1.98l1.98,-1.98l-1.98,-1.98l-1.98,1.98l-1.98,-1.98l-1.98,1.98l1.98,1.98l-1.98,1.98l1.98,1.98Z" style="opacity: 1; stroke-width: 0px; fill: rgb(255, 0, 0); fill-opacity: 1;"/><path class="point" transform="translate(111.06,410.78)" d="M0,1.98l1.98,1.98l1.98,-1.98l-1.98,-1.98l1.98,-1.98l-1.98,-1.98l-1.98,1.98l-1.98,-1.98l-1.98,1.98l1.98,1.98l-1.98,1.98l1.98,1.98Z" style="opacity: 1; stroke-width: 0px; fill: rgb(255, 0, 0); fill-opacity: 1;"/><path class="point" transform="translate(114.25,428.36)" d="M0,1.98l1.98,1.98l1.98,-1.98l-1.98,-1.98l1.98,-1.98l-1.98,-1.98l-1.98,1.98l-1.98,-1.98l-1.98,1.98l1.98,1.98l-1.98,1.98l1.98,1.98Z" style="opacity: 1; stroke-width: 0px; fill: rgb(255, 0, 0); fill-opacity: 1;"/><path class="point" transform="translate(117.45,438.88)" d="M0,1.98l1.98,1.98l1.98,-1.98l-1.98,-1.98l1.98,-1.98l-1.98,-1.98l-1.98,1.98l-1.98,-1.98l-1.98,1.98l1.98,1.98l-1.98,1.98l1.98,1.98Z" style="opacity: 1; stroke-width: 0px; fill: rgb(255, 0, 0); fill-opacity: 1;"/><path class="point" transform="translate(120.64,441.31)" d="M0,1.98l1.98,1.98l1.98,-1.98l-1.98,-1.98l1.98,-1.98l-1.98,-1.98l-1.98,1.98l-1.98,-1.98l-1.98,1.98l1.98,1.98l-1.98,1.98l1.98,1.98Z" style="opacity: 1; stroke-width: 0px; fill: rgb(255, 0, 0); fill-opacity: 1;"/><path class="point" transform="translate(123.83,442.13)" d="M0,1.98l1.98,1.98l1.98,-1.98l-1.98,-1.98l1.98,-1.98l-1.98,-1.98l-1.98,1.98l-1.98,-1.98l-1.98,1.98l1.98,1.98l-1.98,1.98l1.98,1.98Z" style="opacity: 1; stroke-width: 0px; fill: rgb(255, 0, 0); fill-opacity: 1;"/><path class="point" transform="translate(127.02,440.9)" d="M0,1.98l1.98,1.98l1.98,-1.98l-1.98,-1.98l1.98,-1.98l-1.98,-1.98l-1.98,1.98l-1.98,-1.98l-1.98,1.98l1.98,1.98l-1.98,1.98l1.98,1.98Z" style="opacity: 1; stroke-width: 0px; fill: rgb(255, 0, 0); fill-opacity: 1;"/><path class="point" transform="translate(130.21,438.55)" d="M0,1.98l1.98,1.98l1.98,-1.98l-1.98,-1.98l1.98,-1.98l-1.98,-1.98l-1.98,1.98l-1.98,-1.98l-1.98,1.98l1.98,1.98l-1.98,1.98l1.98,1.98Z" style="opacity: 1; stroke-width: 0px; fill: rgb(255, 0, 0); fill-opacity: 1;"/><path class="point" transform="translate(133.4,433.57)" d="M0,1.98l1.98,1.98l1.98,-1.98l-1.98,-1.98l1.98,-1.98l-1.98,-1.98l-1.98,1.98l-1.98,-1.98l-1.98,1.98l1.98,1.98l-1.98,1.98l1.98,1.98Z" style="opacity: 1; stroke-width: 0px; fill: rgb(255, 0, 0); fill-opacity: 1;"/><path class="point" transform="translate(136.6,423.5)" d="M0,1.98l1.98,1.98l1.98,-1.98l-1.98,-1.98l1.98,-1.98l-1.98,-1.98l-1.98,1.98l-1.98,-1.98l-1.98,1.98l1.98,1.98l-1.98,1.98l1.98,1.98Z" style="opacity: 1; stroke-width: 0px; fill: rgb(255, 0, 0); fill-opacity: 1;"/><path class="point" transform="translate(139.79,411.36)" d="M0,1.98l1.98,1.98l1.98,-1.98l-1.98,-1.98l1.98,-1.98l-1.98,-1.98l-1.98,1.98l-1.98,-1.98l-1.98,1.98l1.98,1.98l-1.98,1.98l1.98,1.98Z" style="opacity: 1; stroke-width: 0px; fill: rgb(255, 0, 0); fill-opacity: 1;"/><path class="point" transform="translate(142.98,405.96)" d="M0,1.98l1.98,1.98l1.98,-1.98l-1.98,-1.98l1.98,-1.98l-1.98,-1.98l-1.98,1.98l-1.98,-1.98l-1.98,1.98l1.98,1.98l-1.98,1.98l1.98,1.98Z" style="opacity: 1; stroke-width: 0px; fill: rgb(255, 0, 0); fill-opacity: 1;"/><path class="point" transform="translate(146.17,402.88)" d="M0,1.98l1.98,1.98l1.98,-1.98l-1.98,-1.98l1.98,-1.98l-1.98,-1.98l-1.98,1.98l-1.98,-1.98l-1.98,1.98l1.98,1.98l-1.98,1.98l1.98,1.98Z" style="opacity: 1; stroke-width: 0px; fill: rgb(255, 0, 0); fill-opacity: 1;"/><path class="point" transform="translate(149.36,407.22)" d="M0,1.98l1.98,1.98l1.98,-1.98l-1.98,-1.98l1.98,-1.98l-1.98,-1.98l-1.98,1.98l-1.98,-1.98l-1.98,1.98l1.98,1.98l-1.98,1.98l1.98,1.98Z" style="opacity: 1; stroke-width: 0px; fill: rgb(255, 0, 0); fill-opacity: 1;"/><path class="point" transform="translate(152.55,412.4)" d="M0,1.98l1.98,1.98l1.98,-1.98l-1.98,-1.98l1.98,-1.98l-1.98,-1.98l-1.98,1.98l-1.98,-1.98l-1.98,1.98l1.98,1.98l-1.98,1.98l1.98,1.98Z" style="opacity: 1; stroke-width: 0px; fill: rgb(255, 0, 0); fill-opacity: 1;"/><path class="point" transform="translate(155.74,418.38)" d="M0,1.98l1.98,1.98l1.98,-1.98l-1.98,-1.98l1.98,-1.98l-1.98,-1.98l-1.98,1.98l-1.98,-1.98l-1.98,1.98l1.98,1.98l-1.98,1.98l1.98,1.98Z" style="opacity: 1; stroke-width: 0px; fill: rgb(255, 0, 0); fill-opacity: 1;"/><path class="point" transform="translate(158.94,418.85)" d="M0,1.98l1.98,1.98l1.98,-1.98l-1.98,-1.98l1.98,-1.98l-1.98,-1.98l-1.98,1.98l-1.98,-1.98l-1.98,1.98l1.98,1.98l-1.98,1.98l1.98,1.98Z" style="opacity: 1; stroke-width: 0px; fill: rgb(255, 0, 0); fill-opacity: 1;"/><path class="point" transform="translate(162.13,427.43)" d="M0,1.98l1.98,1.98l1.98,-1.98l-1.98,-1.98l1.98,-1.98l-1.98,-1.98l-1.98,1.98l-1.98,-1.98l-1.98,1.98l1.98,1.98l-1.98,1.98l1.98,1.98Z" style="opacity: 1; stroke-width: 0px; fill: rgb(255, 0, 0); fill-opacity: 1;"/><path class="point" transform="translate(165.32,421.2)" d="M0,1.98l1.98,1.98l1.98,-1.98l-1.98,-1.98l1.98,-1.98l-1.98,-1.98l-1.98,1.98l-1.98,-1.98l-1.98,1.98l1.98,1.98l-1.98,1.98l1.98,1.98Z" style="opacity: 1; stroke-width: 0px; fill: rgb(255, 0, 0); fill-opacity: 1;"/><path class="point" transform="translate(168.51,414.72)" d="M0,1.98l1.98,1.98l1.98,-1.98l-1.98,-1.98l1.98,-1.98l-1.98,-1.98l-1.98,1.98l-1.98,-1.98l-1.98,1.98l1.98,1.98l-1.98,1.98l1.98,1.98Z" style="opacity: 1; stroke-width: 0px; fill: rgb(255, 0, 0); fill-opacity: 1;"/><path class="point" transform="translate(171.7,411.75)" d="M0,1.98l1.98,1.98l1.98,-1.98l-1.98,-1.98l1.98,-1.98l-1.98,-1.98l-1.98,1.98l-1.98,-1.98l-1.98,1.98l1.98,1.98l-1.98,1.98l1.98,1.98Z" style="opacity: 1; stroke-width: 0px; fill: rgb(255, 0, 0); fill-opacity: 1;"/><path class="point" transform="translate(174.89,404.21)" d="M0,1.98l1.98,1.98l1.98,-1.98l-1.98,-1.98l1.98,-1.98l-1.98,-1.98l-1.98,1.98l-1.98,-1.98l-1.98,1.98l1.98,1.98l-1.98,1.98l1.98,1.98Z" style="opacity: 1; stroke-width: 0px; fill: rgb(255, 0, 0); fill-opacity: 1;"/><path class="point" transform="translate(178.09,396.29)" d="M0,1.98l1.98,1.98l1.98,-1.98l-1.98,-1.98l1.98,-1.98l-1.98,-1.98l-1.98,1.98l-1.98,-1.98l-1.98,1.98l1.98,1.98l-1.98,1.98l1.98,1.98Z" style="opacity: 1; stroke-width: 0px; fill: rgb(255, 0, 0); fill-opacity: 1;"/><path class="point" transform="translate(181.28,389.56)" d="M0,1.98l1.98,1.98l1.98,-1.98l-1.98,-1.98l1.98,-1.98l-1.98,-1.98l-1.98,1.98l-1.98,-1.98l-1.98,1.98l1.98,1.98l-1.98,1.98l1.98,1.98Z" style="opacity: 1; stroke-width: 0px; fill: rgb(255, 0, 0); fill-opacity: 1;"/><path class="point" transform="translate(184.47,388.6)" d="M0,1.98l1.98,1.98l1.98,-1.98l-1.98,-1.98l1.98,-1.98l-1.98,-1.98l-1.98,1.98l-1.98,-1.98l-1.98,1.98l1.98,1.98l-1.98,1.98l1.98,1.98Z" style="opacity: 1; stroke-width: 0px; fill: rgb(255, 0, 0); fill-opacity: 1;"/><path class="point" transform="translate(187.66,389.5)" d="M0,1.98l1.98,1.98l1.98,-1.98l-1.98,-1.98l1.98,-1.98l-1.98,-1.98l-1.98,1.98l-1.98,-1.98l-1.98,1.98l1.98,1.98l-1.98,1.98l1.98,1.98Z" style="opacity: 1; stroke-width: 0px; fill: rgb(255, 0, 0); fill-opacity: 1;"/><path class="point" transform="translate(190.85,395.61)" d="M0,1.98l1.98,1.98l1.98,-1.98l-1.98,-1.98l1.98,-1.98l-1.98,-1.98l-1.98,1.98l-1.98,-1.98l-1.98,1.98l1.98,1.98l-1.98,1.98l1.98,1.98Z" style="opacity: 1; stroke-width: 0px; fill: rgb(255, 0, 0); fill-opacity: 1;"/><path class="point" transform="translate(194.04,396.68)" d="M0,1.98l1.98,1.98l1.98,-1.98l-1.98,-1.98l1.98,-1.98l-1.98,-1.98l-1.98,1.98l-1.98,-1.98l-1.98,1.98l1.98,1.98l-1.98,1.98l1.98,1.98Z" style="opacity: 1; stroke-width: 0px; fill: rgb(255, 0, 0); fill-opacity: 1;"/><path class="point" transform="translate(197.24,401.79)" d="M0,1.98l1.98,1.98l1.98,-1.98l-1.98,-1.98l1.98,-1.98l-1.98,-1.98l-1.98,1.98l-1.98,-1.98l-1.98,1.98l1.98,1.98l-1.98,1.98l1.98,1.98Z" style="opacity: 1; stroke-width: 0px; fill: rgb(255, 0, 0); fill-opacity: 1;"/><path class="point" transform="translate(200.43,398.31)" d="M0,1.98l1.98,1.98l1.98,-1.98l-1.98,-1.98l1.98,-1.98l-1.98,-1.98l-1.98,1.98l-1.98,-1.98l-1.98,1.98l1.98,1.98l-1.98,1.98l1.98,1.98Z" style="opacity: 1; stroke-width: 0px; fill: rgb(255, 0, 0); fill-opacity: 1;"/><path class="point" transform="translate(203.62,392.72)" d="M0,1.98l1.98,1.98l1.98,-1.98l-1.98,-1.98l1.98,-1.98l-1.98,-1.98l-1.98,1.98l-1.98,-1.98l-1.98,1.98l1.98,1.98l-1.98,1.98l1.98,1.98Z" style="opacity: 1; stroke-width: 0px; fill: rgb(255, 0, 0); fill-opacity: 1;"/><path class="point" transform="translate(206.81,388.38)" d="M0,1.98l1.98,1.98l1.98,-1.98l-1.98,-1.98l1.98,-1.98l-1.98,-1.98l-1.98,1.98l-1.98,-1.98l-1.98,1.98l1.98,1.98l-1.98,1.98l1.98,1.98Z" style="opacity: 1; stroke-width: 0px; fill: rgb(255, 0, 0); fill-opacity: 1;"/><path class="point" transform="translate(210,375.18)" d="M0,1.98l1.98,1.98l1.98,-1.98l-1.98,-1.98l1.98,-1.98l-1.98,-1.98l-1.98,1.98l-1.98,-1.98l-1.98,1.98l1.98,1.98l-1.98,1.98l1.98,1.98Z" style="opacity: 1; stroke-width: 0px; fill: rgb(255, 0, 0); fill-opacity: 1;"/><path class="point" transform="translate(213.19,364.99)" d="M0,1.98l1.98,1.98l1.98,-1.98l-1.98,-1.98l1.98,-1.98l-1.98,-1.98l-1.98,1.98l-1.98,-1.98l-1.98,1.98l1.98,1.98l-1.98,1.98l1.98,1.98Z" style="opacity: 1; stroke-width: 0px; fill: rgb(255, 0, 0); fill-opacity: 1;"/><path class="point" transform="translate(216.38,361.36)" d="M0,1.98l1.98,1.98l1.98,-1.98l-1.98,-1.98l1.98,-1.98l-1.98,-1.98l-1.98,1.98l-1.98,-1.98l-1.98,1.98l1.98,1.98l-1.98,1.98l1.98,1.98Z" style="opacity: 1; stroke-width: 0px; fill: rgb(255, 0, 0); fill-opacity: 1;"/><path class="point" transform="translate(219.58,351.85)" d="M0,1.98l1.98,1.98l1.98,-1.98l-1.98,-1.98l1.98,-1.98l-1.98,-1.98l-1.98,1.98l-1.98,-1.98l-1.98,1.98l1.98,1.98l-1.98,1.98l1.98,1.98Z" style="opacity: 1; stroke-width: 0px; fill: rgb(255, 0, 0); fill-opacity: 1;"/><path class="point" transform="translate(222.77,349.86)" d="M0,1.98l1.98,1.98l1.98,-1.98l-1.98,-1.98l1.98,-1.98l-1.98,-1.98l-1.98,1.98l-1.98,-1.98l-1.98,1.98l1.98,1.98l-1.98,1.98l1.98,1.98Z" style="opacity: 1; stroke-width: 0px; fill: rgb(255, 0, 0); fill-opacity: 1;"/><path class="point" transform="translate(225.96,346.93)" d="M0,1.98l1.98,1.98l1.98,-1.98l-1.98,-1.98l1.98,-1.98l-1.98,-1.98l-1.98,1.98l-1.98,-1.98l-1.98,1.98l1.98,1.98l-1.98,1.98l1.98,1.98Z" style="opacity: 1; stroke-width: 0px; fill: rgb(255, 0, 0); fill-opacity: 1;"/><path class="point" transform="translate(229.15,350.13)" d="M0,1.98l1.98,1.98l1.98,-1.98l-1.98,-1.98l1.98,-1.98l-1.98,-1.98l-1.98,1.98l-1.98,-1.98l-1.98,1.98l1.98,1.98l-1.98,1.98l1.98,1.98Z" style="opacity: 1; stroke-width: 0px; fill: rgb(255, 0, 0); fill-opacity: 1;"/><path class="point" transform="translate(232.34,346.61)" d="M0,1.98l1.98,1.98l1.98,-1.98l-1.98,-1.98l1.98,-1.98l-1.98,-1.98l-1.98,1.98l-1.98,-1.98l-1.98,1.98l1.98,1.98l-1.98,1.98l1.98,1.98Z" style="opacity: 1; stroke-width: 0px; fill: rgb(255, 0, 0); fill-opacity: 1;"/><path class="point" transform="translate(235.53,351.66)" d="M0,1.98l1.98,1.98l1.98,-1.98l-1.98,-1.98l1.98,-1.98l-1.98,-1.98l-1.98,1.98l-1.98,-1.98l-1.98,1.98l1.98,1.98l-1.98,1.98l1.98,1.98Z" style="opacity: 1; stroke-width: 0px; fill: rgb(255, 0, 0); fill-opacity: 1;"/><path class="point" transform="translate(238.73,356.59)" d="M0,1.98l1.98,1.98l1.98,-1.98l-1.98,-1.98l1.98,-1.98l-1.98,-1.98l-1.98,1.98l-1.98,-1.98l-1.98,1.98l1.98,1.98l-1.98,1.98l1.98,1.98Z" style="opacity: 1; stroke-width: 0px; fill: rgb(255, 0, 0); fill-opacity: 1;"/><path class="point" transform="translate(241.92,354.77)" d="M0,1.98l1.98,1.98l1.98,-1.98l-1.98,-1.98l1.98,-1.98l-1.98,-1.98l-1.98,1.98l-1.98,-1.98l-1.98,1.98l1.98,1.98l-1.98,1.98l1.98,1.98Z" style="opacity: 1; stroke-width: 0px; fill: rgb(255, 0, 0); fill-opacity: 1;"/><path class="point" transform="translate(245.11,349.65)" d="M0,1.98l1.98,1.98l1.98,-1.98l-1.98,-1.98l1.98,-1.98l-1.98,-1.98l-1.98,1.98l-1.98,-1.98l-1.98,1.98l1.98,1.98l-1.98,1.98l1.98,1.98Z" style="opacity: 1; stroke-width: 0px; fill: rgb(255, 0, 0); fill-opacity: 1;"/><path class="point" transform="translate(248.3,338.61)" d="M0,1.98l1.98,1.98l1.98,-1.98l-1.98,-1.98l1.98,-1.98l-1.98,-1.98l-1.98,1.98l-1.98,-1.98l-1.98,1.98l1.98,1.98l-1.98,1.98l1.98,1.98Z" style="opacity: 1; stroke-width: 0px; fill: rgb(255, 0, 0); fill-opacity: 1;"/><path class="point" transform="translate(251.49,330.13)" d="M0,1.98l1.98,1.98l1.98,-1.98l-1.98,-1.98l1.98,-1.98l-1.98,-1.98l-1.98,1.98l-1.98,-1.98l-1.98,1.98l1.98,1.98l-1.98,1.98l1.98,1.98Z" style="opacity: 1; stroke-width: 0px; fill: rgb(255, 0, 0); fill-opacity: 1;"/><path class="point" transform="translate(254.68,332.23)" d="M0,1.98l1.98,1.98l1.98,-1.98l-1.98,-1.98l1.98,-1.98l-1.98,-1.98l-1.98,1.98l-1.98,-1.98l-1.98,1.98l1.98,1.98l-1.98,1.98l1.98,1.98Z" style="opacity: 1; stroke-width: 0px; fill: rgb(255, 0, 0); fill-opacity: 1;"/><path class="point" transform="translate(257.87,325.93)" d="M0,1.98l1.98,1.98l1.98,-1.98l-1.98,-1.98l1.98,-1.98l-1.98,-1.98l-1.98,1.98l-1.98,-1.98l-1.98,1.98l1.98,1.98l-1.98,1.98l1.98,1.98Z" style="opacity: 1; stroke-width: 0px; fill: rgb(255, 0, 0); fill-opacity: 1;"/><path class="point" transform="translate(261.07,322.13)" d="M0,1.98l1.98,1.98l1.98,-1.98l-1.98,-1.98l1.98,-1.98l-1.98,-1.98l-1.98,1.98l-1.98,-1.98l-1.98,1.98l1.98,1.98l-1.98,1.98l1.98,1.98Z" style="opacity: 1; stroke-width: 0px; fill: rgb(255, 0, 0); fill-opacity: 1;"/><path class="point" transform="translate(264.26,315.24)" d="M0,1.98l1.98,1.98l1.98,-1.98l-1.98,-1.98l1.98,-1.98l-1.98,-1.98l-1.98,1.98l-1.98,-1.98l-1.98,1.98l1.98,1.98l-1.98,1.98l1.98,1.98Z" style="opacity: 1; stroke-width: 0px; fill: rgb(255, 0, 0); fill-opacity: 1;"/><path class="point" transform="translate(267.45,310.08)" d="M0,1.98l1.98,1.98l1.98,-1.98l-1.98,-1.98l1.98,-1.98l-1.98,-1.98l-1.98,1.98l-1.98,-1.98l-1.98,1.98l1.98,1.98l-1.98,1.98l1.98,1.98Z" style="opacity: 1; stroke-width: 0px; fill: rgb(255, 0, 0); fill-opacity: 1;"/><path class="point" transform="translate(270.64,309.35)" d="M0,1.98l1.98,1.98l1.98,-1.98l-1.98,-1.98l1.98,-1.98l-1.98,-1.98l-1.98,1.98l-1.98,-1.98l-1.98,1.98l1.98,1.98l-1.98,1.98l1.98,1.98Z" style="opacity: 1; stroke-width: 0px; fill: rgb(255, 0, 0); fill-opacity: 1;"/><path class="point" transform="translate(273.83,302.7)" d="M0,1.98l1.98,1.98l1.98,-1.98l-1.98,-1.98l1.98,-1.98l-1.98,-1.98l-1.98,1.98l-1.98,-1.98l-1.98,1.98l1.98,1.98l-1.98,1.98l1.98,1.98Z" style="opacity: 1; stroke-width: 0px; fill: rgb(255, 0, 0); fill-opacity: 1;"/><path class="point" transform="translate(277.02,293.16)" d="M0,1.98l1.98,1.98l1.98,-1.98l-1.98,-1.98l1.98,-1.98l-1.98,-1.98l-1.98,1.98l-1.98,-1.98l-1.98,1.98l1.98,1.98l-1.98,1.98l1.98,1.98Z" style="opacity: 1; stroke-width: 0px; fill: rgb(255, 0, 0); fill-opacity: 1;"/><path class="point" transform="translate(280.22,285.41)" d="M0,1.98l1.98,1.98l1.98,-1.98l-1.98,-1.98l1.98,-1.98l-1.98,-1.98l-1.98,1.98l-1.98,-1.98l-1.98,1.98l1.98,1.98l-1.98,1.98l1.98,1.98Z" style="opacity: 1; stroke-width: 0px; fill: rgb(255, 0, 0); fill-opacity: 1;"/><path class="point" transform="translate(283.41,277.9)" d="M0,1.98l1.98,1.98l1.98,-1.98l-1.98,-1.98l1.98,-1.98l-1.98,-1.98l-1.98,1.98l-1.98,-1.98l-1.98,1.98l1.98,1.98l-1.98,1.98l1.98,1.98Z" style="opacity: 1; stroke-width: 0px; fill: rgb(255, 0, 0); fill-opacity: 1;"/><path class="point" transform="translate(286.6,260.88)" d="M0,1.98l1.98,1.98l1.98,-1.98l-1.98,-1.98l1.98,-1.98l-1.98,-1.98l-1.98,1.98l-1.98,-1.98l-1.98,1.98l1.98,1.98l-1.98,1.98l1.98,1.98Z" style="opacity: 1; stroke-width: 0px; fill: rgb(255, 0, 0); fill-opacity: 1;"/><path class="point" transform="translate(289.79,255.15)" d="M0,1.98l1.98,1.98l1.98,-1.98l-1.98,-1.98l1.98,-1.98l-1.98,-1.98l-1.98,1.98l-1.98,-1.98l-1.98,1.98l1.98,1.98l-1.98,1.98l1.98,1.98Z" style="opacity: 1; stroke-width: 0px; fill: rgb(255, 0, 0); fill-opacity: 1;"/><path class="point" transform="translate(292.98,258.93)" d="M0,1.98l1.98,1.98l1.98,-1.98l-1.98,-1.98l1.98,-1.98l-1.98,-1.98l-1.98,1.98l-1.98,-1.98l-1.98,1.98l1.98,1.98l-1.98,1.98l1.98,1.98Z" style="opacity: 1; stroke-width: 0px; fill: rgb(255, 0, 0); fill-opacity: 1;"/><path class="point" transform="translate(296.17,262)" d="M0,1.98l1.98,1.98l1.98,-1.98l-1.98,-1.98l1.98,-1.98l-1.98,-1.98l-1.98,1.98l-1.98,-1.98l-1.98,1.98l1.98,1.98l-1.98,1.98l1.98,1.98Z" style="opacity: 1; stroke-width: 0px; fill: rgb(255, 0, 0); fill-opacity: 1;"/><path class="point" transform="translate(299.37,270.72)" d="M0,1.98l1.98,1.98l1.98,-1.98l-1.98,-1.98l1.98,-1.98l-1.98,-1.98l-1.98,1.98l-1.98,-1.98l-1.98,1.98l1.98,1.98l-1.98,1.98l1.98,1.98Z" style="opacity: 1; stroke-width: 0px; fill: rgb(255, 0, 0); fill-opacity: 1;"/><path class="point" transform="translate(302.56,259.76)" d="M0,1.98l1.98,1.98l1.98,-1.98l-1.98,-1.98l1.98,-1.98l-1.98,-1.98l-1.98,1.98l-1.98,-1.98l-1.98,1.98l1.98,1.98l-1.98,1.98l1.98,1.98Z" style="opacity: 1; stroke-width: 0px; fill: rgb(255, 0, 0); fill-opacity: 1;"/><path class="point" transform="translate(305.75,258.77)" d="M0,1.98l1.98,1.98l1.98,-1.98l-1.98,-1.98l1.98,-1.98l-1.98,-1.98l-1.98,1.98l-1.98,-1.98l-1.98,1.98l1.98,1.98l-1.98,1.98l1.98,1.98Z" style="opacity: 1; stroke-width: 0px; fill: rgb(255, 0, 0); fill-opacity: 1;"/><path class="point" transform="translate(308.94,256.67)" d="M0,1.98l1.98,1.98l1.98,-1.98l-1.98,-1.98l1.98,-1.98l-1.98,-1.98l-1.98,1.98l-1.98,-1.98l-1.98,1.98l1.98,1.98l-1.98,1.98l1.98,1.98Z" style="opacity: 1; stroke-width: 0px; fill: rgb(255, 0, 0); fill-opacity: 1;"/><path class="point" transform="translate(312.13,245.92)" d="M0,1.98l1.98,1.98l1.98,-1.98l-1.98,-1.98l1.98,-1.98l-1.98,-1.98l-1.98,1.98l-1.98,-1.98l-1.98,1.98l1.98,1.98l-1.98,1.98l1.98,1.98Z" style="opacity: 1; stroke-width: 0px; fill: rgb(255, 0, 0); fill-opacity: 1;"/><path class="point" transform="translate(315.32,249.82)" d="M0,1.98l1.98,1.98l1.98,-1.98l-1.98,-1.98l1.98,-1.98l-1.98,-1.98l-1.98,1.98l-1.98,-1.98l-1.98,1.98l1.98,1.98l-1.98,1.98l1.98,1.98Z" style="opacity: 1; stroke-width: 0px; fill: rgb(255, 0, 0); fill-opacity: 1;"/><path class="point" transform="translate(318.51,238.77)" d="M0,1.98l1.98,1.98l1.98,-1.98l-1.98,-1.98l1.98,-1.98l-1.98,-1.98l-1.98,1.98l-1.98,-1.98l-1.98,1.98l1.98,1.98l-1.98,1.98l1.98,1.98Z" style="opacity: 1; stroke-width: 0px; fill: rgb(255, 0, 0); fill-opacity: 1;"/><path class="point" transform="translate(321.71,231.82)" d="M0,1.98l1.98,1.98l1.98,-1.98l-1.98,-1.98l1.98,-1.98l-1.98,-1.98l-1.98,1.98l-1.98,-1.98l-1.98,1.98l1.98,1.98l-1.98,1.98l1.98,1.98Z" style="opacity: 1; stroke-width: 0px; fill: rgb(255, 0, 0); fill-opacity: 1;"/><path class="point" transform="translate(324.9,221.09)" d="M0,1.98l1.98,1.98l1.98,-1.98l-1.98,-1.98l1.98,-1.98l-1.98,-1.98l-1.98,1.98l-1.98,-1.98l-1.98,1.98l1.98,1.98l-1.98,1.98l1.98,1.98Z" style="opacity: 1; stroke-width: 0px; fill: rgb(255, 0, 0); fill-opacity: 1;"/><path class="point" transform="translate(328.09,209.97)" d="M0,1.98l1.98,1.98l1.98,-1.98l-1.98,-1.98l1.98,-1.98l-1.98,-1.98l-1.98,1.98l-1.98,-1.98l-1.98,1.98l1.98,1.98l-1.98,1.98l1.98,1.98Z" style="opacity: 1; stroke-width: 0px; fill: rgb(255, 0, 0); fill-opacity: 1;"/><path class="point" transform="translate(331.28,214.77)" d="M0,1.98l1.98,1.98l1.98,-1.98l-1.98,-1.98l1.98,-1.98l-1.98,-1.98l-1.98,1.98l-1.98,-1.98l-1.98,1.98l1.98,1.98l-1.98,1.98l1.98,1.98Z" style="opacity: 1; stroke-width: 0px; fill: rgb(255, 0, 0); fill-opacity: 1;"/><path class="point" transform="translate(334.47,211.8)" d="M0,1.98l1.98,1.98l1.98,-1.98l-1.98,-1.98l1.98,-1.98l-1.98,-1.98l-1.98,1.98l-1.98,-1.98l-1.98,1.98l1.98,1.98l-1.98,1.98l1.98,1.98Z" style="opacity: 1; stroke-width: 0px; fill: rgb(255, 0, 0); fill-opacity: 1;"/><path class="point" transform="translate(337.66,206.8)" d="M0,1.98l1.98,1.98l1.98,-1.98l-1.98,-1.98l1.98,-1.98l-1.98,-1.98l-1.98,1.98l-1.98,-1.98l-1.98,1.98l1.98,1.98l-1.98,1.98l1.98,1.98Z" style="opacity: 1; stroke-width: 0px; fill: rgb(255, 0, 0); fill-opacity: 1;"/><path class="point" transform="translate(340.86,202.74)" d="M0,1.98l1.98,1.98l1.98,-1.98l-1.98,-1.98l1.98,-1.98l-1.98,-1.98l-1.98,1.98l-1.98,-1.98l-1.98,1.98l1.98,1.98l-1.98,1.98l1.98,1.98Z" style="opacity: 1; stroke-width: 0px; fill: rgb(255, 0, 0); fill-opacity: 1;"/><path class="point" transform="translate(344.05,207.42)" d="M0,1.98l1.98,1.98l1.98,-1.98l-1.98,-1.98l1.98,-1.98l-1.98,-1.98l-1.98,1.98l-1.98,-1.98l-1.98,1.98l1.98,1.98l-1.98,1.98l1.98,1.98Z" style="opacity: 1; stroke-width: 0px; fill: rgb(255, 0, 0); fill-opacity: 1;"/><path class="point" transform="translate(347.24,198.83)" d="M0,1.98l1.98,1.98l1.98,-1.98l-1.98,-1.98l1.98,-1.98l-1.98,-1.98l-1.98,1.98l-1.98,-1.98l-1.98,1.98l1.98,1.98l-1.98,1.98l1.98,1.98Z" style="opacity: 1; stroke-width: 0px; fill: rgb(255, 0, 0); fill-opacity: 1;"/><path class="point" transform="translate(350.43,190.36)" d="M0,1.98l1.98,1.98l1.98,-1.98l-1.98,-1.98l1.98,-1.98l-1.98,-1.98l-1.98,1.98l-1.98,-1.98l-1.98,1.98l1.98,1.98l-1.98,1.98l1.98,1.98Z" style="opacity: 1; stroke-width: 0px; fill: rgb(255, 0, 0); fill-opacity: 1;"/><path class="point" transform="translate(353.62,185.96)" d="M0,1.98l1.98,1.98l1.98,-1.98l-1.98,-1.98l1.98,-1.98l-1.98,-1.98l-1.98,1.98l-1.98,-1.98l-1.98,1.98l1.98,1.98l-1.98,1.98l1.98,1.98Z" style="opacity: 1; stroke-width: 0px; fill: rgb(255, 0, 0); fill-opacity: 1;"/><path class="point" transform="translate(356.81,183.27)" d="M0,1.98l1.98,1.98l1.98,-1.98l-1.98,-1.98l1.98,-1.98l-1.98,-1.98l-1.98,1.98l-1.98,-1.98l-1.98,1.98l1.98,1.98l-1.98,1.98l1.98,1.98Z" style="opacity: 1; stroke-width: 0px; fill: rgb(255, 0, 0); fill-opacity: 1;"/><path class="point" transform="translate(360,178.88)" d="M0,1.98l1.98,1.98l1.98,-1.98l-1.98,-1.98l1.98,-1.98l-1.98,-1.98l-1.98,1.98l-1.98,-1.98l-1.98,1.98l1.98,1.98l-1.98,1.98l1.98,1.98Z" style="opacity: 1; stroke-width: 0px; fill: rgb(255, 0, 0); fill-opacity: 1;"/><path class="point" transform="translate(363.2,177.15)" d="M0,1.98l1.98,1.98l1.98,-1.98l-1.98,-1.98l1.98,-1.98l-1.98,-1.98l-1.98,1.98l-1.98,-1.98l-1.98,1.98l1.98,1.98l-1.98,1.98l1.98,1.98Z" style="opacity: 1; stroke-width: 0px; fill: rgb(255, 0, 0); fill-opacity: 1;"/><path class="point" transform="translate(366.39,169.73)" d="M0,1.98l1.98,1.98l1.98,-1.98l-1.98,-1.98l1.98,-1.98l-1.98,-1.98l-1.98,1.98l-1.98,-1.98l-1.98,1.98l1.98,1.98l-1.98,1.98l1.98,1.98Z" style="opacity: 1; stroke-width: 0px; fill: rgb(255, 0, 0); fill-opacity: 1;"/><path class="point" transform="translate(369.58,171.87)" d="M0,1.98l1.98,1.98l1.98,-1.98l-1.98,-1.98l1.98,-1.98l-1.98,-1.98l-1.98,1.98l-1.98,-1.98l-1.98,1.98l1.98,1.98l-1.98,1.98l1.98,1.98Z" style="opacity: 1; stroke-width: 0px; fill: rgb(255, 0, 0); fill-opacity: 1;"/><path class="point" transform="translate(372.77,166.29)" d="M0,1.98l1.98,1.98l1.98,-1.98l-1.98,-1.98l1.98,-1.98l-1.98,-1.98l-1.98,1.98l-1.98,-1.98l-1.98,1.98l1.98,1.98l-1.98,1.98l1.98,1.98Z" style="opacity: 1; stroke-width: 0px; fill: rgb(255, 0, 0); fill-opacity: 1;"/><path class="point" transform="translate(375.96,170.86)" d="M0,1.98l1.98,1.98l1.98,-1.98l-1.98,-1.98l1.98,-1.98l-1.98,-1.98l-1.98,1.98l-1.98,-1.98l-1.98,1.98l1.98,1.98l-1.98,1.98l1.98,1.98Z" style="opacity: 1; stroke-width: 0px; fill: rgb(255, 0, 0); fill-opacity: 1;"/><path class="point" transform="translate(379.15,171.66)" d="M0,1.98l1.98,1.98l1.98,-1.98l-1.98,-1.98l1.98,-1.98l-1.98,-1.98l-1.98,1.98l-1.98,-1.98l-1.98,1.98l1.98,1.98l-1.98,1.98l1.98,1.98Z" style="opacity: 1; stroke-width: 0px; fill: rgb(255, 0, 0); fill-opacity: 1;"/><path class="point" transform="translate(382.35,171.3)" d="M0,1.98l1.98,1.98l1.98,-1.98l-1.98,-1.98l1.98,-1.98l-1.98,-1.98l-1.98,1.98l-1.98,-1.98l-1.98,1.98l1.98,1.98l-1.98,1.98l1.98,1.98Z" style="opacity: 1; stroke-width: 0px; fill: rgb(255, 0, 0); fill-opacity: 1;"/><path class="point" transform="translate(385.54,164.71)" d="M0,1.98l1.98,1.98l1.98,-1.98l-1.98,-1.98l1.98,-1.98l-1.98,-1.98l-1.98,1.98l-1.98,-1.98l-1.98,1.98l1.98,1.98l-1.98,1.98l1.98,1.98Z" style="opacity: 1; stroke-width: 0px; fill: rgb(255, 0, 0); fill-opacity: 1;"/><path class="point" transform="translate(388.73,156.24)" d="M0,1.98l1.98,1.98l1.98,-1.98l-1.98,-1.98l1.98,-1.98l-1.98,-1.98l-1.98,1.98l-1.98,-1.98l-1.98,1.98l1.98,1.98l-1.98,1.98l1.98,1.98Z" style="opacity: 1; stroke-width: 0px; fill: rgb(255, 0, 0); fill-opacity: 1;"/><path class="point" transform="translate(391.92,145.51)" d="M0,1.98l1.98,1.98l1.98,-1.98l-1.98,-1.98l1.98,-1.98l-1.98,-1.98l-1.98,1.98l-1.98,-1.98l-1.98,1.98l1.98,1.98l-1.98,1.98l1.98,1.98Z" style="opacity: 1; stroke-width: 0px; fill: rgb(255, 0, 0); fill-opacity: 1;"/><path class="point" transform="translate(395.11,133.42)" d="M0,1.98l1.98,1.98l1.98,-1.98l-1.98,-1.98l1.98,-1.98l-1.98,-1.98l-1.98,1.98l-1.98,-1.98l-1.98,1.98l1.98,1.98l-1.98,1.98l1.98,1.98Z" style="opacity: 1; stroke-width: 0px; fill: rgb(255, 0, 0); fill-opacity: 1;"/><path class="point" transform="translate(398.3,127.15)" d="M0,1.98l1.98,1.98l1.98,-1.98l-1.98,-1.98l1.98,-1.98l-1.98,-1.98l-1.98,1.98l-1.98,-1.98l-1.98,1.98l1.98,1.98l-1.98,1.98l1.98,1.98Z" style="opacity: 1; stroke-width: 0px; fill: rgb(255, 0, 0); fill-opacity: 1;"/><path class="point" transform="translate(401.5,119.7)" d="M0,1.98l1.98,1.98l1.98,-1.98l-1.98,-1.98l1.98,-1.98l-1.98,-1.98l-1.98,1.98l-1.98,-1.98l-1.98,1.98l1.98,1.98l-1.98,1.98l1.98,1.98Z" style="opacity: 1; stroke-width: 0px; fill: rgb(255, 0, 0); fill-opacity: 1;"/><path class="point" transform="translate(404.69,116.88)" d="M0,1.98l1.98,1.98l1.98,-1.98l-1.98,-1.98l1.98,-1.98l-1.98,-1.98l-1.98,1.98l-1.98,-1.98l-1.98,1.98l1.98,1.98l-1.98,1.98l1.98,1.98Z" style="opacity: 1; stroke-width: 0px; fill: rgb(255, 0, 0); fill-opacity: 1;"/><path class="point" transform="translate(407.88,127.85)" d="M0,1.98l1.98,1.98l1.98,-1.98l-1.98,-1.98l1.98,-1.98l-1.98,-1.98l-1.98,1.98l-1.98,-1.98l-1.98,1.98l1.98,1.98l-1.98,1.98l1.98,1.98Z" style="opacity: 1; stroke-width: 0px; fill: rgb(255, 0, 0); fill-opacity: 1;"/><path class="point" transform="translate(411.07,117.5)" d="M0,1.98l1.98,1.98l1.98,-1.98l-1.98,-1.98l1.98,-1.98l-1.98,-1.98l-1.98,1.98l-1.98,-1.98l-1.98,1.98l1.98,1.98l-1.98,1.98l1.98,1.98Z" style="opacity: 1; stroke-width: 0px; fill: rgb(255, 0, 0); fill-opacity: 1;"/><path class="point" transform="translate(414.26,126.47)" d="M0,1.98l1.98,1.98l1.98,-1.98l-1.98,-1.98l1.98,-1.98l-1.98,-1.98l-1.98,1.98l-1.98,-1.98l-1.98,1.98l1.98,1.98l-1.98,1.98l1.98,1.98Z" style="opacity: 1; stroke-width: 0px; fill: rgb(255, 0, 0); fill-opacity: 1;"/><path class="point" transform="translate(417.45,119.28)" d="M0,1.98l1.98,1.98l1.98,-1.98l-1.98,-1.98l1.98,-1.98l-1.98,-1.98l-1.98,1.98l-1.98,-1.98l-1.98,1.98l1.98,1.98l-1.98,1.98l1.98,1.98Z" style="opacity: 1; stroke-width: 0px; fill: rgb(255, 0, 0); fill-opacity: 1;"/><path class="point" transform="translate(420.64,119.54)" d="M0,1.98l1.98,1.98l1.98,-1.98l-1.98,-1.98l1.98,-1.98l-1.98,-1.98l-1.98,1.98l-1.98,-1.98l-1.98,1.98l1.98,1.98l-1.98,1.98l1.98,1.98Z" style="opacity: 1; stroke-width: 0px; fill: rgb(255, 0, 0); fill-opacity: 1;"/><path class="point" transform="translate(423.84,118.3)" d="M0,1.98l1.98,1.98l1.98,-1.98l-1.98,-1.98l1.98,-1.98l-1.98,-1.98l-1.98,1.98l-1.98,-1.98l-1.98,1.98l1.98,1.98l-1.98,1.98l1.98,1.98Z" style="opacity: 1; stroke-width: 0px; fill: rgb(255, 0, 0); fill-opacity: 1;"/><path class="point" transform="translate(427.03,109.82)" d="M0,1.98l1.98,1.98l1.98,-1.98l-1.98,-1.98l1.98,-1.98l-1.98,-1.98l-1.98,1.98l-1.98,-1.98l-1.98,1.98l1.98,1.98l-1.98,1.98l1.98,1.98Z" style="opacity: 1; stroke-width: 0px; fill: rgb(255, 0, 0); fill-opacity: 1;"/><path class="point" transform="translate(430.22,107.75)" d="M0,1.98l1.98,1.98l1.98,-1.98l-1.98,-1.98l1.98,-1.98l-1.98,-1.98l-1.98,1.98l-1.98,-1.98l-1.98,1.98l1.98,1.98l-1.98,1.98l1.98,1.98Z" style="opacity: 1; stroke-width: 0px; fill: rgb(255, 0, 0); fill-opacity: 1;"/><path class="point" transform="translate(433.41,104.23)" d="M0,1.98l1.98,1.98l1.98,-1.98l-1.98,-1.98l1.98,-1.98l-1.98,-1.98l-1.98,1.98l-1.98,-1.98l-1.98,1.98l1.98,1.98l-1.98,1.98l1.98,1.98Z" style="opacity: 1; stroke-width: 0px; fill: rgb(255, 0, 0); fill-opacity: 1;"/><path class="point" transform="translate(436.6,106.28)" d="M0,1.98l1.98,1.98l1.98,-1.98l-1.98,-1.98l1.98,-1.98l-1.98,-1.98l-1.98,1.98l-1.98,-1.98l-1.98,1.98l1.98,1.98l-1.98,1.98l1.98,1.98Z" style="opacity: 1; stroke-width: 0px; fill: rgb(255, 0, 0); fill-opacity: 1;"/><path class="point" transform="translate(439.79,106.24)" d="M0,1.98l1.98,1.98l1.98,-1.98l-1.98,-1.98l1.98,-1.98l-1.98,-1.98l-1.98,1.98l-1.98,-1.98l-1.98,1.98l1.98,1.98l-1.98,1.98l1.98,1.98Z" style="opacity: 1; stroke-width: 0px; fill: rgb(255, 0, 0); fill-opacity: 1;"/><path class="point" transform="translate(442.99,104.51)" d="M0,1.98l1.98,1.98l1.98,-1.98l-1.98,-1.98l1.98,-1.98l-1.98,-1.98l-1.98,1.98l-1.98,-1.98l-1.98,1.98l1.98,1.98l-1.98,1.98l1.98,1.98Z" style="opacity: 1; stroke-width: 0px; fill: rgb(255, 0, 0); fill-opacity: 1;"/><path class="point" transform="translate(446.18,109.22)" d="M0,1.98l1.98,1.98l1.98,-1.98l-1.98,-1.98l1.98,-1.98l-1.98,-1.98l-1.98,1.98l-1.98,-1.98l-1.98,1.98l1.98,1.98l-1.98,1.98l1.98,1.98Z" style="opacity: 1; stroke-width: 0px; fill: rgb(255, 0, 0); fill-opacity: 1;"/><path class="point" transform="translate(449.37,102.31)" d="M0,1.98l1.98,1.98l1.98,-1.98l-1.98,-1.98l1.98,-1.98l-1.98,-1.98l-1.98,1.98l-1.98,-1.98l-1.98,1.98l1.98,1.98l-1.98,1.98l1.98,1.98Z" style="opacity: 1; stroke-width: 0px; fill: rgb(255, 0, 0); fill-opacity: 1;"/><path class="point" transform="translate(452.56,103.4)" d="M0,1.98l1.98,1.98l1.98,-1.98l-1.98,-1.98l1.98,-1.98l-1.98,-1.98l-1.98,1.98l-1.98,-1.98l-1.98,1.98l1.98,1.98l-1.98,1.98l1.98,1.98Z" style="opacity: 1; stroke-width: 0px; fill: rgb(255, 0, 0); fill-opacity: 1;"/><path class="point" transform="translate(455.75,102.84)" d="M0,1.98l1.98,1.98l1.98,-1.98l-1.98,-1.98l1.98,-1.98l-1.98,-1.98l-1.98,1.98l-1.98,-1.98l-1.98,1.98l1.98,1.98l-1.98,1.98l1.98,1.98Z" style="opacity: 1; stroke-width: 0px; fill: rgb(255, 0, 0); fill-opacity: 1;"/><path class="point" transform="translate(458.94,101.77)" d="M0,1.98l1.98,1.98l1.98,-1.98l-1.98,-1.98l1.98,-1.98l-1.98,-1.98l-1.98,1.98l-1.98,-1.98l-1.98,1.98l1.98,1.98l-1.98,1.98l1.98,1.98Z" style="opacity: 1; stroke-width: 0px; fill: rgb(255, 0, 0); fill-opacity: 1;"/><path class="point" transform="translate(462.13,96.64)" d="M0,1.98l1.98,1.98l1.98,-1.98l-1.98,-1.98l1.98,-1.98l-1.98,-1.98l-1.98,1.98l-1.98,-1.98l-1.98,1.98l1.98,1.98l-1.98,1.98l1.98,1.98Z" style="opacity: 1; stroke-width: 0px; fill: rgb(255, 0, 0); fill-opacity: 1;"/><path class="point" transform="translate(465.33,87.61)" d="M0,1.98l1.98,1.98l1.98,-1.98l-1.98,-1.98l1.98,-1.98l-1.98,-1.98l-1.98,1.98l-1.98,-1.98l-1.98,1.98l1.98,1.98l-1.98,1.98l1.98,1.98Z" style="opacity: 1; stroke-width: 0px; fill: rgb(255, 0, 0); fill-opacity: 1;"/><path class="point" transform="translate(468.52,78.35)" d="M0,1.98l1.98,1.98l1.98,-1.98l-1.98,-1.98l1.98,-1.98l-1.98,-1.98l-1.98,1.98l-1.98,-1.98l-1.98,1.98l1.98,1.98l-1.98,1.98l1.98,1.98Z" style="opacity: 1; stroke-width: 0px; fill: rgb(255, 0, 0); fill-opacity: 1;"/><path class="point" transform="translate(471.71,79.2)" d="M0,1.98l1.98,1.98l1.98,-1.98l-1.98,-1.98l1.98,-1.98l-1.98,-1.98l-1.98,1.98l-1.98,-1.98l-1.98,1.98l1.98,1.98l-1.98,1.98l1.98,1.98Z" style="opacity: 1; stroke-width: 0px; fill: rgb(255, 0, 0); fill-opacity: 1;"/><path class="point" transform="translate(474.9,77.13)" d="M0,1.98l1.98,1.98l1.98,-1.98l-1.98,-1.98l1.98,-1.98l-1.98,-1.98l-1.98,1.98l-1.98,-1.98l-1.98,1.98l1.98,1.98l-1.98,1.98l1.98,1.98Z" style="opacity: 1; stroke-width: 0px; fill: rgb(255, 0, 0); fill-opacity: 1;"/><path class="point" transform="translate(478.09,75.12)" d="M0,1.98l1.98,1.98l1.98,-1.98l-1.98,-1.98l1.98,-1.98l-1.98,-1.98l-1.98,1.98l-1.98,-1.98l-1.98,1.98l1.98,1.98l-1.98,1.98l1.98,1.98Z" style="opacity: 1; stroke-width: 0px; fill: rgb(255, 0, 0); fill-opacity: 1;"/><path class="point" transform="translate(481.28,72.13)" d="M0,1.98l1.98,1.98l1.98,-1.98l-1.98,-1.98l1.98,-1.98l-1.98,-1.98l-1.98,1.98l-1.98,-1.98l-1.98,1.98l1.98,1.98l-1.98,1.98l1.98,1.98Z" style="opacity: 1; stroke-width: 0px; fill: rgb(255, 0, 0); fill-opacity: 1;"/><path class="point" transform="translate(484.48,75.5)" d="M0,1.98l1.98,1.98l1.98,-1.98l-1.98,-1.98l1.98,-1.98l-1.98,-1.98l-1.98,1.98l-1.98,-1.98l-1.98,1.98l1.98,1.98l-1.98,1.98l1.98,1.98Z" style="opacity: 1; stroke-width: 0px; fill: rgb(255, 0, 0); fill-opacity: 1;"/><path class="point" transform="translate(487.67,78.28)" d="M0,1.98l1.98,1.98l1.98,-1.98l-1.98,-1.98l1.98,-1.98l-1.98,-1.98l-1.98,1.98l-1.98,-1.98l-1.98,1.98l1.98,1.98l-1.98,1.98l1.98,1.98Z" style="opacity: 1; stroke-width: 0px; fill: rgb(255, 0, 0); fill-opacity: 1;"/><path class="point" transform="translate(490.86,80.32)" d="M0,1.98l1.98,1.98l1.98,-1.98l-1.98,-1.98l1.98,-1.98l-1.98,-1.98l-1.98,1.98l-1.98,-1.98l-1.98,1.98l1.98,1.98l-1.98,1.98l1.98,1.98Z" style="opacity: 1; stroke-width: 0px; fill: rgb(255, 0, 0); fill-opacity: 1;"/><path class="point" transform="translate(494.05,86)" d="M0,1.98l1.98,1.98l1.98,-1.98l-1.98,-1.98l1.98,-1.98l-1.98,-1.98l-1.98,1.98l-1.98,-1.98l-1.98,1.98l1.98,1.98l-1.98,1.98l1.98,1.98Z" style="opacity: 1; stroke-width: 0px; fill: rgb(255, 0, 0); fill-opacity: 1;"/><path class="point" transform="translate(497.24,92.1)" d="M0,1.98l1.98,1.98l1.98,-1.98l-1.98,-1.98l1.98,-1.98l-1.98,-1.98l-1.98,1.98l-1.98,-1.98l-1.98,1.98l1.98,1.98l-1.98,1.98l1.98,1.98Z" style="opacity: 1; stroke-width: 0px; fill: rgb(255, 0, 0); fill-opacity: 1;"/><path class="point" transform="translate(500.43,89.89)" d="M0,1.98l1.98,1.98l1.98,-1.98l-1.98,-1.98l1.98,-1.98l-1.98,-1.98l-1.98,1.98l-1.98,-1.98l-1.98,1.98l1.98,1.98l-1.98,1.98l1.98,1.98Z" style="opacity: 1; stroke-width: 0px; fill: rgb(255, 0, 0); fill-opacity: 1;"/><path class="point" transform="translate(503.63,87.22)" d="M0,1.98l1.98,1.98l1.98,-1.98l-1.98,-1.98l1.98,-1.98l-1.98,-1.98l-1.98,1.98l-1.98,-1.98l-1.98,1.98l1.98,1.98l-1.98,1.98l1.98,1.98Z" style="opacity: 1; stroke-width: 0px; fill: rgb(255, 0, 0); fill-opacity: 1;"/><path class="point" transform="translate(506.73,101.04)" d="M0,1.98l1.98,1.98l1.98,-1.98l-1.98,-1.98l1.98,-1.98l-1.98,-1.98l-1.98,1.98l-1.98,-1.98l-1.98,1.98l1.98,1.98l-1.98,1.98l1.98,1.98Z" style="opacity: 1; stroke-width: 0px; fill: rgb(255, 0, 0); fill-opacity: 1;"/></g><g class="text"/></g></g></g></g><path class="xlines-above crisp" d="" style="fill: none; stroke-width: 1px; stroke: rgb(0, 0, 0); stroke-opacity: 0;"/><path class="ylines-above crisp" d="" style="fill: none; stroke-width: 1px; stroke: rgb(0, 0, 0); stroke-opacity: 0;"/><g class="overlines-above"/><g class="xaxislayer-above"><path class="xtick ticks crisp" d="M0,541v5" transform="translate(89.9,0)" style="stroke: rgb(51, 51, 51); stroke-opacity: 1; stroke-width: 1px;"/><path class="xtick ticks crisp" d="M0,541v5" transform="translate(245.5,0)" style="stroke: rgb(51, 51, 51); stroke-opacity: 1; stroke-width: 1px;"/><path class="xtick ticks crisp" d="M0,541v5" transform="translate(401.1,0)" style="stroke: rgb(51, 51, 51); stroke-opacity: 1; stroke-width: 1px;"/><path class="xtick ticks crisp" d="M0,541v5" transform="translate(556.71,0)" style="stroke: rgb(51, 51, 51); stroke-opacity: 1; stroke-width: 1px;"/><g class="xtick"><text text-anchor="middle" x="0" y="560.4" transform="translate(89.9,0)" style="font-family: Arial; font-size: 12px; fill: rgb(51, 51, 51); fill-opacity: 1; white-space: pre; opacity: 1;">0</text></g><g class="xtick"><text text-anchor="middle" x="0" y="560.4" style="font-family: Arial; font-size: 12px; fill: rgb(51, 51, 51); fill-opacity: 1; white-space: pre; opacity: 1;" transform="translate(245.5,0)">5</text></g><g class="xtick"><text text-anchor="middle" x="0" y="560.4" style="font-family: Arial; font-size: 12px; fill: rgb(51, 51, 51); fill-opacity: 1; white-space: pre; opacity: 1;" transform="translate(401.1,0)">10</text></g><g class="xtick"><text text-anchor="middle" x="0" y="560.4" style="font-family: Arial; font-size: 12px; fill: rgb(51, 51, 51); fill-opacity: 1; white-space: pre; opacity: 1;" transform="translate(556.71,0)">15</text></g></g><g class="yaxislayer-above"><path class="ytick ticks crisp" d="M68,0h-5" transform="translate(0,465.04)" style="stroke: rgb(51, 51, 51); stroke-opacity: 1; stroke-width: 1px;"/><path class="ytick ticks crisp" d="M68,0h-5" transform="translate(0,385.47)" style="stroke: rgb(51, 51, 51); stroke-opacity: 1; stroke-width: 1px;"/><path class="ytick ticks crisp" d="M68,0h-5" transform="translate(0,305.9)" style="stroke: rgb(51, 51, 51); stroke-opacity: 1; stroke-width: 1px;"/><path class="ytick ticks crisp" d="M68,0h-5" transform="translate(0,226.33)" style="stroke: rgb(51, 51, 51); stroke-opacity: 1; stroke-width: 1px;"/><path class="ytick ticks crisp" d="M68,0h-5" transform="translate(0,146.76)" style="stroke: rgb(51, 51, 51); stroke-opacity: 1; stroke-width: 1px;"/><g class="ytick"><text text-anchor="end" x="60.6" y="4.199999999999999" transform="translate(0,465.04)" style="font-family: Arial; font-size: 12px; fill: rgb(51, 51, 51); fill-opacity: 1; white-space: pre; opacity: 1;">0.7</text></g><g class="ytick"><text text-anchor="end" x="60.6" y="4.199999999999999" style="font-family: Arial; font-size: 12px; fill: rgb(51, 51, 51); fill-opacity: 1; white-space: pre; opacity: 1;" transform="translate(0,385.47)">0.75</text></g><g class="ytick"><text text-anchor="end" x="60.6" y="4.199999999999999" style="font-family: Arial; font-size: 12px; fill: rgb(51, 51, 51); fill-opacity: 1; white-space: pre; opacity: 1;" transform="translate(0,305.9)">0.8</text></g><g class="ytick"><text text-anchor="end" x="60.6" y="4.199999999999999" style="font-family: Arial; font-size: 12px; fill: rgb(51, 51, 51); fill-opacity: 1; white-space: pre; opacity: 1;" transform="translate(0,226.33)">0.85</text></g><g class="ytick"><text text-anchor="end" x="60.6" y="4.199999999999999" style="font-family: Arial; font-size: 12px; fill: rgb(51, 51, 51); fill-opacity: 1; white-space: pre; opacity: 1;" transform="translate(0,146.76)">0.9</text></g></g><g class="overaxes-above"/></g></g><g class="polarlayer"/><g class="smithlayer"/><g class="ternarylayer"/><g class="geolayer"/><g class="funnelarealayer"/><g class="pielayer"/><g class="iciclelayer"/><g class="treemaplayer"/><g class="sunburstlayer"/><g class="glimages"/><defs id="topdefs-a0b114"><g class="clips"/><clipPath id="legenda0b114"><rect width="170" height="48" x="0" y="0"/></clipPath></defs><g class="layer-above"><g class="imagelayer"/><g class="shapelayer"/></g><g class="infolayer"><g class="legend" pointer-events="all" transform="translate(617.76,70)"><rect class="bg" shape-rendering="crispEdges" style="stroke: rgb(68, 68, 68); stroke-opacity: 1; fill: rgb(255, 255, 255); fill-opacity: 1; stroke-width: 0px;" width="170" height="48" x="0" y="0"/><g class="scrollbox" transform="" clip-path="url(#legenda0b114)"><text class="legendtitletext" text-anchor="start" x="2" y="18.2" style="font-family: Arial; font-size: 14px; fill: rgb(51, 51, 51); fill-opacity: 1; white-space: pre;">Legend</text><g class="groups"><g class="traces" transform="translate(0,32.7)" style="opacity: 1;"><text class="legendtext" text-anchor="start" x="40" y="4.680000000000001" style="font-family: Arial; font-size: 12px; fill: rgb(51, 51, 51); fill-opacity: 1; white-space: pre;">Biomass Concentration</text><g class="layers" style="opacity: 1;"><g class="legendfill"/><g class="legendlines"><path class="js-line" d="M5,0h30" style="fill: none; stroke: rgb(255, 0, 0); stroke-opacity: 1; stroke-width: 2px;"/></g><g class="legendsymbols"><g class="legendpoints"><path class="scatterpts" transform="translate(20,0)" d="M0,1.98l1.98,1.98l1.98,-1.98l-1.98,-1.98l1.98,-1.98l-1.98,-1.98l-1.98,1.98l-1.98,-1.98l-1.98,1.98l1.98,1.98l-1.98,1.98l1.98,1.98Z" style="opacity: 1; stroke-width: 0px; fill: rgb(255, 0, 0); fill-opacity: 1;"/></g></g></g><rect class="legendtoggle" x="0" y="-9.5" width="164.0625" height="19" style="fill: rgb(0, 0, 0); fill-opacity: 0;"/></g></g></g><rect class="scrollbar" rx="20" ry="3" width="0" height="0" style="fill: rgb(128, 139, 164); fill-opacity: 1;" x="0" y="0"/></g><g class="g-gtitle"><text class="gtitle" x="400" y="30" text-anchor="middle" dy="0.7em" style="opacity: 1; font-family: Arial; font-size: 17px; fill: rgb(51, 51, 51); fill-opacity: 1; white-space: pre;">Biomass concentration according to time</text></g><g class="g-xtitle"><text class="xtitle" x="338" y="587.70625" text-anchor="middle" style="opacity: 1; font-family: Arial; font-size: 14px; fill: rgb(51, 51, 51); fill-opacity: 1; white-space: pre;">Time [h]</text></g><g class="g-ytitle"><text class="ytitle" transform="rotate(-90,17.834375,305)" x="17.834375" y="305" text-anchor="middle" style="opacity: 1; font-family: Arial; font-size: 14px; fill: rgb(51, 51, 51); fill-opacity: 1; white-space: pre;">Biomass concentration [g]</text></g></g></svg>