<svg class="main-svg" xmlns="http://www.w3.org/2000/svg" xmlns:xlink="http://www.w3.org/1999/xlink" width="1000" height="1000" style="" viewBox="0 0 1000 1000"><rect x="0" y="0" width="1000" height="1000" style="fill: rgb(255, 255, 255); fill-opacity: 1;"/><defs id="defs-fe10c7"><g class="clips"><clipPath id="clipfe10c7xyplot" class="plotclip"><rect width="731" height="820"/></clipPath><clipPath class="axesclip" id="clipfe10c7x"><rect x="80" y="0" width="731" height="1000"/></clipPath><clipPath class="axesclip" id="clipfe10c7y"><rect x="0" y="100" width="1000" height="820"/></clipPath><clipPath class="axesclip" id="clipfe10c7xy"><rect x="80" y="100" width="731" height="820"/></clipPath></g><g class="gradients"/></defs><g class="bglayer"/><g class="layer-below"><g class="imagelayer"/><g class="shapelayer"/></g><g class="cartesianlayer"><g class="subplot xy"><g class="layer-subplot"><g class="shapelayer"/><g class="imagelayer"/></g><g class="gridlayer"><g class="x"><path class="xgrid crisp" transform="translate(83.65,0)" d="M0,100v820" style="stroke: rgb(211, 211, 211); stroke-opacity: 1; stroke-width: 1px;"/><path class="xgrid crisp" transform="translate(164.67000000000002,0)" d="M0,100v820" style="stroke: rgb(211, 211, 211); stroke-opacity: 1; stroke-width: 1px;"/><path class="xgrid crisp" transform="translate(245.69,0)" d="M0,100v820" style="stroke: rgb(211, 211, 211); stroke-opacity: 1; stroke-width: 1px;"/><path class="xgrid crisp" transform="translate(326.71000000000004,0)" d="M0,100v820" style="stroke: rgb(211, 211, 211); stroke-opacity: 1; stroke-width: 1px;"/><path class="xgrid crisp" transform="translate(407.73,0)" d="M0,100v820" style="stroke: rgb(211, 211, 211); stroke-opacity: 1; stroke-width: 1px;"/><path class="xgrid crisp" transform="translate(488.75,0)" d="M0,100v820" style="stroke: rgb(211, 211, 211); stroke-opacity: 1; stroke-width: 1px;"/><path class="xgrid crisp" transform="translate(569.76,0)" d="M0,100v820" style="stroke: rgb(211, 211, 211); stroke-opacity: 1; stroke-width: 1px;"/><path class="xgrid crisp" transform="translate(650.78,0)" d="M0,100v820" style="stroke: rgb(211, 211, 211); stroke-opacity: 1; stroke-width: 1px;"/><path class="xgrid crisp" transform="translate(731.8,0)" d="M0,100v820" style="stroke: rgb(211, 211, 211); stroke-opacity: 1; stroke-width: 1px;"/></g><g class="y"><path class="ygrid crisp" transform="translate(0,778.96)" d="M80,0h731" style="stroke: rgb(211, 211, 211); stroke-opacity: 1; stroke-width: 1px;"/><path class="ygrid crisp" transform="translate(0,637.92)" d="M80,0h731" style="stroke: rgb(211, 211, 211); stroke-opacity: 1; stroke-width: 1px;"/><path class="ygrid crisp" transform="translate(0,496.88)" d="M80,0h731" style="stroke: rgb(211, 211, 211); stroke-opacity: 1; stroke-width: 1px;"/><path class="ygrid crisp" transform="translate(0,355.83000000000004)" d="M80,0h731" style="stroke: rgb(211, 211, 211); stroke-opacity: 1; stroke-width: 1px;"/><path class="ygrid crisp" transform="translate(0,214.79000000000002)" d="M80,0h731" style="stroke: rgb(211, 211, 211); stroke-opacity: 1; stroke-width: 1px;"/></g></g><g class="zerolinelayer"><path class="yzl zl crisp" transform="translate(0,920)" d="M80,0h731" style="stroke: rgb(68, 68, 68); stroke-opacity: 1; stroke-width: 1px;"/></g><path class="xlines-below"/><path class="ylines-below"/><g class="overlines-below"/><g class="xaxislayer-below"/><g class="yaxislayer-below"/><g class="overaxes-below"/><g class="plot" transform="translate(80,100)" clip-path="url('#clipfe10c7xyplot')"><g class="barlayer mlayer"><g class="trace bars" style="opacity: 1;"><g class="points"><g class="point"><path d="M0.73,820V388.75H6.58V820Z" style="vector-effect: non-scaling-stroke; opacity: 1; stroke-width: 0px; fill: rgb(70, 130, 180); fill-opacity: 1;"/></g><g class="point"><path d="M8.04,820V393.24H13.89V820Z" style="vector-effect: non-scaling-stroke; opacity: 1; stroke-width: 0px; fill: rgb(70, 130, 180); fill-opacity: 1;"/></g><g class="point"><path d="M15.35,820V374.79H21.2V820Z" style="vector-effect: non-scaling-stroke; opacity: 1; stroke-width: 0px; fill: rgb(70, 130, 180); fill-opacity: 1;"/></g><g class="point"><path d="M22.66,820V361.7H28.51V820Z" style="vector-effect: non-scaling-stroke; opacity: 1; stroke-width: 0px; fill: rgb(70, 130, 180); fill-opacity: 1;"/></g><g class="point"><path d="M29.97,820V339.73H35.82V820Z" style="vector-effect: non-scaling-stroke; opacity: 1; stroke-width: 0px; fill: rgb(70, 130, 180); fill-opacity: 1;"/></g><g class="point"><path d="M37.28,820V341.84H43.13V820Z" style="vector-effect: non-scaling-stroke; opacity: 1; stroke-width: 0px; fill: rgb(70, 130, 180); fill-opacity: 1;"/></g><g class="point"><path d="M44.59,820V317.22H50.44V820Z" style="vector-effect: non-scaling-stroke; opacity: 1; stroke-width: 0px; fill: rgb(70, 130, 180); fill-opacity: 1;"/></g><g class="point"><path d="M51.9,820V313.41H57.75V820Z" style="vector-effect: non-scaling-stroke; opacity: 1; stroke-width: 0px; fill: rgb(70, 130, 180); fill-opacity: 1;"/></g><g class="point"><path d="M59.21,820V318.82H65.06V820Z" style="vector-effect: non-scaling-stroke; opacity: 1; stroke-width: 0px; fill: rgb(70, 130, 180); fill-opacity: 1;"/></g><g class="point"><path d="M66.52,820V315.75H72.37V820Z" style="vector-effect: non-scaling-stroke; opacity: 1; stroke-width: 0px; fill: rgb(70, 130, 180); fill-opacity: 1;"/></g><g class="point"><path d="M73.83,820V312.28H79.68V820Z" style="vector-effect: non-scaling-stroke; opacity: 1; stroke-width: 0px; fill: rgb(70, 130, 180); fill-opacity: 1;"/></g><g class="point"><path d="M81.14,820V289.37H86.99V820Z" style="vector-effect: non-scaling-stroke; opacity: 1; stroke-width: 0px; fill: rgb(70, 130, 180); fill-opacity: 1;"/></g><g class="point"><path d="M88.45,820V292.11H94.3V820Z" style="vector-effect: non-scaling-stroke; opacity: 1; stroke-width: 0px; fill: rgb(70, 130, 180); fill-opacity: 1;"/></g><g class="point"><path d="M95.76,820V286.61H101.61V820Z" style="vector-effect: non-scaling-stroke; opacity: 1; stroke-width: 0px; fill: rgb(70, 130, 180); fill-opacity: 1;"/></g><g class="point"><path d="M103.07,820V282.32H108.92V820Z" style="vector-effect: non-scaling-stroke; opacity: 1; stroke-width: 0px; fill: rgb(70, 130, 180); fill-opacity: 1;"/></g><g class="point"><path d="M110.38,820V272.79H116.23V820Z" style="vector-effect: non-scaling-stroke; opacity: 1; stroke-width: 0px; fill: rgb(70, 130, 180); fill-opacity: 1;"/></g><g class="point"><path d="M117.69,820V280.21H123.54V820Z" style="vector-effect: non-scaling-stroke; opacity: 1; stroke-width: 0px; fill: rgb(70, 130, 180); fill-opacity: 1;"/></g><g class="point"><path d="M125,820V275.16H130.85V820Z" style="vector-effect: non-scaling-stroke; opacity: 1; stroke-width: 0px; fill: rgb(70, 130, 180); fill-opacity: 1;"/></g><g class="point"><path d="M132.31,820V273.13H138.16V820Z" style="vector-effect: non-scaling-stroke; opacity: 1; stroke-width: 0px; fill: rgb(70, 130, 180); fill-opacity: 1;"/></g><g class="point"><path d="M139.62,820V267.74H145.47V820Z" style="vector-effect: non-scaling-stroke; opacity: 1; stroke-width: 0px; fill: rgb(70, 130, 180); fill-opacity: 1;"/></g><g class="point"><path d="M146.93,820V282.35H152.78V820Z" style="vector-effect: non-scaling-stroke; opacity: 1; stroke-width: 0px; fill: rgb(70, 130, 180); fill-opacity: 1;"/></g><g class="point"><path d="M154.24,820V281.64H160.09V820Z" style="vector-effect: non-scaling-stroke; opacity: 1; stroke-width: 0px; fill: rgb(70, 130, 180); fill-opacity: 1;"/></g><g class="point"><path d="M161.55,820V278.68H167.4V820Z" style="vector-effect: non-scaling-stroke; opacity: 1; stroke-width: 0px; fill: rgb(70, 130, 180); fill-opacity: 1;"/></g><g class="point"><path d="M168.86,820V275.98H174.71V820Z" style="vector-effect: non-scaling-stroke; opacity: 1; stroke-width: 0px; fill: rgb(70, 130, 180); fill-opacity: 1;"/></g><g class="point"><path d="M176.17,820V271.57H182.02V820Z" style="vector-effect: non-scaling-stroke; opacity: 1; stroke-width: 0px; fill: rgb(70, 130, 180); fill-opacity: 1;"/></g><g class="point"><path d="M183.48,820V272.9H189.33V820Z" style="vector-effect: non-scaling-stroke; opacity: 1; stroke-width: 0px; fill: rgb(70, 130, 180); fill-opacity: 1;"/></g><g class="point"><path d="M190.79,820V294.14H196.64V820Z" style="vector-effect: non-scaling-stroke; opacity: 1; stroke-width: 0px; fill: rgb(70, 130, 180); fill-opacity: 1;"/></g><g class="point"><path d="M198.1,820V290.81H203.95V820Z" style="vector-effect: non-scaling-stroke; opacity: 1; stroke-width: 0px; fill: rgb(70, 130, 180); fill-opacity: 1;"/></g><g class="point"><path d="M205.41,820V286.55H211.26V820Z" style="vector-effect: non-scaling-stroke; opacity: 1; stroke-width: 0px; fill: rgb(70, 130, 180); fill-opacity: 1;"/></g><g class="point"><path d="M212.72,820V283.56H218.57V820Z" style="vector-effect: non-scaling-stroke; opacity: 1; stroke-width: 0px; fill: rgb(70, 130, 180); fill-opacity: 1;"/></g><g class="point"><path d="M220.03,820V307.09H225.88V820Z" style="vector-effect: non-scaling-stroke; opacity: 1; stroke-width: 0px; fill: rgb(70, 130, 180); fill-opacity: 1;"/></g><g class="point"><path d="M227.34,820V311.46H233.19V820Z" style="vector-effect: non-scaling-stroke; opacity: 1; stroke-width: 0px; fill: rgb(70, 130, 180); fill-opacity: 1;"/></g><g class="point"><path d="M234.65,820V313.18H240.5V820Z" style="vector-effect: non-scaling-stroke; opacity: 1; stroke-width: 0px; fill: rgb(70, 130, 180); fill-opacity: 1;"/></g><g class="point"><path d="M241.96,820V335.44H247.81V820Z" style="vector-effect: non-scaling-stroke; opacity: 1; stroke-width: 0px; fill: rgb(70, 130, 180); fill-opacity: 1;"/></g><g class="point"><path d="M249.27,820V340.29H255.12V820Z" style="vector-effect: non-scaling-stroke; opacity: 1; stroke-width: 0px; fill: rgb(70, 130, 180); fill-opacity: 1;"/></g><g class="point"><path d="M256.58,820V336.96H262.43V820Z" style="vector-effect: non-scaling-stroke; opacity: 1; stroke-width: 0px; fill: rgb(70, 130, 180); fill-opacity: 1;"/></g><g class="point"><path d="M263.89,820V355.16H269.74V820Z" style="vector-effect: non-scaling-stroke; opacity: 1; stroke-width: 0px; fill: rgb(70, 130, 180); fill-opacity: 1;"/></g><g class="point"><path d="M271.2,820V373.01H277.05V820Z" style="vector-effect: non-scaling-stroke; opacity: 1; stroke-width: 0px; fill: rgb(70, 130, 180); fill-opacity: 1;"/></g><g class="point"><path d="M278.51,820V381.08H284.36V820Z" style="vector-effect: non-scaling-stroke; opacity: 1; stroke-width: 0px; fill: rgb(70, 130, 180); fill-opacity: 1;"/></g><g class="point"><path d="M285.82,820V396.31H291.67V820Z" style="vector-effect: non-scaling-stroke; opacity: 1; stroke-width: 0px; fill: rgb(70, 130, 180); fill-opacity: 1;"/></g><g class="point"><path d="M293.13,820V403.14H298.98V820Z" style="vector-effect: non-scaling-stroke; opacity: 1; stroke-width: 0px; fill: rgb(70, 130, 180); fill-opacity: 1;"/></g><g class="point"><path d="M300.44,820V415.72H306.29V820Z" style="vector-effect: non-scaling-stroke; opacity: 1; stroke-width: 0px; fill: rgb(70, 130, 180); fill-opacity: 1;"/></g><g class="point"><path d="M307.75,820V423.76H313.6V820Z" style="vector-effect: non-scaling-stroke; opacity: 1; stroke-width: 0px; fill: rgb(70, 130, 180); fill-opacity: 1;"/></g><g class="point"><path d="M315.06,820V436.62H320.91V820Z" style="vector-effect: non-scaling-stroke; opacity: 1; stroke-width: 0px; fill: rgb(70, 130, 180); fill-opacity: 1;"/></g><g class="point"><path d="M322.37,820V445.56H328.22V820Z" style="vector-effect: non-scaling-stroke; opacity: 1; stroke-width: 0px; fill: rgb(70, 130, 180); fill-opacity: 1;"/></g><g class="point"><path d="M329.68,820V460.51H335.53V820Z" style="vector-effect: non-scaling-stroke; opacity: 1; stroke-width: 0px; fill: rgb(70, 130, 180); fill-opacity: 1;"/></g><g class="point"><path d="M336.99,820V473.57H342.84V820Z" style="vector-effect: non-scaling-stroke; opacity: 1; stroke-width: 0px; fill: rgb(70, 130, 180); fill-opacity: 1;"/></g><g class="point"><path d="M344.3,820V498.74H350.15V820Z" style="vector-effect: non-scaling-stroke; opacity: 1; stroke-width: 0px; fill: rgb(70, 130, 180); fill-opacity: 1;"/></g><g class="point"><path d="M351.61,820V501.7H357.46V820Z" style="vector-effect: non-scaling-stroke; opacity: 1; stroke-width: 0px; fill: rgb(70, 130, 180); fill-opacity: 1;"/></g><g class="point"><path d="M358.92,820V518.59H364.77V820Z" style="vector-effect: non-scaling-stroke; opacity: 1; stroke-width: 0px; fill: rgb(70, 130, 180); fill-opacity: 1;"/></g><g class="point"><path d="M366.23,820V534.17H372.08V820Z" style="vector-effect: non-scaling-stroke; opacity: 1; stroke-width: 0px; fill: rgb(70, 130, 180); fill-opacity: 1;"/></g><g class="point"><path d="M373.54,820V536.56H379.39V820Z" style="vector-effect: non-scaling-stroke; opacity: 1; stroke-width: 0px; fill: rgb(70, 130, 180); fill-opacity: 1;"/></g><g class="point"><path d="M380.85,820V551.03H386.7V820Z" style="vector-effect: non-scaling-stroke; opacity: 1; stroke-width: 0px; fill: rgb(70, 130, 180); fill-opacity: 1;"/></g><g class="point"><path d="M388.16,820V568.41H394.01V820Z" style="vector-effect: non-scaling-stroke; opacity: 1; stroke-width: 0px; fill: rgb(70, 130, 180); fill-opacity: 1;"/></g><g class="point"><path d="M395.47,820V578.54H401.32V820Z" style="vector-effect: non-scaling-stroke; opacity: 1; stroke-width: 0px; fill: rgb(70, 130, 180); fill-opacity: 1;"/></g><g class="point"><path d="M402.78,820V599.04H408.63V820Z" style="vector-effect: non-scaling-stroke; opacity: 1; stroke-width: 0px; fill: rgb(70, 130, 180); fill-opacity: 1;"/></g><g class="point"><path d="M410.09,820V595.91H415.94V820Z" style="vector-effect: non-scaling-stroke; opacity: 1; stroke-width: 0px; fill: rgb(70, 130, 180); fill-opacity: 1;"/></g><g class="point"><path d="M417.4,820V604.18H423.25V820Z" style="vector-effect: non-scaling-stroke; opacity: 1; stroke-width: 0px; fill: rgb(70, 130, 180); fill-opacity: 1;"/></g><g class="point"><path d="M424.71,820V623.67H430.56V820Z" style="vector-effect: non-scaling-stroke; opacity: 1; stroke-width: 0px; fill: rgb(70, 130, 180); fill-opacity: 1;"/></g><g class="point"><path d="M432.02,820V629.74H437.87V820Z" style="vector-effect: non-scaling-stroke; opacity: 1; stroke-width: 0px; fill: rgb(70, 130, 180); fill-opacity: 1;"/></g><g class="point"><path d="M439.33,820V640.29H445.18V820Z" style="vector-effect: non-scaling-stroke; opacity: 1; stroke-width: 0px; fill: rgb(70, 130, 180); fill-opacity: 1;"/></g><g class="point"><path d="M446.64,820V639.38H452.49V820Z" style="vector-effect: non-scaling-stroke; opacity: 1; stroke-width: 0px; fill: rgb(70, 130, 180); fill-opacity: 1;"/></g><g class="point"><path d="M453.95,820V650.95H459.8V820Z" style="vector-effect: non-scaling-stroke; opacity: 1; stroke-width: 0px; fill: rgb(70, 130, 180); fill-opacity: 1;"/></g><g class="point"><path d="M461.26,820V666.83H467.11V820Z" style="vector-effect: non-scaling-stroke; opacity: 1; stroke-width: 0px; fill: rgb(70, 130, 180); fill-opacity: 1;"/></g><g class="point"><path d="M468.57,820V665.56H474.42V820Z" style="vector-effect: non-scaling-stroke; opacity: 1; stroke-width: 0px; fill: rgb(70, 130, 180); fill-opacity: 1;"/></g><g class="point"><path d="M475.88,820V673.35H481.73V820Z" style="vector-effect: non-scaling-stroke; opacity: 1; stroke-width: 0px; fill: rgb(70, 130, 180); fill-opacity: 1;"/></g><g class="point"><path d="M483.19,820V677.8H489.04V820Z" style="vector-effect: non-scaling-stroke; opacity: 1; stroke-width: 0px; fill: rgb(70, 130, 180); fill-opacity: 1;"/></g><g class="point"><path d="M490.5,820V684.57H496.35V820Z" style="vector-effect: non-scaling-stroke; opacity: 1; stroke-width: 0px; fill: rgb(70, 130, 180); fill-opacity: 1;"/></g><g class="point"><path d="M497.81,820V683.98H503.66V820Z" style="vector-effect: non-scaling-stroke; opacity: 1; stroke-width: 0px; fill: rgb(70, 130, 180); fill-opacity: 1;"/></g><g class="point"><path d="M505.12,820V691.99H510.97V820Z" style="vector-effect: non-scaling-stroke; opacity: 1; stroke-width: 0px; fill: rgb(70, 130, 180); fill-opacity: 1;"/></g><g class="point"><path d="M512.43,820V694.84H518.28V820Z" style="vector-effect: non-scaling-stroke; opacity: 1; stroke-width: 0px; fill: rgb(70, 130, 180); fill-opacity: 1;"/></g><g class="point"><path d="M519.74,820V696.17H525.59V820Z" style="vector-effect: non-scaling-stroke; opacity: 1; stroke-width: 0px; fill: rgb(70, 130, 180); fill-opacity: 1;"/></g><g class="point"><path d="M527.05,820V694.28H532.9V820Z" style="vector-effect: non-scaling-stroke; opacity: 1; stroke-width: 0px; fill: rgb(70, 130, 180); fill-opacity: 1;"/></g><g class="point"><path d="M534.36,820V695.69H540.21V820Z" style="vector-effect: non-scaling-stroke; opacity: 1; stroke-width: 0px; fill: rgb(70, 130, 180); fill-opacity: 1;"/></g><g class="point"><path d="M541.67,820V697.41H547.52V820Z" style="vector-effect: non-scaling-stroke; opacity: 1; stroke-width: 0px; fill: rgb(70, 130, 180); fill-opacity: 1;"/></g><g class="point"><path d="M548.98,820V696.19H554.83V820Z" style="vector-effect: non-scaling-stroke; opacity: 1; stroke-width: 0px; fill: rgb(70, 130, 180); fill-opacity: 1;"/></g><g class="point"><path d="M556.29,820V700.65H562.14V820Z" style="vector-effect: non-scaling-stroke; opacity: 1; stroke-width: 0px; fill: rgb(70, 130, 180); fill-opacity: 1;"/></g><g class="point"><path d="M563.6,820V707.45H569.45V820Z" style="vector-effect: non-scaling-stroke; opacity: 1; stroke-width: 0px; fill: rgb(70, 130, 180); fill-opacity: 1;"/></g><g class="point"><path d="M570.91,820V708.3H576.76V820Z" style="vector-effect: non-scaling-stroke; opacity: 1; stroke-width: 0px; fill: rgb(70, 130, 180); fill-opacity: 1;"/></g><g class="point"><path d="M578.22,820V708.04H584.07V820Z" style="vector-effect: non-scaling-stroke; opacity: 1; stroke-width: 0px; fill: rgb(70, 130, 180); fill-opacity: 1;"/></g><g class="point"><path d="M585.53,820V712.16H591.38V820Z" style="vector-effect: non-scaling-stroke; opacity: 1; stroke-width: 0px; fill: rgb(70, 130, 180); fill-opacity: 1;"/></g><g class="point"><path d="M592.84,820V719.07H598.69V820Z" style="vector-effect: non-scaling-stroke; opacity: 1; stroke-width: 0px; fill: rgb(70, 130, 180); fill-opacity: 1;"/></g><g class="point"><path d="M600.15,820V711.09H606V820Z" style="vector-effect: non-scaling-stroke; opacity: 1; stroke-width: 0px; fill: rgb(70, 130, 180); fill-opacity: 1;"/></g><g class="point"><path d="M607.46,820V710.07H613.31V820Z" style="vector-effect: non-scaling-stroke; opacity: 1; stroke-width: 0px; fill: rgb(70, 130, 180); fill-opacity: 1;"/></g><g class="point"><path d="M614.77,820V704.49H620.62V820Z" style="vector-effect: non-scaling-stroke; opacity: 1; stroke-width: 0px; fill: rgb(70, 130, 180); fill-opacity: 1;"/></g><g class="point"><path d="M622.08,820V688.38H627.93V820Z" style="vector-effect: non-scaling-stroke; opacity: 1; stroke-width: 0px; fill: rgb(70, 130, 180); fill-opacity: 1;"/></g><g class="point"><path d="M629.39,820V681.86H635.24V820Z" style="vector-effect: non-scaling-stroke; opacity: 1; stroke-width: 0px; fill: rgb(70, 130, 180); fill-opacity: 1;"/></g><g class="point"><path d="M636.7,820V645.93H642.55V820Z" style="vector-effect: non-scaling-stroke; opacity: 1; stroke-width: 0px; fill: rgb(70, 130, 180); fill-opacity: 1;"/></g><g class="point"><path d="M644.01,820V637.55H649.86V820Z" style="vector-effect: non-scaling-stroke; opacity: 1; stroke-width: 0px; fill: rgb(70, 130, 180); fill-opacity: 1;"/></g><g class="point"><path d="M651.32,820V647.17H657.17V820Z" style="vector-effect: non-scaling-stroke; opacity: 1; stroke-width: 0px; fill: rgb(70, 130, 180); fill-opacity: 1;"/></g><g class="point"><path d="M658.63,820V645.7H664.48V820Z" style="vector-effect: non-scaling-stroke; opacity: 1; stroke-width: 0px; fill: rgb(70, 130, 180); fill-opacity: 1;"/></g><g class="point"><path d="M665.94,820V650.1H671.79V820Z" style="vector-effect: non-scaling-stroke; opacity: 1; stroke-width: 0px; fill: rgb(70, 130, 180); fill-opacity: 1;"/></g><g class="point"><path d="M673.25,820V643.25H679.1V820Z" style="vector-effect: non-scaling-stroke; opacity: 1; stroke-width: 0px; fill: rgb(70, 130, 180); fill-opacity: 1;"/></g><g class="point"><path d="M680.56,820V643.81H686.41V820Z" style="vector-effect: non-scaling-stroke; opacity: 1; stroke-width: 0px; fill: rgb(70, 130, 180); fill-opacity: 1;"/></g><g class="point"><path d="M687.87,820V636.73H693.72V820Z" style="vector-effect: non-scaling-stroke; opacity: 1; stroke-width: 0px; fill: rgb(70, 130, 180); fill-opacity: 1;"/></g><g class="point"><path d="M695.18,820V632.41H701.03V820Z" style="vector-effect: non-scaling-stroke; opacity: 1; stroke-width: 0px; fill: rgb(70, 130, 180); fill-opacity: 1;"/></g><g class="point"><path d="M702.49,820V630.55H708.34V820Z" style="vector-effect: non-scaling-stroke; opacity: 1; stroke-width: 0px; fill: rgb(70, 130, 180); fill-opacity: 1;"/></g><g class="point"><path d="M709.8,820V618.73H715.65V820Z" style="vector-effect: non-scaling-stroke; opacity: 1; stroke-width: 0px; fill: rgb(70, 130, 180); fill-opacity: 1;"/></g><g class="point"><path d="M717.11,820V680.54H722.96V820Z" style="vector-effect: non-scaling-stroke; opacity: 1; stroke-width: 0px; fill: rgb(70, 130, 180); fill-opacity: 1;"/></g><g class="point"><path d="M724.42,820V801.24H730.27V820Z" style="vector-effect: non-scaling-stroke; opacity: 1; stroke-width: 0px; fill: rgb(70, 130, 180); fill-opacity: 1;"/></g></g></g><g class="trace bars" style="opacity: 1;"><g class="points"><g class="point"><path d="M3.66,820V819.83H3.66V820Z" style="vector-effect: non-scaling-stroke; opacity: 1; stroke-width: 0px; fill: rgb(0, 0, 0); fill-opacity: 1;"/></g><g class="point"><path d="M0,0Z" style="vector-effect: non-scaling-stroke; opacity: 1; stroke-width: 0px; fill: rgb(0, 0, 0); fill-opacity: 1;"/></g><g class="point"><path d="M0,0Z" style="vector-effect: non-scaling-stroke; opacity: 1; stroke-width: 0px; fill: rgb(0, 0, 0); fill-opacity: 1;"/></g><g class="point"><path d="M3.66,820V819.97H3.66V820Z" style="vector-effect: non-scaling-stroke; opacity: 1; stroke-width: 0px; fill: rgb(0, 0, 0); fill-opacity: 1;"/></g><g class="point"><path d="M0,0Z" style="vector-effect: non-scaling-stroke; opacity: 1; stroke-width: 0px; fill: rgb(0, 0, 0); fill-opacity: 1;"/></g><g class="point"><path d="M0,0Z" style="vector-effect: non-scaling-stroke; opacity: 1; stroke-width: 0px; fill: rgb(0, 0, 0); fill-opacity: 1;"/></g><g class="point"><path d="M0,0Z" style="vector-effect: non-scaling-stroke; opacity: 1; stroke-width: 0px; fill: rgb(0, 0, 0); fill-opacity: 1;"/></g><g class="point"><path d="M0,0Z" style="vector-effect: non-scaling-stroke; opacity: 1; stroke-width: 0px; fill: rgb(0, 0, 0); fill-opacity: 1;"/></g><g class="point"><path d="M0,0Z" style="vector-effect: non-scaling-stroke; opacity: 1; stroke-width: 0px; fill: rgb(0, 0, 0); fill-opacity: 1;"/></g><g class="point"><path d="M0,0Z" style="vector-effect: non-scaling-stroke; opacity: 1; stroke-width: 0px; fill: rgb(0, 0, 0); fill-opacity: 1;"/></g><g class="point"><path d="M3.66,820V819.94H3.66V820Z" style="vector-effect: non-scaling-stroke; opacity: 1; stroke-width: 0px; fill: rgb(0, 0, 0); fill-opacity: 1;"/></g><g class="point"><path d="M3.66,820V819.97H3.66V820Z" style="vector-effect: non-scaling-stroke; opacity: 1; stroke-width: 0px; fill: rgb(0, 0, 0); fill-opacity: 1;"/></g><g class="point"><path d="M0,0Z" style="vector-effect: non-scaling-stroke; opacity: 1; stroke-width: 0px; fill: rgb(0, 0, 0); fill-opacity: 1;"/></g><g class="point"><path d="M3.66,820V819.97H3.66V820Z" style="vector-effect: non-scaling-stroke; opacity: 1; stroke-width: 0px; fill: rgb(0, 0, 0); fill-opacity: 1;"/></g><g class="point"><path d="M0,0Z" style="vector-effect: non-scaling-stroke; opacity: 1; stroke-width: 0px; fill: rgb(0, 0, 0); fill-opacity: 1;"/></g><g class="point"><path d="M3.66,820V819.97H3.66V820Z" style="vector-effect: non-scaling-stroke; opacity: 1; stroke-width: 0px; fill: rgb(0, 0, 0); fill-opacity: 1;"/></g><g class="point"><path d="M3.66,820V819.97H3.66V820Z" style="vector-effect: non-scaling-stroke; opacity: 1; stroke-width: 0px; fill: rgb(0, 0, 0); fill-opacity: 1;"/></g><g class="point"><path d="M3.66,820V819.97H3.66V820Z" style="vector-effect: non-scaling-stroke; opacity: 1; stroke-width: 0px; fill: rgb(0, 0, 0); fill-opacity: 1;"/></g><g class="point"><path d="M3.66,820V819.97H3.66V820Z" style="vector-effect: non-scaling-stroke; opacity: 1; stroke-width: 0px; fill: rgb(0, 0, 0); fill-opacity: 1;"/></g><g class="point"><path d="M3.66,820V819.94H3.66V820Z" style="vector-effect: non-scaling-stroke; opacity: 1; stroke-width: 0px; fill: rgb(0, 0, 0); fill-opacity: 1;"/></g><g class="point"><path d="M0,0Z" style="vector-effect: non-scaling-stroke; opacity: 1; stroke-width: 0px; fill: rgb(0, 0, 0); fill-opacity: 1;"/></g><g class="point"><path d="M3.66,820V819.97H3.66V820Z" style="vector-effect: non-scaling-stroke; opacity: 1; stroke-width: 0px; fill: rgb(0, 0, 0); fill-opacity: 1;"/></g><g class="point"><path d="M0,0Z" style="vector-effect: non-scaling-stroke; opacity: 1; stroke-width: 0px; fill: rgb(0, 0, 0); fill-opacity: 1;"/></g><g class="point"><path d="M3.66,820V819.94H3.66V820Z" style="vector-effect: non-scaling-stroke; opacity: 1; stroke-width: 0px; fill: rgb(0, 0, 0); fill-opacity: 1;"/></g><g class="point"><path d="M3.66,820V819.97H3.66V820Z" style="vector-effect: non-scaling-stroke; opacity: 1; stroke-width: 0px; fill: rgb(0, 0, 0); fill-opacity: 1;"/></g><g class="point"><path d="M3.66,820V819.94H3.66V820Z" style="vector-effect: non-scaling-stroke; opacity: 1; stroke-width: 0px; fill: rgb(0, 0, 0); fill-opacity: 1;"/></g><g class="point"><path d="M0,0Z" style="vector-effect: non-scaling-stroke; opacity: 1; stroke-width: 0px; fill: rgb(0, 0, 0); fill-opacity: 1;"/></g><g class="point"><path d="M3.66,820V819.94H3.66V820Z" style="vector-effect: non-scaling-stroke; opacity: 1; stroke-width: 0px; fill: rgb(0, 0, 0); fill-opacity: 1;"/></g><g class="point"><path d="M3.66,820V819.92H3.66V820Z" style="vector-effect: non-scaling-stroke; opacity: 1; stroke-width: 0px; fill: rgb(0, 0, 0); fill-opacity: 1;"/></g><g class="point"><path d="M3.66,820V819.94H3.66V820Z" style="vector-effect: non-scaling-stroke; opacity: 1; stroke-width: 0px; fill: rgb(0, 0, 0); fill-opacity: 1;"/></g><g class="point"><path d="M3.66,820V731.48H3.66V820Z" style="vector-effect: non-scaling-stroke; opacity: 1; stroke-width: 0px; fill: rgb(0, 0, 0); fill-opacity: 1;"/></g><g class="point"><path d="M3.66,820V712.44H3.66V820Z" style="vector-effect: non-scaling-stroke; opacity: 1; stroke-width: 0px; fill: rgb(0, 0, 0); fill-opacity: 1;"/></g><g class="point"><path d="M3.66,820V720.74H3.66V820Z" style="vector-effect: non-scaling-stroke; opacity: 1; stroke-width: 0px; fill: rgb(0, 0, 0); fill-opacity: 1;"/></g><g class="point"><path d="M3.66,820V734.75H3.66V820Z" style="vector-effect: non-scaling-stroke; opacity: 1; stroke-width: 0px; fill: rgb(0, 0, 0); fill-opacity: 1;"/></g><g class="point"><path d="M3.66,820V761.3H3.66V820Z" style="vector-effect: non-scaling-stroke; opacity: 1; stroke-width: 0px; fill: rgb(0, 0, 0); fill-opacity: 1;"/></g><g class="point"><path d="M3.66,820V767.39H3.66V820Z" style="vector-effect: non-scaling-stroke; opacity: 1; stroke-width: 0px; fill: rgb(0, 0, 0); fill-opacity: 1;"/></g><g class="point"><path d="M3.66,820V686.52H3.66V820Z" style="vector-effect: non-scaling-stroke; opacity: 1; stroke-width: 0px; fill: rgb(0, 0, 0); fill-opacity: 1;"/></g><g class="point"><path d="M3.66,820V658.96H3.66V820Z" style="vector-effect: non-scaling-stroke; opacity: 1; stroke-width: 0px; fill: rgb(0, 0, 0); fill-opacity: 1;"/></g><g class="point"><path d="M3.66,820V668.89H3.66V820Z" style="vector-effect: non-scaling-stroke; opacity: 1; stroke-width: 0px; fill: rgb(0, 0, 0); fill-opacity: 1;"/></g><g class="point"><path d="M3.66,820V674.47H3.66V820Z" style="vector-effect: non-scaling-stroke; opacity: 1; stroke-width: 0px; fill: rgb(0, 0, 0); fill-opacity: 1;"/></g><g class="point"><path d="M3.66,820V638.23H3.66V820Z" style="vector-effect: non-scaling-stroke; opacity: 1; stroke-width: 0px; fill: rgb(0, 0, 0); fill-opacity: 1;"/></g><g class="point"><path d="M3.66,820V580.74H3.66V820Z" style="vector-effect: non-scaling-stroke; opacity: 1; stroke-width: 0px; fill: rgb(0, 0, 0); fill-opacity: 1;"/></g><g class="point"><path d="M3.66,820V593.85H3.66V820Z" style="vector-effect: non-scaling-stroke; opacity: 1; stroke-width: 0px; fill: rgb(0, 0, 0); fill-opacity: 1;"/></g><g class="point"><path d="M3.66,820V596.11H3.66V820Z" style="vector-effect: non-scaling-stroke; opacity: 1; stroke-width: 0px; fill: rgb(0, 0, 0); fill-opacity: 1;"/></g><g class="point"><path d="M3.66,820V644.49H3.66V820Z" style="vector-effect: non-scaling-stroke; opacity: 1; stroke-width: 0px; fill: rgb(0, 0, 0); fill-opacity: 1;"/></g><g class="point"><path d="M3.66,820V572.73H3.66V820Z" style="vector-effect: non-scaling-stroke; opacity: 1; stroke-width: 0px; fill: rgb(0, 0, 0); fill-opacity: 1;"/></g><g class="point"><path d="M3.66,820V366.5H3.66V820Z" style="vector-effect: non-scaling-stroke; opacity: 1; stroke-width: 0px; fill: rgb(0, 0, 0); fill-opacity: 1;"/></g><g class="point"><path d="M3.66,820V387.76H3.66V820Z" style="vector-effect: non-scaling-stroke; opacity: 1; stroke-width: 0px; fill: rgb(0, 0, 0); fill-opacity: 1;"/></g><g class="point"><path d="M3.66,820V318.26H3.66V820Z" style="vector-effect: non-scaling-stroke; opacity: 1; stroke-width: 0px; fill: rgb(0, 0, 0); fill-opacity: 1;"/></g><g class="point"><path d="M3.66,820V348.67H3.66V820Z" style="vector-effect: non-scaling-stroke; opacity: 1; stroke-width: 0px; fill: rgb(0, 0, 0); fill-opacity: 1;"/></g><g class="point"><path d="M3.66,820V359.02H3.66V820Z" style="vector-effect: non-scaling-stroke; opacity: 1; stroke-width: 0px; fill: rgb(0, 0, 0); fill-opacity: 1;"/></g><g class="point"><path d="M3.66,820V365.54H3.66V820Z" style="vector-effect: non-scaling-stroke; opacity: 1; stroke-width: 0px; fill: rgb(0, 0, 0); fill-opacity: 1;"/></g><g class="point"><path d="M3.66,820V385.54H3.66V820Z" style="vector-effect: non-scaling-stroke; opacity: 1; stroke-width: 0px; fill: rgb(0, 0, 0); fill-opacity: 1;"/></g><g class="point"><path d="M3.66,820V364.63H3.66V820Z" style="vector-effect: non-scaling-stroke; opacity: 1; stroke-width: 0px; fill: rgb(0, 0, 0); fill-opacity: 1;"/></g><g class="point"><path d="M3.66,820V353.01H3.66V820Z" style="vector-effect: non-scaling-stroke; opacity: 1; stroke-width: 0px; fill: rgb(0, 0, 0); fill-opacity: 1;"/></g><g class="point"><path d="M3.66,820V315.35H3.66V820Z" style="vector-effect: non-scaling-stroke; opacity: 1; stroke-width: 0px; fill: rgb(0, 0, 0); fill-opacity: 1;"/></g><g class="point"><path d="M3.66,820V313.07H3.66V820Z" style="vector-effect: non-scaling-stroke; opacity: 1; stroke-width: 0px; fill: rgb(0, 0, 0); fill-opacity: 1;"/></g><g class="point"><path d="M3.66,820V277.47H3.66V820Z" style="vector-effect: non-scaling-stroke; opacity: 1; stroke-width: 0px; fill: rgb(0, 0, 0); fill-opacity: 1;"/></g><g class="point"><path d="M3.66,820V248.75H3.66V820Z" style="vector-effect: non-scaling-stroke; opacity: 1; stroke-width: 0px; fill: rgb(0, 0, 0); fill-opacity: 1;"/></g><g class="point"><path d="M3.66,820V208.02H3.66V820Z" style="vector-effect: non-scaling-stroke; opacity: 1; stroke-width: 0px; fill: rgb(0, 0, 0); fill-opacity: 1;"/></g><g class="point"><path d="M3.66,820V195.89H3.66V820Z" style="vector-effect: non-scaling-stroke; opacity: 1; stroke-width: 0px; fill: rgb(0, 0, 0); fill-opacity: 1;"/></g><g class="point"><path d="M3.66,820V178.32H3.66V820Z" style="vector-effect: non-scaling-stroke; opacity: 1; stroke-width: 0px; fill: rgb(0, 0, 0); fill-opacity: 1;"/></g><g class="point"><path d="M3.66,820V148.81H3.66V820Z" style="vector-effect: non-scaling-stroke; opacity: 1; stroke-width: 0px; fill: rgb(0, 0, 0); fill-opacity: 1;"/></g><g class="point"><path d="M3.66,820V125.51H3.66V820Z" style="vector-effect: non-scaling-stroke; opacity: 1; stroke-width: 0px; fill: rgb(0, 0, 0); fill-opacity: 1;"/></g><g class="point"><path d="M3.66,820V107.43H3.66V820Z" style="vector-effect: non-scaling-stroke; opacity: 1; stroke-width: 0px; fill: rgb(0, 0, 0); fill-opacity: 1;"/></g><g class="point"><path d="M3.66,820V92.82H3.66V820Z" style="vector-effect: non-scaling-stroke; opacity: 1; stroke-width: 0px; fill: rgb(0, 0, 0); fill-opacity: 1;"/></g><g class="point"><path d="M3.66,820V74.43H3.66V820Z" style="vector-effect: non-scaling-stroke; opacity: 1; stroke-width: 0px; fill: rgb(0, 0, 0); fill-opacity: 1;"/></g><g class="point"><path d="M3.66,820V53.58H3.66V820Z" style="vector-effect: non-scaling-stroke; opacity: 1; stroke-width: 0px; fill: rgb(0, 0, 0); fill-opacity: 1;"/></g><g class="point"><path d="M3.66,820V63.06H3.66V820Z" style="vector-effect: non-scaling-stroke; opacity: 1; stroke-width: 0px; fill: rgb(0, 0, 0); fill-opacity: 1;"/></g><g class="point"><path d="M3.66,820V44.92H3.66V820Z" style="vector-effect: non-scaling-stroke; opacity: 1; stroke-width: 0px; fill: rgb(0, 0, 0); fill-opacity: 1;"/></g><g class="point"><path d="M3.66,820V41.87H3.66V820Z" style="vector-effect: non-scaling-stroke; opacity: 1; stroke-width: 0px; fill: rgb(0, 0, 0); fill-opacity: 1;"/></g><g class="point"><path d="M3.66,820V60.13H3.66V820Z" style="vector-effect: non-scaling-stroke; opacity: 1; stroke-width: 0px; fill: rgb(0, 0, 0); fill-opacity: 1;"/></g><g class="point"><path d="M3.66,820V41H3.66V820Z" style="vector-effect: non-scaling-stroke; opacity: 1; stroke-width: 0px; fill: rgb(0, 0, 0); fill-opacity: 1;"/></g><g class="point"><path d="M3.66,820V46.75H3.66V820Z" style="vector-effect: non-scaling-stroke; opacity: 1; stroke-width: 0px; fill: rgb(0, 0, 0); fill-opacity: 1;"/></g><g class="point"><path d="M3.66,820V63.59H3.66V820Z" style="vector-effect: non-scaling-stroke; opacity: 1; stroke-width: 0px; fill: rgb(0, 0, 0); fill-opacity: 1;"/></g><g class="point"><path d="M3.66,820V59.7H3.66V820Z" style="vector-effect: non-scaling-stroke; opacity: 1; stroke-width: 0px; fill: rgb(0, 0, 0); fill-opacity: 1;"/></g><g class="point"><path d="M3.66,820V84.47H3.66V820Z" style="vector-effect: non-scaling-stroke; opacity: 1; stroke-width: 0px; fill: rgb(0, 0, 0); fill-opacity: 1;"/></g><g class="point"><path d="M3.66,820V93.44H3.66V820Z" style="vector-effect: non-scaling-stroke; opacity: 1; stroke-width: 0px; fill: rgb(0, 0, 0); fill-opacity: 1;"/></g><g class="point"><path d="M3.66,820V105.79H3.66V820Z" style="vector-effect: non-scaling-stroke; opacity: 1; stroke-width: 0px; fill: rgb(0, 0, 0); fill-opacity: 1;"/></g><g class="point"><path d="M3.66,820V112.99H3.66V820Z" style="vector-effect: non-scaling-stroke; opacity: 1; stroke-width: 0px; fill: rgb(0, 0, 0); fill-opacity: 1;"/></g><g class="point"><path d="M3.66,820V130.96H3.66V820Z" style="vector-effect: non-scaling-stroke; opacity: 1; stroke-width: 0px; fill: rgb(0, 0, 0); fill-opacity: 1;"/></g><g class="point"><path d="M3.66,820V151.75H3.66V820Z" style="vector-effect: non-scaling-stroke; opacity: 1; stroke-width: 0px; fill: rgb(0, 0, 0); fill-opacity: 1;"/></g><g class="point"><path d="M3.66,820V164.75H3.66V820Z" style="vector-effect: non-scaling-stroke; opacity: 1; stroke-width: 0px; fill: rgb(0, 0, 0); fill-opacity: 1;"/></g><g class="point"><path d="M3.66,820V192.37H3.66V820Z" style="vector-effect: non-scaling-stroke; opacity: 1; stroke-width: 0px; fill: rgb(0, 0, 0); fill-opacity: 1;"/></g><g class="point"><path d="M3.66,820V204.66H3.66V820Z" style="vector-effect: non-scaling-stroke; opacity: 1; stroke-width: 0px; fill: rgb(0, 0, 0); fill-opacity: 1;"/></g><g class="point"><path d="M3.66,820V215.83H3.66V820Z" style="vector-effect: non-scaling-stroke; opacity: 1; stroke-width: 0px; fill: rgb(0, 0, 0); fill-opacity: 1;"/></g><g class="point"><path d="M3.66,820V203.71H3.66V820Z" style="vector-effect: non-scaling-stroke; opacity: 1; stroke-width: 0px; fill: rgb(0, 0, 0); fill-opacity: 1;"/></g><g class="point"><path d="M3.66,820V323.25H3.66V820Z" style="vector-effect: non-scaling-stroke; opacity: 1; stroke-width: 0px; fill: rgb(0, 0, 0); fill-opacity: 1;"/></g><g class="point"><path d="M3.66,820V429.4H3.66V820Z" style="vector-effect: non-scaling-stroke; opacity: 1; stroke-width: 0px; fill: rgb(0, 0, 0); fill-opacity: 1;"/></g><g class="point"><path d="M3.66,820V419.22H3.66V820Z" style="vector-effect: non-scaling-stroke; opacity: 1; stroke-width: 0px; fill: rgb(0, 0, 0); fill-opacity: 1;"/></g><g class="point"><path d="M3.66,820V447.85H3.66V820Z" style="vector-effect: non-scaling-stroke; opacity: 1; stroke-width: 0px; fill: rgb(0, 0, 0); fill-opacity: 1;"/></g><g class="point"><path d="M3.66,820V546.3H3.66V820Z" style="vector-effect: non-scaling-stroke; opacity: 1; stroke-width: 0px; fill: rgb(0, 0, 0); fill-opacity: 1;"/></g><g class="point"><path d="M3.66,820V551.65H3.66V820Z" style="vector-effect: non-scaling-stroke; opacity: 1; stroke-width: 0px; fill: rgb(0, 0, 0); fill-opacity: 1;"/></g><g class="point"><path d="M3.66,820V557.04H3.66V820Z" style="vector-effect: non-scaling-stroke; opacity: 1; stroke-width: 0px; fill: rgb(0, 0, 0); fill-opacity: 1;"/></g><g class="point"><path d="M3.66,820V553.71H3.66V820Z" style="vector-effect: non-scaling-stroke; opacity: 1; stroke-width: 0px; fill: rgb(0, 0, 0); fill-opacity: 1;"/></g><g class="point"><path d="M3.66,820V646.72H3.66V820Z" style="vector-effect: non-scaling-stroke; opacity: 1; stroke-width: 0px; fill: rgb(0, 0, 0); fill-opacity: 1;"/></g><g class="point"><path d="M3.66,820V643.75H3.66V820Z" style="vector-effect: non-scaling-stroke; opacity: 1; stroke-width: 0px; fill: rgb(0, 0, 0); fill-opacity: 1;"/></g><g class="point"><path d="M3.66,820V651.43H3.66V820Z" style="vector-effect: non-scaling-stroke; opacity: 1; stroke-width: 0px; fill: rgb(0, 0, 0); fill-opacity: 1;"/></g><g class="point"><path d="M3.66,820V652.25H3.66V820Z" style="vector-effect: non-scaling-stroke; opacity: 1; stroke-width: 0px; fill: rgb(0, 0, 0); fill-opacity: 1;"/></g><g class="point"><path d="M3.66,820V643.9H3.66V820Z" style="vector-effect: non-scaling-stroke; opacity: 1; stroke-width: 0px; fill: rgb(0, 0, 0); fill-opacity: 1;"/></g></g></g></g></g><g class="overplot"/><path class="xlines-above crisp" d="M0,0" style="fill: none;"/><path class="ylines-above crisp" d="M0,0" style="fill: none;"/><g class="overlines-above"/><g class="xaxislayer-above"><g class="xtick"><text text-anchor="middle" x="0" y="933" transform="translate(83.65,0)" style="font-family: 'Open Sans', verdana, arial, sans-serif; font-size: 12px; fill: rgb(68, 68, 68); fill-opacity: 1; white-space: pre;">0</text></g><g class="xtick"><text text-anchor="middle" x="0" y="933" transform="translate(164.67000000000002,0)" style="font-family: 'Open Sans', verdana, arial, sans-serif; font-size: 12px; fill: rgb(68, 68, 68); fill-opacity: 1; white-space: pre;">10M</text></g><g class="xtick"><text text-anchor="middle" x="0" y="933" transform="translate(245.69,0)" style="font-family: 'Open Sans', verdana, arial, sans-serif; font-size: 12px; fill: rgb(68, 68, 68); fill-opacity: 1; white-space: pre;">20M</text></g><g class="xtick"><text text-anchor="middle" x="0" y="933" transform="translate(326.71000000000004,0)" style="font-family: 'Open Sans', verdana, arial, sans-serif; font-size: 12px; fill: rgb(68, 68, 68); fill-opacity: 1; white-space: pre;">30M</text></g><g class="xtick"><text text-anchor="middle" x="0" y="933" transform="translate(407.73,0)" style="font-family: 'Open Sans', verdana, arial, sans-serif; font-size: 12px; fill: rgb(68, 68, 68); fill-opacity: 1; white-space: pre;">40M</text></g><g class="xtick"><text text-anchor="middle" x="0" y="933" transform="translate(488.75,0)" style="font-family: 'Open Sans', verdana, arial, sans-serif; font-size: 12px; fill: rgb(68, 68, 68); fill-opacity: 1; white-space: pre;">50M</text></g><g class="xtick"><text text-anchor="middle" x="0" y="933" transform="translate(569.76,0)" style="font-family: 'Open Sans', verdana, arial, sans-serif; font-size: 12px; fill: rgb(68, 68, 68); fill-opacity: 1; white-space: pre;">60M</text></g><g class="xtick"><text text-anchor="middle" x="0" y="933" transform="translate(650.78,0)" style="font-family: 'Open Sans', verdana, arial, sans-serif; font-size: 12px; fill: rgb(68, 68, 68); fill-opacity: 1; white-space: pre;">70M</text></g><g class="xtick"><text text-anchor="middle" x="0" y="933" transform="translate(731.8,0)" style="font-family: 'Open Sans', verdana, arial, sans-serif; font-size: 12px; fill: rgb(68, 68, 68); fill-opacity: 1; white-space: pre;">80M</text></g></g><g class="yaxislayer-above"><g class="ytick"><text text-anchor="end" x="79" y="4.199999999999999" transform="translate(0,920)" style="font-family: 'Open Sans', verdana, arial, sans-serif; font-size: 12px; fill: rgb(68, 68, 68); fill-opacity: 1; white-space: pre;">0</text></g><g class="ytick"><text text-anchor="end" x="79" y="4.199999999999999" transform="translate(0,778.96)" style="font-family: 'Open Sans', verdana, arial, sans-serif; font-size: 12px; fill: rgb(68, 68, 68); fill-opacity: 1; white-space: pre;">5k</text></g><g class="ytick"><text text-anchor="end" x="79" y="4.199999999999999" transform="translate(0,637.92)" style="font-family: 'Open Sans', verdana, arial, sans-serif; font-size: 12px; fill: rgb(68, 68, 68); fill-opacity: 1; white-space: pre;">10k</text></g><g class="ytick"><text text-anchor="end" x="79" y="4.199999999999999" transform="translate(0,496.88)" style="font-family: 'Open Sans', verdana, arial, sans-serif; font-size: 12px; fill: rgb(68, 68, 68); fill-opacity: 1; white-space: pre;">15k</text></g><g class="ytick"><text text-anchor="end" x="79" y="4.199999999999999" transform="translate(0,355.83000000000004)" style="font-family: 'Open Sans', verdana, arial, sans-serif; font-size: 12px; fill: rgb(68, 68, 68); fill-opacity: 1; white-space: pre;">20k</text></g><g class="ytick"><text text-anchor="end" x="79" y="4.199999999999999" transform="translate(0,214.79000000000002)" style="font-family: 'Open Sans', verdana, arial, sans-serif; font-size: 12px; fill: rgb(68, 68, 68); fill-opacity: 1; white-space: pre;">25k</text></g></g><g class="overaxes-above"/></g></g><g class="polarlayer"/><g class="ternarylayer"/><g class="geolayer"/><g class="funnelarealayer"/><g class="pielayer"/><g class="treemaplayer"/><g class="sunburstlayer"/><g class="glimages"/><defs id="topdefs-fe10c7"><g class="clips"/><clipPath id="legendfe10c7"><rect width="162" height="48" x="0" y="0"/></clipPath></defs><g class="layer-above"><g class="imagelayer"/><g class="shapelayer"/></g><g class="infolayer"><g class="legend" pointer-events="all" transform="translate(825.62,100)"><rect class="bg" shape-rendering="crispEdges" style="stroke: rgb(68, 68, 68); stroke-opacity: 1; fill: rgb(255, 255, 255); fill-opacity: 1; stroke-width: 0px;" width="162" height="48" x="0" y="0"/><g class="scrollbox" transform="" clip-path="url('#legendfe10c7')"><g class="groups"><g class="traces" transform="translate(0,14.5)" style="opacity: 1;"><text class="legendtext" text-anchor="start" x="40" y="4.680000000000001" style="font-family: 'Open Sans', verdana, arial, sans-serif; font-size: 12px; fill: rgb(68, 68, 68); fill-opacity: 1; white-space: pre;">Frequency (nu_eff)</text><g class="layers" style="opacity: 1;"><g class="legendfill"/><g class="legendlines"/><g class="legendsymbols"><g class="legendpoints"><path class="legendundefined" d="M6,6H-6V-6H6Z" transform="translate(20,0)" style="stroke-width: 0px; fill: rgb(70, 130, 180); fill-opacity: 1;"/></g></g></g><rect class="legendtoggle" x="0" y="-9.5" width="157" height="19" style="fill: rgb(0, 0, 0); fill-opacity: 0;"/></g><g class="traces" transform="translate(0,33.5)" style="opacity: 1;"><text class="legendtext" text-anchor="start" x="40" y="4.680000000000001" style="font-family: 'Open Sans', verdana, arial, sans-serif; font-size: 12px; fill: rgb(68, 68, 68); fill-opacity: 1; white-space: pre;">Frequency (nu_meta)</text><g class="layers" style="opacity: 1;"><g class="legendfill"/><g class="legendlines"/><g class="legendsymbols"><g class="legendpoints"><path class="legendundefined" d="M6,6H-6V-6H6Z" transform="translate(20,0)" style="stroke-width: 0px; fill: rgb(0, 0, 0); fill-opacity: 1;"/></g></g></g><rect class="legendtoggle" x="0" y="-9.5" width="157" height="19" style="fill: rgb(0, 0, 0); fill-opacity: 0;"/></g></g></g><rect class="scrollbar" rx="20" ry="3" width="0" height="0" style="fill: rgb(128, 139, 164); fill-opacity: 1;" x="0" y="0"/></g><g class="g-gtitle"><text class="gtitle" x="500" y="50" text-anchor="middle" dy="0em" style="font-family: 'Open Sans', verdana, arial, sans-serif; font-size: 17px; fill: rgb(68, 68, 68); opacity: 1; font-weight: normal; white-space: pre;">Final \nu_{eff}</text></g><g class="g-xtitle"><text class="xtitle" x="445.5" y="972" text-anchor="middle" style="font-family: 'Open Sans', verdana, arial, sans-serif; font-size: 14px; fill: rgb(68, 68, 68); opacity: 1; font-weight: normal; white-space: pre;">Bin Midpoints (seconds)</text></g><g class="g-ytitle"><text class="ytitle" transform="rotate(-90,42,510)" x="42" y="510" text-anchor="middle" style="font-family: 'Open Sans', verdana, arial, sans-serif; font-size: 14px; fill: rgb(68, 68, 68); opacity: 1; font-weight: normal; white-space: pre;">Counts</text></g></g></svg>