<svg class="main-svg" xmlns="http://www.w3.org/2000/svg" xmlns:xlink="http://www.w3.org/1999/xlink" width="800" height="600" style="" viewBox="0 0 800 600"><rect x="0" y="0" width="800" height="600" style="fill: rgb(255, 255, 255); fill-opacity: 1;"/><defs id="defs-4ac223"><g class="clips"><clipPath id="clip4ac223xyplot" class="plotclip"><rect width="640" height="420"/></clipPath><clipPath class="axesclip" id="clip4ac223x"><rect x="80" y="0" width="640" height="600"/></clipPath><clipPath class="axesclip" id="clip4ac223y"><rect x="0" y="100" width="800" height="420"/></clipPath><clipPath class="axesclip" id="clip4ac223xy"><rect x="80" y="100" width="640" height="420"/></clipPath></g><g class="gradients"/></defs><g class="bglayer"/><g class="layer-below"><g class="imagelayer"/><g class="shapelayer"/></g><g class="cartesianlayer"><g class="subplot xy"><g class="layer-subplot"><g class="shapelayer"/><g class="imagelayer"/></g><g class="gridlayer"><g class="x"><path class="xgrid crisp" transform="translate(153.28,0)" d="M0,100v420" style="stroke: rgb(238, 238, 238); stroke-opacity: 1; stroke-width: 1px;"/><path class="xgrid crisp" transform="translate(226.56,0)" d="M0,100v420" style="stroke: rgb(238, 238, 238); stroke-opacity: 1; stroke-width: 1px;"/><path class="xgrid crisp" transform="translate(299.85,0)" d="M0,100v420" style="stroke: rgb(238, 238, 238); stroke-opacity: 1; stroke-width: 1px;"/><path class="xgrid crisp" transform="translate(373.13,0)" d="M0,100v420" style="stroke: rgb(238, 238, 238); stroke-opacity: 1; stroke-width: 1px;"/><path class="xgrid crisp" transform="translate(446.41,0)" d="M0,100v420" style="stroke: rgb(238, 238, 238); stroke-opacity: 1; stroke-width: 1px;"/><path class="xgrid crisp" transform="translate(519.69,0)" d="M0,100v420" style="stroke: rgb(238, 238, 238); stroke-opacity: 1; stroke-width: 1px;"/><path class="xgrid crisp" transform="translate(592.97,0)" d="M0,100v420" style="stroke: rgb(238, 238, 238); stroke-opacity: 1; stroke-width: 1px;"/><path class="xgrid crisp" transform="translate(666.26,0)" d="M0,100v420" style="stroke: rgb(238, 238, 238); stroke-opacity: 1; stroke-width: 1px;"/></g><g class="y"><path class="ygrid crisp" transform="translate(0,482.03)" d="M80,0h640" style="stroke: rgb(238, 238, 238); stroke-opacity: 1; stroke-width: 1px;"/><path class="ygrid crisp" transform="translate(0,424.69)" d="M80,0h640" style="stroke: rgb(238, 238, 238); stroke-opacity: 1; stroke-width: 1px;"/><path class="ygrid crisp" transform="translate(0,367.35)" d="M80,0h640" style="stroke: rgb(238, 238, 238); stroke-opacity: 1; stroke-width: 1px;"/><path class="ygrid crisp" transform="translate(0,310)" d="M80,0h640" style="stroke: rgb(238, 238, 238); stroke-opacity: 1; stroke-width: 1px;"/><path class="ygrid crisp" transform="translate(0,252.66)" d="M80,0h640" style="stroke: rgb(238, 238, 238); stroke-opacity: 1; stroke-width: 1px;"/><path class="ygrid crisp" transform="translate(0,195.32)" d="M80,0h640" style="stroke: rgb(238, 238, 238); stroke-opacity: 1; stroke-width: 1px;"/><path class="ygrid crisp" transform="translate(0,137.97)" d="M80,0h640" style="stroke: rgb(238, 238, 238); stroke-opacity: 1; stroke-width: 1px;"/></g></g><g class="zerolinelayer"><path class="xzl zl crisp" transform="translate(80,0)" d="M0,100v420" style="stroke: rgb(68, 68, 68); stroke-opacity: 1; stroke-width: 1px;"/></g><path class="xlines-below"/><path class="ylines-below"/><g class="overlines-below"/><g class="xaxislayer-below"/><g class="yaxislayer-below"/><g class="overaxes-below"/><g class="plot" transform="translate(80,100)" clip-path="url('#clip4ac223xyplot')"><g class="scatterlayer mlayer"><g class="trace scatter tracedeb7a2" style="stroke-miterlimit: 2; opacity: 1;"><g class="fills"/><g class="errorbars"/><g class="lines"><path class="js-line" d="M0,210L1.53,226.02L1.58,226.29L3.46,241.89L3.51,242.04L4.84,249.78L4.89,249.73L6.39,257.86L10.9,286.73L12.4,297.7L27.43,380.01L28.93,385.82L30.44,386.26L31.94,384.34L34.95,378.96L36.45,380.35L37.95,380.32L39.46,382.38L40.96,383.05L42.46,387.71L45.47,397.83L46.97,398.71L49.98,398.56L51.48,397.71L52.98,395.92L54.49,392.29L55.99,387.92L57.49,385.97L59,384.86L60.5,386.42L63.51,390.44L65.01,390.61L66.51,393.7L68.01,391.46L75.53,380.06L77.03,379.71L78.54,380.04L80.04,382.24L81.54,382.63L83.05,384.47L86.05,381.2L87.56,379.64L90.56,371.21L92.06,369.9L93.57,366.47L95.07,365.75L96.57,364.7L98.08,365.85L99.58,364.58L101.08,366.4L102.59,368.18L104.09,367.52L105.59,365.68L107.1,361.7L108.6,358.64L110.1,359.4L116.11,351.42L117.62,351.16L122.13,342.53L123.63,339.83L125.13,333.69L126.64,331.63L129.64,334.1L131.14,337.24L132.65,333.29L134.15,332.93L135.65,332.17L137.16,328.3L138.66,329.71L140.16,325.72L143.17,319.35L144.67,315.35L146.18,317.08L147.68,316.01L150.69,312.74L152.19,314.43L156.7,306.7L158.2,305.72L161.21,303.52L162.71,300.85L164.21,301.62L165.72,299.61L167.22,301.26L168.72,301.54L170.23,301.41L171.73,299.04L174.73,292.12L176.24,287.76L180.75,281.8L182.25,285.76L183.75,282.03L185.26,285.26L186.76,282.67L188.26,282.76L189.77,282.31L191.27,279.26L194.27,277.24L195.78,277.99L198.78,277.35L200.29,279.05L201.79,276.56L203.29,276.95L206.3,276.36L207.8,274.51L210.81,267.92L212.31,268.23L216.82,265.68L218.32,266.89L221.33,268.63L222.83,270.68L224.34,272.88L225.84,272.08L227.34,271.12L228.8,276.1L229.1,276.91L229.69,276.47L229.99,276.49L230.28,276.33L230.58,275.16L231.47,275.54L231.77,275.71L232.95,272.13L233.25,272.34L233.54,273.83L234.73,272.17L235.03,272.72L235.62,272.51L235.92,271.98L237.1,272.78L237.4,273.29L237.69,273.08L237.99,273.56L238.29,271.7L238.58,273.04L238.88,272.2L239.18,271.21L239.77,270.49L240.06,270.88L240.36,270.65L240.95,270.11L241.25,270.75L241.55,270.93L241.84,270.22L242.44,272.09L242.73,271.7L243.03,271.59L243.62,271.48L243.92,270.44L245.99,266.11L246.29,266.43L247.47,265.53L247.77,264.34L248.36,263.33L248.66,264.23L249.55,263.97L249.85,262.34L251.33,258.68L251.62,257.84L253.7,252.61L254,253.92L254.88,253.3L255.18,253.35L255.77,253.9L256.07,253.27L256.37,252.59L256.66,252.79L256.96,251.83L258.12,250.3L258.12,250.3L258.41,251.14L259.6,248.83L259.89,249.29L260.19,249.93L260.49,249.64L260.78,250.32L261.08,250.53L261.67,250.98L261.97,249.06L262.56,248.3L262.86,247.39L263.45,246.13L263.75,244.76L265.53,237.59L265.82,238.35L266.41,238.26L266.71,237.08L267.9,235.96L268.19,236.35L271.45,228.46L271.75,229.04L272.34,228.15L272.64,226.85L275.31,222.34L275.6,222.23L275.9,223.54L276.19,222.61L276.49,222.47L277.68,221.84L277.97,220.87L278.27,221.27L278.57,220.77L278.86,219.71L280.64,215.36L280.94,215.04L281.83,216.73L282.12,215.72L283.31,212.15L283.6,210.25L285.38,205.71L285.68,205.45L286.27,204.12L286.57,204.55L286.86,205.09L287.16,204.79L287.43,203.23L289.21,199.14L289.5,199.36L289.8,199.83L290.1,198.6L290.69,199.21L290.99,198.56L292.17,198.66L292.47,199.79L293.95,196.32L294.25,195.83L294.84,196.46L295.13,195.41L296.62,191.8L296.91,191.61L297.51,190.16L297.8,190.96L298.1,191.18L298.99,189.2L299.28,189.54L299.58,189.49L301.66,188.15L301.95,188.3L302.54,189.6L302.84,188.79L303.14,188.53L303.73,186.46L304.03,186.94L304.32,186.97L304.62,186.61L304.92,187.12L305.21,185.57L305.8,184.66L306.1,185.9L306.69,187.33L306.99,186.73L307.29,186.55L307.58,186.87L307.88,185.97L308.77,186.78L309.06,186.31L309.36,185.36L310.84,182.63L311.14,183.69L311.73,183.22L312.03,181.2L312.62,180.36L312.92,180.09L313.81,179.64L314.1,178.47L315.29,176.79L315.59,176.36L318.52,169.17L318.82,169.7L320.3,166.69L320.59,166.18L321.19,164.92L321.48,164.07L324.15,157.25L324.45,157.19L324.74,157.52L325.04,156.6L325.34,156.8L325.63,156.12L325.93,155.86L326.82,154.47L327.12,153.08L327.71,152.15L328,151.48L328.89,151.04L329.19,150.23L329.78,151.66L330.08,150.59L330.38,151.18L331.56,151.13L331.86,149.35L332.45,149.78L332.75,148.54L333.64,147.42L333.93,145.79L335.12,144.18L335.41,145.18L335.71,143.06L336.3,143.48L336.6,142.69L337.19,142.3L337.49,140.98L339.56,134.68L339.86,134.78L340.16,134.68L340.45,135.31L340.75,133.21L341.05,132.79L341.34,131.01L341.93,132.63L342.23,132.38L342.53,132.01L348.13,118.67L348.43,119.47L349.02,120.34L349.32,119.76L349.61,119.49L350.2,118.06L350.5,116.88L351.69,113.85L351.98,114.32L353.76,109.37L354.06,109.97L354.65,107.53L354.95,107.94L355.24,108.78L355.84,108.48L356.13,107.23L361.76,91.04L362.06,91.41L363.25,89.16L363.54,88.87L364.73,86.58L365.02,87.04L366.21,85.33L366.51,84.46L367.39,84.29L367.69,84.39L369.47,78.81L369.77,79.56L370.65,78.5L370.95,78.03L372.14,76.38L372.43,78.3L372.73,79.64L373.03,78.47L373.32,78.83L373.62,78.67L373.92,77.61L374.51,77.84L374.8,76.66L377.22,70.49L379.07,66.84L380.92,65.76L382.77,62.03L392.03,44.79L393.88,41.53L397.58,32.55L399.43,30.67L401.28,27.99L403.13,28.52L408.68,21L410.53,33.57L419.79,96.74L421.64,104.61L423.49,108.69L425.34,122.86L434.59,166.69L436.44,174.05L438.29,182.96L440.15,185.2L442,188.05L443.85,196.86L445.7,200.38L447.55,207.27L454.95,229.31L456.8,234.08L458.65,235.49L460.5,241.07L464.21,247.01L466.06,247.16L467.91,249.94L469.76,254.59L471.61,255.51L473.46,257.4L477.16,263.63L479.01,266.21L480.86,265.08L482.71,268.04L484.56,265.24L486.41,265.58L488.27,264.18L490.12,266.35L491.97,266.02L493.82,268.8L495.67,270.03L497.52,269.6L499.37,269.78L501.22,273.07L503.07,272.98L504.92,274.65L506.77,273.54L508.62,273.46L512.33,277.73L514.18,277.03L516.03,278.19L517.88,277.07L521.58,279.56L523.43,283.17L528.98,285.39L530.83,285.34L532.68,287.01L534.53,286.84L536.39,286.88L538.24,287.96L540.09,288L541.94,290.76L543.79,289.11L545.64,288.66L549.34,281.56L551.19,282.37L553.04,283.26L554.89,287.26L558.57,284.28L558.57,284.28L559.4,284.12L560.22,283.27L561.04,283.67L562.69,285.17L563.52,284.79L564.34,284.79L565.17,286.77L567.64,283.11L568.46,283.8L570.94,282.37L571.76,282.36L573.41,282.05L574.24,283.45L575.06,284L575.88,282.92L577.53,282.13L578.36,283.73L579.18,284.63L580.01,283.44L581.66,284.19L582.48,281.8L583.3,282.09L584.13,281.17L584.95,281.26L585.78,279.75L586.6,280.09L587.43,279.15L588.25,280.1L589.08,279.44L591.55,276.05L592.37,276.22L593.2,274.8L594.02,276.27L594.85,276.97L595.67,278.93L597.32,280.44L598.14,280.08L599.79,283.92L600.62,281.99L602.27,280.44L603.09,281.06L603.91,280.79L604.74,279.61L605.56,281.67L606.39,281.49L608.04,283.26L608.86,281.69L610.51,282.87L611.33,281.95L612.16,279.94L612.98,280.16L614.63,276.36L615.46,274.8L616.28,274.96L617.11,276.87L617.93,274.64L618.75,274.66L619.58,274.36L620.4,276.49L621.23,276.41L622.05,277.22L623.7,278.39L624.53,276.72L625.35,279.11L626.17,279.08L627.82,281.63L628.65,280.68L629.47,280.83L630.3,278.79L631.12,277.71L631.95,278.43L632.77,280.07L633.59,278.56L636.07,274.9L636.89,274.22L637.72,276.36L638.54,273.16L640,270.69" style="vector-effect: non-scaling-stroke; fill: none; stroke: rgb(255, 0, 0); stroke-opacity: 1; stroke-width: 2px; opacity: 1;"/></g><g class="points"/><g class="text"/></g></g></g><g class="overplot"/><path class="xlines-above crisp" d="M0,0" style="fill: none;"/><path class="ylines-above crisp" d="M0,0" style="fill: none;"/><g class="overlines-above"/><g class="xaxislayer-above"><g class="xtick"><text text-anchor="middle" x="0" y="533" transform="translate(80,0)" style="font-family: 'Open Sans', verdana, arial, sans-serif; font-size: 12px; fill: rgb(68, 68, 68); fill-opacity: 1; white-space: pre;">0</text></g><g class="xtick"><text text-anchor="middle" x="0" y="533" transform="translate(153.28,0)" style="font-family: 'Open Sans', verdana, arial, sans-serif; font-size: 12px; fill: rgb(68, 68, 68); fill-opacity: 1; white-space: pre;">5</text></g><g class="xtick"><text text-anchor="middle" x="0" y="533" transform="translate(226.56,0)" style="font-family: 'Open Sans', verdana, arial, sans-serif; font-size: 12px; fill: rgb(68, 68, 68); fill-opacity: 1; white-space: pre;">10</text></g><g class="xtick"><text text-anchor="middle" x="0" y="533" transform="translate(299.85,0)" style="font-family: 'Open Sans', verdana, arial, sans-serif; font-size: 12px; fill: rgb(68, 68, 68); fill-opacity: 1; white-space: pre;">15</text></g><g class="xtick"><text text-anchor="middle" x="0" y="533" transform="translate(373.13,0)" style="font-family: 'Open Sans', verdana, arial, sans-serif; font-size: 12px; fill: rgb(68, 68, 68); fill-opacity: 1; white-space: pre;">20</text></g><g class="xtick"><text text-anchor="middle" x="0" y="533" transform="translate(446.41,0)" style="font-family: 'Open Sans', verdana, arial, sans-serif; font-size: 12px; fill: rgb(68, 68, 68); fill-opacity: 1; white-space: pre;">25</text></g><g class="xtick"><text text-anchor="middle" x="0" y="533" transform="translate(519.69,0)" style="font-family: 'Open Sans', verdana, arial, sans-serif; font-size: 12px; fill: rgb(68, 68, 68); fill-opacity: 1; white-space: pre;">30</text></g><g class="xtick"><text text-anchor="middle" x="0" y="533" transform="translate(592.97,0)" style="font-family: 'Open Sans', verdana, arial, sans-serif; font-size: 12px; fill: rgb(68, 68, 68); fill-opacity: 1; white-space: pre;">35</text></g><g class="xtick"><text text-anchor="middle" x="0" y="533" transform="translate(666.26,0)" style="font-family: 'Open Sans', verdana, arial, sans-serif; font-size: 12px; fill: rgb(68, 68, 68); fill-opacity: 1; white-space: pre;">40</text></g></g><g class="yaxislayer-above"><g class="ytick"><text text-anchor="end" x="79" y="4.199999999999999" transform="translate(0,482.03)" style="font-family: 'Open Sans', verdana, arial, sans-serif; font-size: 12px; fill: rgb(68, 68, 68); fill-opacity: 1; white-space: pre;">0.7</text></g><g class="ytick"><text text-anchor="end" x="79" y="4.199999999999999" transform="translate(0,424.69)" style="font-family: 'Open Sans', verdana, arial, sans-serif; font-size: 12px; fill: rgb(68, 68, 68); fill-opacity: 1; white-space: pre;">0.8</text></g><g class="ytick"><text text-anchor="end" x="79" y="4.199999999999999" transform="translate(0,367.35)" style="font-family: 'Open Sans', verdana, arial, sans-serif; font-size: 12px; fill: rgb(68, 68, 68); fill-opacity: 1; white-space: pre;">0.9</text></g><g class="ytick"><text text-anchor="end" x="79" y="4.199999999999999" transform="translate(0,310)" style="font-family: 'Open Sans', verdana, arial, sans-serif; font-size: 12px; fill: rgb(68, 68, 68); fill-opacity: 1; white-space: pre;">1</text></g><g class="ytick"><text text-anchor="end" x="79" y="4.199999999999999" transform="translate(0,252.66)" style="font-family: 'Open Sans', verdana, arial, sans-serif; font-size: 12px; fill: rgb(68, 68, 68); fill-opacity: 1; white-space: pre;">1.1</text></g><g class="ytick"><text text-anchor="end" x="79" y="4.199999999999999" transform="translate(0,195.32)" style="font-family: 'Open Sans', verdana, arial, sans-serif; font-size: 12px; fill: rgb(68, 68, 68); fill-opacity: 1; white-space: pre;">1.2</text></g><g class="ytick"><text text-anchor="end" x="79" y="4.199999999999999" transform="translate(0,137.97)" style="font-family: 'Open Sans', verdana, arial, sans-serif; font-size: 12px; fill: rgb(68, 68, 68); fill-opacity: 1; white-space: pre;">1.3</text></g></g><g class="overaxes-above"/></g></g><g class="polarlayer"/><g class="ternarylayer"/><g class="geolayer"/><g class="funnelarealayer"/><g class="pielayer"/><g class="treemaplayer"/><g class="sunburstlayer"/><g class="glimages"/><defs id="topdefs-4ac223"><g class="clips"/></defs><g class="layer-above"><g class="imagelayer"/><g class="shapelayer"/></g><g class="infolayer"><g class="g-gtitle"><text class="gtitle" x="400" y="50" text-anchor="middle" dy="0em" style="font-family: 'Open Sans', verdana, arial, sans-serif; font-size: 17px; fill: rgb(68, 68, 68); opacity: 1; font-weight: normal; white-space: pre;">Biomass Concentration Over Time</text></g><g class="g-xtitle"><text class="xtitle" x="400" y="572" text-anchor="middle" style="font-family: 'Open Sans', verdana, arial, sans-serif; font-size: 14px; fill: rgb(68, 68, 68); opacity: 1; font-weight: normal; white-space: pre;">Time (h)</text></g><g class="g-ytitle"><text class="ytitle" transform="rotate(-90,42,310)" x="42" y="310" text-anchor="middle" style="font-family: 'Open Sans', verdana, arial, sans-serif; font-size: 14px; fill: rgb(68, 68, 68); opacity: 1; font-weight: normal; white-space: pre;">Biomass Concentration (g/L)</text></g></g></svg>