<svg class="main-svg" xmlns="http://www.w3.org/2000/svg" xmlns:xlink="http://www.w3.org/1999/xlink" width="1000" height="1000" style="" viewBox="0 0 1000 1000"><rect x="0" y="0" width="1000" height="1000" style="fill: rgb(255, 255, 255); fill-opacity: 1;"/><defs id="defs-87c680"><g class="clips"><clipPath id="clip87c680xyplot" class="plotclip"><rect width="731" height="820"/></clipPath><clipPath class="axesclip" id="clip87c680x"><rect x="80" y="0" width="731" height="1000"/></clipPath><clipPath class="axesclip" id="clip87c680y"><rect x="0" y="100" width="1000" height="820"/></clipPath><clipPath class="axesclip" id="clip87c680xy"><rect x="80" y="100" width="731" height="820"/></clipPath></g><g class="gradients"/></defs><g class="bglayer"/><g class="layer-below"><g class="imagelayer"/><g class="shapelayer"/></g><g class="cartesianlayer"><g class="subplot xy"><g class="layer-subplot"><g class="shapelayer"/><g class="imagelayer"/></g><g class="gridlayer"><g class="x"><path class="xgrid crisp" transform="translate(150.55,0)" d="M0,100v820" style="stroke: rgb(211, 211, 211); stroke-opacity: 1; stroke-width: 1px;"/><path class="xgrid crisp" transform="translate(239.54,0)" d="M0,100v820" style="stroke: rgb(211, 211, 211); stroke-opacity: 1; stroke-width: 1px;"/><path class="xgrid crisp" transform="translate(328.53999999999996,0)" d="M0,100v820" style="stroke: rgb(211, 211, 211); stroke-opacity: 1; stroke-width: 1px;"/><path class="xgrid crisp" transform="translate(417.53,0)" d="M0,100v820" style="stroke: rgb(211, 211, 211); stroke-opacity: 1; stroke-width: 1px;"/><path class="xgrid crisp" transform="translate(506.53,0)" d="M0,100v820" style="stroke: rgb(211, 211, 211); stroke-opacity: 1; stroke-width: 1px;"/><path class="xgrid crisp" transform="translate(595.52,0)" d="M0,100v820" style="stroke: rgb(211, 211, 211); stroke-opacity: 1; stroke-width: 1px;"/><path class="xgrid crisp" transform="translate(684.52,0)" d="M0,100v820" style="stroke: rgb(211, 211, 211); stroke-opacity: 1; stroke-width: 1px;"/><path class="xgrid crisp" transform="translate(773.51,0)" d="M0,100v820" style="stroke: rgb(211, 211, 211); stroke-opacity: 1; stroke-width: 1px;"/></g><g class="y"><path class="ygrid crisp" transform="translate(0,819.22)" d="M80,0h731" style="stroke: rgb(211, 211, 211); stroke-opacity: 1; stroke-width: 1px;"/><path class="ygrid crisp" transform="translate(0,718.45)" d="M80,0h731" style="stroke: rgb(211, 211, 211); stroke-opacity: 1; stroke-width: 1px;"/><path class="ygrid crisp" transform="translate(0,617.67)" d="M80,0h731" style="stroke: rgb(211, 211, 211); stroke-opacity: 1; stroke-width: 1px;"/><path class="ygrid crisp" transform="translate(0,516.9)" d="M80,0h731" style="stroke: rgb(211, 211, 211); stroke-opacity: 1; stroke-width: 1px;"/><path class="ygrid crisp" transform="translate(0,416.12)" d="M80,0h731" style="stroke: rgb(211, 211, 211); stroke-opacity: 1; stroke-width: 1px;"/><path class="ygrid crisp" transform="translate(0,315.34000000000003)" d="M80,0h731" style="stroke: rgb(211, 211, 211); stroke-opacity: 1; stroke-width: 1px;"/><path class="ygrid crisp" transform="translate(0,214.57)" d="M80,0h731" style="stroke: rgb(211, 211, 211); stroke-opacity: 1; stroke-width: 1px;"/><path class="ygrid crisp" transform="translate(0,113.78999999999999)" d="M80,0h731" style="stroke: rgb(211, 211, 211); stroke-opacity: 1; stroke-width: 1px;"/></g></g><g class="zerolinelayer"><path class="yzl zl crisp" transform="translate(0,920)" d="M80,0h731" style="stroke: rgb(68, 68, 68); stroke-opacity: 1; stroke-width: 1px;"/></g><path class="xlines-below"/><path class="ylines-below"/><g class="overlines-below"/><g class="xaxislayer-below"/><g class="yaxislayer-below"/><g class="overaxes-below"/><g class="plot" transform="translate(80,100)" clip-path="url('#clip87c680xyplot')"><g class="barlayer mlayer"><g class="trace bars" style="opacity: 1;"><g class="points"><g class="point"><path d="M0.73,820V819.93H6.58V820Z" style="vector-effect: non-scaling-stroke; opacity: 1; stroke-width: 0px; fill: rgb(70, 130, 180); fill-opacity: 1;"/></g><g class="point"><path d="M8.04,820V819.95H13.89V820Z" style="vector-effect: non-scaling-stroke; opacity: 1; stroke-width: 0px; fill: rgb(70, 130, 180); fill-opacity: 1;"/></g><g class="point"><path d="M15.35,820V819.99H21.2V820Z" style="vector-effect: non-scaling-stroke; opacity: 1; stroke-width: 0px; fill: rgb(70, 130, 180); fill-opacity: 1;"/></g><g class="point"><path d="M22.66,820V819.96H28.51V820Z" style="vector-effect: non-scaling-stroke; opacity: 1; stroke-width: 0px; fill: rgb(70, 130, 180); fill-opacity: 1;"/></g><g class="point"><path d="M29.97,820V819.94H35.82V820Z" style="vector-effect: non-scaling-stroke; opacity: 1; stroke-width: 0px; fill: rgb(70, 130, 180); fill-opacity: 1;"/></g><g class="point"><path d="M37.28,820V819.89H43.13V820Z" style="vector-effect: non-scaling-stroke; opacity: 1; stroke-width: 0px; fill: rgb(70, 130, 180); fill-opacity: 1;"/></g><g class="point"><path d="M44.59,820V819.89H50.44V820Z" style="vector-effect: non-scaling-stroke; opacity: 1; stroke-width: 0px; fill: rgb(70, 130, 180); fill-opacity: 1;"/></g><g class="point"><path d="M51.9,820V819.91H57.75V820Z" style="vector-effect: non-scaling-stroke; opacity: 1; stroke-width: 0px; fill: rgb(70, 130, 180); fill-opacity: 1;"/></g><g class="point"><path d="M59.21,820V819.87H65.06V820Z" style="vector-effect: non-scaling-stroke; opacity: 1; stroke-width: 0px; fill: rgb(70, 130, 180); fill-opacity: 1;"/></g><g class="point"><path d="M66.52,820V819.87H72.37V820Z" style="vector-effect: non-scaling-stroke; opacity: 1; stroke-width: 0px; fill: rgb(70, 130, 180); fill-opacity: 1;"/></g><g class="point"><path d="M73.83,820V819.76H79.68V820Z" style="vector-effect: non-scaling-stroke; opacity: 1; stroke-width: 0px; fill: rgb(70, 130, 180); fill-opacity: 1;"/></g><g class="point"><path d="M81.14,820V819.73H86.99V820Z" style="vector-effect: non-scaling-stroke; opacity: 1; stroke-width: 0px; fill: rgb(70, 130, 180); fill-opacity: 1;"/></g><g class="point"><path d="M88.45,820V819.62H94.3V820Z" style="vector-effect: non-scaling-stroke; opacity: 1; stroke-width: 0px; fill: rgb(70, 130, 180); fill-opacity: 1;"/></g><g class="point"><path d="M95.76,820V819.62H101.61V820Z" style="vector-effect: non-scaling-stroke; opacity: 1; stroke-width: 0px; fill: rgb(70, 130, 180); fill-opacity: 1;"/></g><g class="point"><path d="M103.07,820V819.67H108.92V820Z" style="vector-effect: non-scaling-stroke; opacity: 1; stroke-width: 0px; fill: rgb(70, 130, 180); fill-opacity: 1;"/></g><g class="point"><path d="M110.38,820V819.47H116.23V820Z" style="vector-effect: non-scaling-stroke; opacity: 1; stroke-width: 0px; fill: rgb(70, 130, 180); fill-opacity: 1;"/></g><g class="point"><path d="M117.69,820V819.39H123.54V820Z" style="vector-effect: non-scaling-stroke; opacity: 1; stroke-width: 0px; fill: rgb(70, 130, 180); fill-opacity: 1;"/></g><g class="point"><path d="M125,820V819.18H130.85V820Z" style="vector-effect: non-scaling-stroke; opacity: 1; stroke-width: 0px; fill: rgb(70, 130, 180); fill-opacity: 1;"/></g><g class="point"><path d="M132.31,820V819.08H138.16V820Z" style="vector-effect: non-scaling-stroke; opacity: 1; stroke-width: 0px; fill: rgb(70, 130, 180); fill-opacity: 1;"/></g><g class="point"><path d="M139.62,820V819.05H145.47V820Z" style="vector-effect: non-scaling-stroke; opacity: 1; stroke-width: 0px; fill: rgb(70, 130, 180); fill-opacity: 1;"/></g><g class="point"><path d="M146.93,820V818.88H152.78V820Z" style="vector-effect: non-scaling-stroke; opacity: 1; stroke-width: 0px; fill: rgb(70, 130, 180); fill-opacity: 1;"/></g><g class="point"><path d="M154.24,820V818.63H160.09V820Z" style="vector-effect: non-scaling-stroke; opacity: 1; stroke-width: 0px; fill: rgb(70, 130, 180); fill-opacity: 1;"/></g><g class="point"><path d="M161.55,820V818.51H167.4V820Z" style="vector-effect: non-scaling-stroke; opacity: 1; stroke-width: 0px; fill: rgb(70, 130, 180); fill-opacity: 1;"/></g><g class="point"><path d="M168.86,820V818.24H174.71V820Z" style="vector-effect: non-scaling-stroke; opacity: 1; stroke-width: 0px; fill: rgb(70, 130, 180); fill-opacity: 1;"/></g><g class="point"><path d="M176.17,820V817.8H182.02V820Z" style="vector-effect: non-scaling-stroke; opacity: 1; stroke-width: 0px; fill: rgb(70, 130, 180); fill-opacity: 1;"/></g><g class="point"><path d="M183.48,820V817.5H189.33V820Z" style="vector-effect: non-scaling-stroke; opacity: 1; stroke-width: 0px; fill: rgb(70, 130, 180); fill-opacity: 1;"/></g><g class="point"><path d="M190.79,820V817.21H196.64V820Z" style="vector-effect: non-scaling-stroke; opacity: 1; stroke-width: 0px; fill: rgb(70, 130, 180); fill-opacity: 1;"/></g><g class="point"><path d="M198.1,820V816.93H203.95V820Z" style="vector-effect: non-scaling-stroke; opacity: 1; stroke-width: 0px; fill: rgb(70, 130, 180); fill-opacity: 1;"/></g><g class="point"><path d="M205.41,820V816.44H211.26V820Z" style="vector-effect: non-scaling-stroke; opacity: 1; stroke-width: 0px; fill: rgb(70, 130, 180); fill-opacity: 1;"/></g><g class="point"><path d="M212.72,820V815.98H218.57V820Z" style="vector-effect: non-scaling-stroke; opacity: 1; stroke-width: 0px; fill: rgb(70, 130, 180); fill-opacity: 1;"/></g><g class="point"><path d="M220.03,820V815.45H225.88V820Z" style="vector-effect: non-scaling-stroke; opacity: 1; stroke-width: 0px; fill: rgb(70, 130, 180); fill-opacity: 1;"/></g><g class="point"><path d="M227.34,820V815.01H233.19V820Z" style="vector-effect: non-scaling-stroke; opacity: 1; stroke-width: 0px; fill: rgb(70, 130, 180); fill-opacity: 1;"/></g><g class="point"><path d="M234.65,820V814.26H240.5V820Z" style="vector-effect: non-scaling-stroke; opacity: 1; stroke-width: 0px; fill: rgb(70, 130, 180); fill-opacity: 1;"/></g><g class="point"><path d="M241.96,820V813.64H247.81V820Z" style="vector-effect: non-scaling-stroke; opacity: 1; stroke-width: 0px; fill: rgb(70, 130, 180); fill-opacity: 1;"/></g><g class="point"><path d="M249.27,820V812.99H255.12V820Z" style="vector-effect: non-scaling-stroke; opacity: 1; stroke-width: 0px; fill: rgb(70, 130, 180); fill-opacity: 1;"/></g><g class="point"><path d="M256.58,820V812.16H262.43V820Z" style="vector-effect: non-scaling-stroke; opacity: 1; stroke-width: 0px; fill: rgb(70, 130, 180); fill-opacity: 1;"/></g><g class="point"><path d="M263.89,820V811.33H269.74V820Z" style="vector-effect: non-scaling-stroke; opacity: 1; stroke-width: 0px; fill: rgb(70, 130, 180); fill-opacity: 1;"/></g><g class="point"><path d="M271.2,820V810.48H277.05V820Z" style="vector-effect: non-scaling-stroke; opacity: 1; stroke-width: 0px; fill: rgb(70, 130, 180); fill-opacity: 1;"/></g><g class="point"><path d="M278.51,820V809.58H284.36V820Z" style="vector-effect: non-scaling-stroke; opacity: 1; stroke-width: 0px; fill: rgb(70, 130, 180); fill-opacity: 1;"/></g><g class="point"><path d="M285.82,820V808.31H291.67V820Z" style="vector-effect: non-scaling-stroke; opacity: 1; stroke-width: 0px; fill: rgb(70, 130, 180); fill-opacity: 1;"/></g><g class="point"><path d="M293.13,820V805.18H298.98V820Z" style="vector-effect: non-scaling-stroke; opacity: 1; stroke-width: 0px; fill: rgb(70, 130, 180); fill-opacity: 1;"/></g><g class="point"><path d="M300.44,820V754.19H306.29V820Z" style="vector-effect: non-scaling-stroke; opacity: 1; stroke-width: 0px; fill: rgb(70, 130, 180); fill-opacity: 1;"/></g><g class="point"><path d="M307.75,820V752.3H313.6V820Z" style="vector-effect: non-scaling-stroke; opacity: 1; stroke-width: 0px; fill: rgb(70, 130, 180); fill-opacity: 1;"/></g><g class="point"><path d="M315.06,820V699.14H320.91V820Z" style="vector-effect: non-scaling-stroke; opacity: 1; stroke-width: 0px; fill: rgb(70, 130, 180); fill-opacity: 1;"/></g><g class="point"><path d="M322.37,820V663.49H328.22V820Z" style="vector-effect: non-scaling-stroke; opacity: 1; stroke-width: 0px; fill: rgb(70, 130, 180); fill-opacity: 1;"/></g><g class="point"><path d="M329.68,820V610.31H335.53V820Z" style="vector-effect: non-scaling-stroke; opacity: 1; stroke-width: 0px; fill: rgb(70, 130, 180); fill-opacity: 1;"/></g><g class="point"><path d="M336.99,820V559.33H342.84V820Z" style="vector-effect: non-scaling-stroke; opacity: 1; stroke-width: 0px; fill: rgb(70, 130, 180); fill-opacity: 1;"/></g><g class="point"><path d="M344.3,820V564.16H350.15V820Z" style="vector-effect: non-scaling-stroke; opacity: 1; stroke-width: 0px; fill: rgb(70, 130, 180); fill-opacity: 1;"/></g><g class="point"><path d="M351.61,820V583.52H357.46V820Z" style="vector-effect: non-scaling-stroke; opacity: 1; stroke-width: 0px; fill: rgb(70, 130, 180); fill-opacity: 1;"/></g><g class="point"><path d="M358.92,820V601.75H364.77V820Z" style="vector-effect: non-scaling-stroke; opacity: 1; stroke-width: 0px; fill: rgb(70, 130, 180); fill-opacity: 1;"/></g><g class="point"><path d="M366.23,820V611.16H372.08V820Z" style="vector-effect: non-scaling-stroke; opacity: 1; stroke-width: 0px; fill: rgb(70, 130, 180); fill-opacity: 1;"/></g><g class="point"><path d="M373.54,820V593.64H379.39V820Z" style="vector-effect: non-scaling-stroke; opacity: 1; stroke-width: 0px; fill: rgb(70, 130, 180); fill-opacity: 1;"/></g><g class="point"><path d="M380.85,820V589.4H386.7V820Z" style="vector-effect: non-scaling-stroke; opacity: 1; stroke-width: 0px; fill: rgb(70, 130, 180); fill-opacity: 1;"/></g><g class="point"><path d="M388.16,820V568.18H394.01V820Z" style="vector-effect: non-scaling-stroke; opacity: 1; stroke-width: 0px; fill: rgb(70, 130, 180); fill-opacity: 1;"/></g><g class="point"><path d="M395.47,820V551.67H401.32V820Z" style="vector-effect: non-scaling-stroke; opacity: 1; stroke-width: 0px; fill: rgb(70, 130, 180); fill-opacity: 1;"/></g><g class="point"><path d="M402.78,820V527.25H408.63V820Z" style="vector-effect: non-scaling-stroke; opacity: 1; stroke-width: 0px; fill: rgb(70, 130, 180); fill-opacity: 1;"/></g><g class="point"><path d="M410.09,820V489.07H415.94V820Z" style="vector-effect: non-scaling-stroke; opacity: 1; stroke-width: 0px; fill: rgb(70, 130, 180); fill-opacity: 1;"/></g><g class="point"><path d="M417.4,820V447.16H423.25V820Z" style="vector-effect: non-scaling-stroke; opacity: 1; stroke-width: 0px; fill: rgb(70, 130, 180); fill-opacity: 1;"/></g><g class="point"><path d="M424.71,820V395.34H430.56V820Z" style="vector-effect: non-scaling-stroke; opacity: 1; stroke-width: 0px; fill: rgb(70, 130, 180); fill-opacity: 1;"/></g><g class="point"><path d="M432.02,820V332.18H437.87V820Z" style="vector-effect: non-scaling-stroke; opacity: 1; stroke-width: 0px; fill: rgb(70, 130, 180); fill-opacity: 1;"/></g><g class="point"><path d="M439.33,820V260.77H445.18V820Z" style="vector-effect: non-scaling-stroke; opacity: 1; stroke-width: 0px; fill: rgb(70, 130, 180); fill-opacity: 1;"/></g><g class="point"><path d="M446.64,820V180.75H452.49V820Z" style="vector-effect: non-scaling-stroke; opacity: 1; stroke-width: 0px; fill: rgb(70, 130, 180); fill-opacity: 1;"/></g><g class="point"><path d="M453.95,820V41H459.8V820Z" style="vector-effect: non-scaling-stroke; opacity: 1; stroke-width: 0px; fill: rgb(70, 130, 180); fill-opacity: 1;"/></g><g class="point"><path d="M461.26,820V137.68H467.11V820Z" style="vector-effect: non-scaling-stroke; opacity: 1; stroke-width: 0px; fill: rgb(70, 130, 180); fill-opacity: 1;"/></g><g class="point"><path d="M468.57,820V120.84H474.42V820Z" style="vector-effect: non-scaling-stroke; opacity: 1; stroke-width: 0px; fill: rgb(70, 130, 180); fill-opacity: 1;"/></g><g class="point"><path d="M475.88,820V193.38H481.73V820Z" style="vector-effect: non-scaling-stroke; opacity: 1; stroke-width: 0px; fill: rgb(70, 130, 180); fill-opacity: 1;"/></g><g class="point"><path d="M483.19,820V41.94H489.04V820Z" style="vector-effect: non-scaling-stroke; opacity: 1; stroke-width: 0px; fill: rgb(70, 130, 180); fill-opacity: 1;"/></g><g class="point"><path d="M490.5,820V201.1H496.35V820Z" style="vector-effect: non-scaling-stroke; opacity: 1; stroke-width: 0px; fill: rgb(70, 130, 180); fill-opacity: 1;"/></g><g class="point"><path d="M497.81,820V224.91H503.66V820Z" style="vector-effect: non-scaling-stroke; opacity: 1; stroke-width: 0px; fill: rgb(70, 130, 180); fill-opacity: 1;"/></g><g class="point"><path d="M505.12,820V616.74H510.97V820Z" style="vector-effect: non-scaling-stroke; opacity: 1; stroke-width: 0px; fill: rgb(70, 130, 180); fill-opacity: 1;"/></g><g class="point"><path d="M512.43,820V699.1H518.28V820Z" style="vector-effect: non-scaling-stroke; opacity: 1; stroke-width: 0px; fill: rgb(70, 130, 180); fill-opacity: 1;"/></g><g class="point"><path d="M519.74,820V732.15H525.59V820Z" style="vector-effect: non-scaling-stroke; opacity: 1; stroke-width: 0px; fill: rgb(70, 130, 180); fill-opacity: 1;"/></g><g class="point"><path d="M527.05,820V759.47H532.9V820Z" style="vector-effect: non-scaling-stroke; opacity: 1; stroke-width: 0px; fill: rgb(70, 130, 180); fill-opacity: 1;"/></g><g class="point"><path d="M534.36,820V776.75H540.21V820Z" style="vector-effect: non-scaling-stroke; opacity: 1; stroke-width: 0px; fill: rgb(70, 130, 180); fill-opacity: 1;"/></g><g class="point"><path d="M541.67,820V790.01H547.52V820Z" style="vector-effect: non-scaling-stroke; opacity: 1; stroke-width: 0px; fill: rgb(70, 130, 180); fill-opacity: 1;"/></g><g class="point"><path d="M548.98,820V799.52H554.83V820Z" style="vector-effect: non-scaling-stroke; opacity: 1; stroke-width: 0px; fill: rgb(70, 130, 180); fill-opacity: 1;"/></g><g class="point"><path d="M556.29,820V804.94H562.14V820Z" style="vector-effect: non-scaling-stroke; opacity: 1; stroke-width: 0px; fill: rgb(70, 130, 180); fill-opacity: 1;"/></g><g class="point"><path d="M563.6,820V809.58H569.45V820Z" style="vector-effect: non-scaling-stroke; opacity: 1; stroke-width: 0px; fill: rgb(70, 130, 180); fill-opacity: 1;"/></g><g class="point"><path d="M570.91,820V812.5H576.76V820Z" style="vector-effect: non-scaling-stroke; opacity: 1; stroke-width: 0px; fill: rgb(70, 130, 180); fill-opacity: 1;"/></g><g class="point"><path d="M578.22,820V814.56H584.07V820Z" style="vector-effect: non-scaling-stroke; opacity: 1; stroke-width: 0px; fill: rgb(70, 130, 180); fill-opacity: 1;"/></g><g class="point"><path d="M585.53,820V816.52H591.38V820Z" style="vector-effect: non-scaling-stroke; opacity: 1; stroke-width: 0px; fill: rgb(70, 130, 180); fill-opacity: 1;"/></g><g class="point"><path d="M592.84,820V817.25H598.69V820Z" style="vector-effect: non-scaling-stroke; opacity: 1; stroke-width: 0px; fill: rgb(70, 130, 180); fill-opacity: 1;"/></g><g class="point"><path d="M600.15,820V817.98H606V820Z" style="vector-effect: non-scaling-stroke; opacity: 1; stroke-width: 0px; fill: rgb(70, 130, 180); fill-opacity: 1;"/></g><g class="point"><path d="M607.46,820V818.67H613.31V820Z" style="vector-effect: non-scaling-stroke; opacity: 1; stroke-width: 0px; fill: rgb(70, 130, 180); fill-opacity: 1;"/></g><g class="point"><path d="M614.77,820V818.99H620.62V820Z" style="vector-effect: non-scaling-stroke; opacity: 1; stroke-width: 0px; fill: rgb(70, 130, 180); fill-opacity: 1;"/></g><g class="point"><path d="M622.08,820V819.39H627.93V820Z" style="vector-effect: non-scaling-stroke; opacity: 1; stroke-width: 0px; fill: rgb(70, 130, 180); fill-opacity: 1;"/></g><g class="point"><path d="M629.39,820V819.43H635.24V820Z" style="vector-effect: non-scaling-stroke; opacity: 1; stroke-width: 0px; fill: rgb(70, 130, 180); fill-opacity: 1;"/></g><g class="point"><path d="M636.7,820V819.57H642.55V820Z" style="vector-effect: non-scaling-stroke; opacity: 1; stroke-width: 0px; fill: rgb(70, 130, 180); fill-opacity: 1;"/></g><g class="point"><path d="M644.01,820V819.82H649.86V820Z" style="vector-effect: non-scaling-stroke; opacity: 1; stroke-width: 0px; fill: rgb(70, 130, 180); fill-opacity: 1;"/></g><g class="point"><path d="M651.32,820V819.82H657.17V820Z" style="vector-effect: non-scaling-stroke; opacity: 1; stroke-width: 0px; fill: rgb(70, 130, 180); fill-opacity: 1;"/></g><g class="point"><path d="M658.63,820V819.82H664.48V820Z" style="vector-effect: non-scaling-stroke; opacity: 1; stroke-width: 0px; fill: rgb(70, 130, 180); fill-opacity: 1;"/></g><g class="point"><path d="M665.94,820V819.89H671.79V820Z" style="vector-effect: non-scaling-stroke; opacity: 1; stroke-width: 0px; fill: rgb(70, 130, 180); fill-opacity: 1;"/></g><g class="point"><path d="M673.25,820V819.92H679.1V820Z" style="vector-effect: non-scaling-stroke; opacity: 1; stroke-width: 0px; fill: rgb(70, 130, 180); fill-opacity: 1;"/></g><g class="point"><path d="M680.56,820V819.88H686.41V820Z" style="vector-effect: non-scaling-stroke; opacity: 1; stroke-width: 0px; fill: rgb(70, 130, 180); fill-opacity: 1;"/></g><g class="point"><path d="M687.87,820V819.92H693.72V820Z" style="vector-effect: non-scaling-stroke; opacity: 1; stroke-width: 0px; fill: rgb(70, 130, 180); fill-opacity: 1;"/></g><g class="point"><path d="M695.18,820V819.98H701.03V820Z" style="vector-effect: non-scaling-stroke; opacity: 1; stroke-width: 0px; fill: rgb(70, 130, 180); fill-opacity: 1;"/></g><g class="point"><path d="M702.49,820V819.97H708.34V820Z" style="vector-effect: non-scaling-stroke; opacity: 1; stroke-width: 0px; fill: rgb(70, 130, 180); fill-opacity: 1;"/></g><g class="point"><path d="M709.8,820V819.99H715.65V820Z" style="vector-effect: non-scaling-stroke; opacity: 1; stroke-width: 0px; fill: rgb(70, 130, 180); fill-opacity: 1;"/></g><g class="point"><path d="M717.11,820V819.99H722.96V820Z" style="vector-effect: non-scaling-stroke; opacity: 1; stroke-width: 0px; fill: rgb(70, 130, 180); fill-opacity: 1;"/></g><g class="point"><path d="M724.42,820V819.92H730.27V820Z" style="vector-effect: non-scaling-stroke; opacity: 1; stroke-width: 0px; fill: rgb(70, 130, 180); fill-opacity: 1;"/></g></g></g><g class="trace bars" style="opacity: 1;"><g class="points"><g class="point"><path d="M101.4,820V819.94H105.55V820Z" style="vector-effect: non-scaling-stroke; opacity: 1; stroke-width: 0px; fill: rgb(0, 0, 0); fill-opacity: 1;"/></g><g class="point"><path d="M0,0Z" style="vector-effect: non-scaling-stroke; opacity: 1; stroke-width: 0px; fill: rgb(0, 0, 0); fill-opacity: 1;"/></g><g class="point"><path d="M0,0Z" style="vector-effect: non-scaling-stroke; opacity: 1; stroke-width: 0px; fill: rgb(0, 0, 0); fill-opacity: 1;"/></g><g class="point"><path d="M116.97,820V819.99H121.12V820Z" style="vector-effect: non-scaling-stroke; opacity: 1; stroke-width: 0px; fill: rgb(0, 0, 0); fill-opacity: 1;"/></g><g class="point"><path d="M0,0Z" style="vector-effect: non-scaling-stroke; opacity: 1; stroke-width: 0px; fill: rgb(0, 0, 0); fill-opacity: 1;"/></g><g class="point"><path d="M0,0Z" style="vector-effect: non-scaling-stroke; opacity: 1; stroke-width: 0px; fill: rgb(0, 0, 0); fill-opacity: 1;"/></g><g class="point"><path d="M0,0Z" style="vector-effect: non-scaling-stroke; opacity: 1; stroke-width: 0px; fill: rgb(0, 0, 0); fill-opacity: 1;"/></g><g class="point"><path d="M0,0Z" style="vector-effect: non-scaling-stroke; opacity: 1; stroke-width: 0px; fill: rgb(0, 0, 0); fill-opacity: 1;"/></g><g class="point"><path d="M0,0Z" style="vector-effect: non-scaling-stroke; opacity: 1; stroke-width: 0px; fill: rgb(0, 0, 0); fill-opacity: 1;"/></g><g class="point"><path d="M0,0Z" style="vector-effect: non-scaling-stroke; opacity: 1; stroke-width: 0px; fill: rgb(0, 0, 0); fill-opacity: 1;"/></g><g class="point"><path d="M153.29,820V819.98H157.45V820Z" style="vector-effect: non-scaling-stroke; opacity: 1; stroke-width: 0px; fill: rgb(0, 0, 0); fill-opacity: 1;"/></g><g class="point"><path d="M158.48,820V819.99H162.64V820Z" style="vector-effect: non-scaling-stroke; opacity: 1; stroke-width: 0px; fill: rgb(0, 0, 0); fill-opacity: 1;"/></g><g class="point"><path d="M0,0Z" style="vector-effect: non-scaling-stroke; opacity: 1; stroke-width: 0px; fill: rgb(0, 0, 0); fill-opacity: 1;"/></g><g class="point"><path d="M168.86,820V819.99H173.01V820Z" style="vector-effect: non-scaling-stroke; opacity: 1; stroke-width: 0px; fill: rgb(0, 0, 0); fill-opacity: 1;"/></g><g class="point"><path d="M0,0Z" style="vector-effect: non-scaling-stroke; opacity: 1; stroke-width: 0px; fill: rgb(0, 0, 0); fill-opacity: 1;"/></g><g class="point"><path d="M179.24,820V819.99H183.39V820Z" style="vector-effect: non-scaling-stroke; opacity: 1; stroke-width: 0px; fill: rgb(0, 0, 0); fill-opacity: 1;"/></g><g class="point"><path d="M184.43,820V819.99H188.58V820Z" style="vector-effect: non-scaling-stroke; opacity: 1; stroke-width: 0px; fill: rgb(0, 0, 0); fill-opacity: 1;"/></g><g class="point"><path d="M189.62,820V819.99H193.77V820Z" style="vector-effect: non-scaling-stroke; opacity: 1; stroke-width: 0px; fill: rgb(0, 0, 0); fill-opacity: 1;"/></g><g class="point"><path d="M194.81,820V819.99H198.96V820Z" style="vector-effect: non-scaling-stroke; opacity: 1; stroke-width: 0px; fill: rgb(0, 0, 0); fill-opacity: 1;"/></g><g class="point"><path d="M200,820V819.98H204.15V820Z" style="vector-effect: non-scaling-stroke; opacity: 1; stroke-width: 0px; fill: rgb(0, 0, 0); fill-opacity: 1;"/></g><g class="point"><path d="M0,0Z" style="vector-effect: non-scaling-stroke; opacity: 1; stroke-width: 0px; fill: rgb(0, 0, 0); fill-opacity: 1;"/></g><g class="point"><path d="M210.38,820V819.99H214.53V820Z" style="vector-effect: non-scaling-stroke; opacity: 1; stroke-width: 0px; fill: rgb(0, 0, 0); fill-opacity: 1;"/></g><g class="point"><path d="M0,0Z" style="vector-effect: non-scaling-stroke; opacity: 1; stroke-width: 0px; fill: rgb(0, 0, 0); fill-opacity: 1;"/></g><g class="point"><path d="M220.76,820V819.98H224.91V820Z" style="vector-effect: non-scaling-stroke; opacity: 1; stroke-width: 0px; fill: rgb(0, 0, 0); fill-opacity: 1;"/></g><g class="point"><path d="M225.95,820V819.99H230.1V820Z" style="vector-effect: non-scaling-stroke; opacity: 1; stroke-width: 0px; fill: rgb(0, 0, 0); fill-opacity: 1;"/></g><g class="point"><path d="M231.14,820V819.98H235.29V820Z" style="vector-effect: non-scaling-stroke; opacity: 1; stroke-width: 0px; fill: rgb(0, 0, 0); fill-opacity: 1;"/></g><g class="point"><path d="M0,0Z" style="vector-effect: non-scaling-stroke; opacity: 1; stroke-width: 0px; fill: rgb(0, 0, 0); fill-opacity: 1;"/></g><g class="point"><path d="M241.51,820V819.98H245.67V820Z" style="vector-effect: non-scaling-stroke; opacity: 1; stroke-width: 0px; fill: rgb(0, 0, 0); fill-opacity: 1;"/></g><g class="point"><path d="M246.7,820V819.97H250.85V820Z" style="vector-effect: non-scaling-stroke; opacity: 1; stroke-width: 0px; fill: rgb(0, 0, 0); fill-opacity: 1;"/></g><g class="point"><path d="M251.89,820V819.98H256.04V820Z" style="vector-effect: non-scaling-stroke; opacity: 1; stroke-width: 0px; fill: rgb(0, 0, 0); fill-opacity: 1;"/></g><g class="point"><path d="M257.08,820V788.38H261.23V820Z" style="vector-effect: non-scaling-stroke; opacity: 1; stroke-width: 0px; fill: rgb(0, 0, 0); fill-opacity: 1;"/></g><g class="point"><path d="M262.27,820V781.57H266.42V820Z" style="vector-effect: non-scaling-stroke; opacity: 1; stroke-width: 0px; fill: rgb(0, 0, 0); fill-opacity: 1;"/></g><g class="point"><path d="M267.46,820V784.54H271.61V820Z" style="vector-effect: non-scaling-stroke; opacity: 1; stroke-width: 0px; fill: rgb(0, 0, 0); fill-opacity: 1;"/></g><g class="point"><path d="M272.65,820V789.55H276.8V820Z" style="vector-effect: non-scaling-stroke; opacity: 1; stroke-width: 0px; fill: rgb(0, 0, 0); fill-opacity: 1;"/></g><g class="point"><path d="M277.84,820V799.03H281.99V820Z" style="vector-effect: non-scaling-stroke; opacity: 1; stroke-width: 0px; fill: rgb(0, 0, 0); fill-opacity: 1;"/></g><g class="point"><path d="M283.03,820V801.21H287.18V820Z" style="vector-effect: non-scaling-stroke; opacity: 1; stroke-width: 0px; fill: rgb(0, 0, 0); fill-opacity: 1;"/></g><g class="point"><path d="M288.22,820V772.31H292.37V820Z" style="vector-effect: non-scaling-stroke; opacity: 1; stroke-width: 0px; fill: rgb(0, 0, 0); fill-opacity: 1;"/></g><g class="point"><path d="M293.41,820V762.47H297.56V820Z" style="vector-effect: non-scaling-stroke; opacity: 1; stroke-width: 0px; fill: rgb(0, 0, 0); fill-opacity: 1;"/></g><g class="point"><path d="M298.6,820V766.01H302.75V820Z" style="vector-effect: non-scaling-stroke; opacity: 1; stroke-width: 0px; fill: rgb(0, 0, 0); fill-opacity: 1;"/></g><g class="point"><path d="M303.79,820V768.01H307.94V820Z" style="vector-effect: non-scaling-stroke; opacity: 1; stroke-width: 0px; fill: rgb(0, 0, 0); fill-opacity: 1;"/></g><g class="point"><path d="M308.98,820V755.06H313.13V820Z" style="vector-effect: non-scaling-stroke; opacity: 1; stroke-width: 0px; fill: rgb(0, 0, 0); fill-opacity: 1;"/></g><g class="point"><path d="M314.17,820V734.52H318.32V820Z" style="vector-effect: non-scaling-stroke; opacity: 1; stroke-width: 0px; fill: rgb(0, 0, 0); fill-opacity: 1;"/></g><g class="point"><path d="M319.35,820V739.21H323.51V820Z" style="vector-effect: non-scaling-stroke; opacity: 1; stroke-width: 0px; fill: rgb(0, 0, 0); fill-opacity: 1;"/></g><g class="point"><path d="M324.54,820V740.01H328.7V820Z" style="vector-effect: non-scaling-stroke; opacity: 1; stroke-width: 0px; fill: rgb(0, 0, 0); fill-opacity: 1;"/></g><g class="point"><path d="M329.73,820V757.3H333.89V820Z" style="vector-effect: non-scaling-stroke; opacity: 1; stroke-width: 0px; fill: rgb(0, 0, 0); fill-opacity: 1;"/></g><g class="point"><path d="M334.92,820V731.66H339.07V820Z" style="vector-effect: non-scaling-stroke; opacity: 1; stroke-width: 0px; fill: rgb(0, 0, 0); fill-opacity: 1;"/></g><g class="point"><path d="M340.11,820V657.98H344.26V820Z" style="vector-effect: non-scaling-stroke; opacity: 1; stroke-width: 0px; fill: rgb(0, 0, 0); fill-opacity: 1;"/></g><g class="point"><path d="M345.3,820V665.58H349.45V820Z" style="vector-effect: non-scaling-stroke; opacity: 1; stroke-width: 0px; fill: rgb(0, 0, 0); fill-opacity: 1;"/></g><g class="point"><path d="M350.49,820V640.75H354.64V820Z" style="vector-effect: non-scaling-stroke; opacity: 1; stroke-width: 0px; fill: rgb(0, 0, 0); fill-opacity: 1;"/></g><g class="point"><path d="M355.68,820V651.61H359.83V820Z" style="vector-effect: non-scaling-stroke; opacity: 1; stroke-width: 0px; fill: rgb(0, 0, 0); fill-opacity: 1;"/></g><g class="point"><path d="M360.87,820V655.31H365.02V820Z" style="vector-effect: non-scaling-stroke; opacity: 1; stroke-width: 0px; fill: rgb(0, 0, 0); fill-opacity: 1;"/></g><g class="point"><path d="M366.06,820V657.64H370.21V820Z" style="vector-effect: non-scaling-stroke; opacity: 1; stroke-width: 0px; fill: rgb(0, 0, 0); fill-opacity: 1;"/></g><g class="point"><path d="M371.25,820V664.78H375.4V820Z" style="vector-effect: non-scaling-stroke; opacity: 1; stroke-width: 0px; fill: rgb(0, 0, 0); fill-opacity: 1;"/></g><g class="point"><path d="M376.44,820V657.32H380.59V820Z" style="vector-effect: non-scaling-stroke; opacity: 1; stroke-width: 0px; fill: rgb(0, 0, 0); fill-opacity: 1;"/></g><g class="point"><path d="M381.63,820V653.17H385.78V820Z" style="vector-effect: non-scaling-stroke; opacity: 1; stroke-width: 0px; fill: rgb(0, 0, 0); fill-opacity: 1;"/></g><g class="point"><path d="M386.82,820V639.71H390.97V820Z" style="vector-effect: non-scaling-stroke; opacity: 1; stroke-width: 0px; fill: rgb(0, 0, 0); fill-opacity: 1;"/></g><g class="point"><path d="M392.01,820V638.9H396.16V820Z" style="vector-effect: non-scaling-stroke; opacity: 1; stroke-width: 0px; fill: rgb(0, 0, 0); fill-opacity: 1;"/></g><g class="point"><path d="M397.2,820V626.18H401.35V820Z" style="vector-effect: non-scaling-stroke; opacity: 1; stroke-width: 0px; fill: rgb(0, 0, 0); fill-opacity: 1;"/></g><g class="point"><path d="M402.38,820V615.92H406.54V820Z" style="vector-effect: non-scaling-stroke; opacity: 1; stroke-width: 0px; fill: rgb(0, 0, 0); fill-opacity: 1;"/></g><g class="point"><path d="M407.57,820V601.37H411.73V820Z" style="vector-effect: non-scaling-stroke; opacity: 1; stroke-width: 0px; fill: rgb(0, 0, 0); fill-opacity: 1;"/></g><g class="point"><path d="M412.76,820V597.03H416.92V820Z" style="vector-effect: non-scaling-stroke; opacity: 1; stroke-width: 0px; fill: rgb(0, 0, 0); fill-opacity: 1;"/></g><g class="point"><path d="M417.95,820V590.75H422.1V820Z" style="vector-effect: non-scaling-stroke; opacity: 1; stroke-width: 0px; fill: rgb(0, 0, 0); fill-opacity: 1;"/></g><g class="point"><path d="M423.14,820V580.21H427.29V820Z" style="vector-effect: non-scaling-stroke; opacity: 1; stroke-width: 0px; fill: rgb(0, 0, 0); fill-opacity: 1;"/></g><g class="point"><path d="M428.33,820V571.89H432.48V820Z" style="vector-effect: non-scaling-stroke; opacity: 1; stroke-width: 0px; fill: rgb(0, 0, 0); fill-opacity: 1;"/></g><g class="point"><path d="M433.52,820V565.43H437.67V820Z" style="vector-effect: non-scaling-stroke; opacity: 1; stroke-width: 0px; fill: rgb(0, 0, 0); fill-opacity: 1;"/></g><g class="point"><path d="M438.71,820V560.21H442.86V820Z" style="vector-effect: non-scaling-stroke; opacity: 1; stroke-width: 0px; fill: rgb(0, 0, 0); fill-opacity: 1;"/></g><g class="point"><path d="M443.9,820V553.64H448.05V820Z" style="vector-effect: non-scaling-stroke; opacity: 1; stroke-width: 0px; fill: rgb(0, 0, 0); fill-opacity: 1;"/></g><g class="point"><path d="M449.09,820V546.19H453.24V820Z" style="vector-effect: non-scaling-stroke; opacity: 1; stroke-width: 0px; fill: rgb(0, 0, 0); fill-opacity: 1;"/></g><g class="point"><path d="M454.28,820V549.58H458.43V820Z" style="vector-effect: non-scaling-stroke; opacity: 1; stroke-width: 0px; fill: rgb(0, 0, 0); fill-opacity: 1;"/></g><g class="point"><path d="M459.47,820V543.1H463.62V820Z" style="vector-effect: non-scaling-stroke; opacity: 1; stroke-width: 0px; fill: rgb(0, 0, 0); fill-opacity: 1;"/></g><g class="point"><path d="M464.66,820V542.01H468.81V820Z" style="vector-effect: non-scaling-stroke; opacity: 1; stroke-width: 0px; fill: rgb(0, 0, 0); fill-opacity: 1;"/></g><g class="point"><path d="M469.85,820V548.53H474V820Z" style="vector-effect: non-scaling-stroke; opacity: 1; stroke-width: 0px; fill: rgb(0, 0, 0); fill-opacity: 1;"/></g><g class="point"><path d="M475.04,820V541.7H479.19V820Z" style="vector-effect: non-scaling-stroke; opacity: 1; stroke-width: 0px; fill: rgb(0, 0, 0); fill-opacity: 1;"/></g><g class="point"><path d="M480.23,820V543.75H484.38V820Z" style="vector-effect: non-scaling-stroke; opacity: 1; stroke-width: 0px; fill: rgb(0, 0, 0); fill-opacity: 1;"/></g><g class="point"><path d="M485.42,820V549.77H489.57V820Z" style="vector-effect: non-scaling-stroke; opacity: 1; stroke-width: 0px; fill: rgb(0, 0, 0); fill-opacity: 1;"/></g><g class="point"><path d="M490.6,820V548.38H494.76V820Z" style="vector-effect: non-scaling-stroke; opacity: 1; stroke-width: 0px; fill: rgb(0, 0, 0); fill-opacity: 1;"/></g><g class="point"><path d="M495.79,820V557.23H499.95V820Z" style="vector-effect: non-scaling-stroke; opacity: 1; stroke-width: 0px; fill: rgb(0, 0, 0); fill-opacity: 1;"/></g><g class="point"><path d="M500.98,820V560.43H505.13V820Z" style="vector-effect: non-scaling-stroke; opacity: 1; stroke-width: 0px; fill: rgb(0, 0, 0); fill-opacity: 1;"/></g><g class="point"><path d="M506.17,820V564.84H510.32V820Z" style="vector-effect: non-scaling-stroke; opacity: 1; stroke-width: 0px; fill: rgb(0, 0, 0); fill-opacity: 1;"/></g><g class="point"><path d="M511.36,820V567.41H515.51V820Z" style="vector-effect: non-scaling-stroke; opacity: 1; stroke-width: 0px; fill: rgb(0, 0, 0); fill-opacity: 1;"/></g><g class="point"><path d="M516.55,820V573.83H520.7V820Z" style="vector-effect: non-scaling-stroke; opacity: 1; stroke-width: 0px; fill: rgb(0, 0, 0); fill-opacity: 1;"/></g><g class="point"><path d="M521.74,820V581.26H525.89V820Z" style="vector-effect: non-scaling-stroke; opacity: 1; stroke-width: 0px; fill: rgb(0, 0, 0); fill-opacity: 1;"/></g><g class="point"><path d="M526.93,820V585.91H531.08V820Z" style="vector-effect: non-scaling-stroke; opacity: 1; stroke-width: 0px; fill: rgb(0, 0, 0); fill-opacity: 1;"/></g><g class="point"><path d="M532.12,820V595.77H536.27V820Z" style="vector-effect: non-scaling-stroke; opacity: 1; stroke-width: 0px; fill: rgb(0, 0, 0); fill-opacity: 1;"/></g><g class="point"><path d="M537.31,820V600.17H541.46V820Z" style="vector-effect: non-scaling-stroke; opacity: 1; stroke-width: 0px; fill: rgb(0, 0, 0); fill-opacity: 1;"/></g><g class="point"><path d="M542.5,820V604.16H546.65V820Z" style="vector-effect: non-scaling-stroke; opacity: 1; stroke-width: 0px; fill: rgb(0, 0, 0); fill-opacity: 1;"/></g><g class="point"><path d="M547.69,820V599.82H551.84V820Z" style="vector-effect: non-scaling-stroke; opacity: 1; stroke-width: 0px; fill: rgb(0, 0, 0); fill-opacity: 1;"/></g><g class="point"><path d="M552.88,820V642.53H557.03V820Z" style="vector-effect: non-scaling-stroke; opacity: 1; stroke-width: 0px; fill: rgb(0, 0, 0); fill-opacity: 1;"/></g><g class="point"><path d="M558.07,820V680.46H562.22V820Z" style="vector-effect: non-scaling-stroke; opacity: 1; stroke-width: 0px; fill: rgb(0, 0, 0); fill-opacity: 1;"/></g><g class="point"><path d="M563.26,820V676.82H567.41V820Z" style="vector-effect: non-scaling-stroke; opacity: 1; stroke-width: 0px; fill: rgb(0, 0, 0); fill-opacity: 1;"/></g><g class="point"><path d="M568.45,820V687.05H572.6V820Z" style="vector-effect: non-scaling-stroke; opacity: 1; stroke-width: 0px; fill: rgb(0, 0, 0); fill-opacity: 1;"/></g><g class="point"><path d="M573.63,820V722.22H577.79V820Z" style="vector-effect: non-scaling-stroke; opacity: 1; stroke-width: 0px; fill: rgb(0, 0, 0); fill-opacity: 1;"/></g><g class="point"><path d="M578.82,820V724.13H582.98V820Z" style="vector-effect: non-scaling-stroke; opacity: 1; stroke-width: 0px; fill: rgb(0, 0, 0); fill-opacity: 1;"/></g><g class="point"><path d="M584.01,820V726.06H588.17V820Z" style="vector-effect: non-scaling-stroke; opacity: 1; stroke-width: 0px; fill: rgb(0, 0, 0); fill-opacity: 1;"/></g><g class="point"><path d="M589.2,820V724.87H593.35V820Z" style="vector-effect: non-scaling-stroke; opacity: 1; stroke-width: 0px; fill: rgb(0, 0, 0); fill-opacity: 1;"/></g><g class="point"><path d="M594.39,820V758.09H598.54V820Z" style="vector-effect: non-scaling-stroke; opacity: 1; stroke-width: 0px; fill: rgb(0, 0, 0); fill-opacity: 1;"/></g><g class="point"><path d="M599.58,820V757.04H603.73V820Z" style="vector-effect: non-scaling-stroke; opacity: 1; stroke-width: 0px; fill: rgb(0, 0, 0); fill-opacity: 1;"/></g><g class="point"><path d="M604.77,820V759.78H608.92V820Z" style="vector-effect: non-scaling-stroke; opacity: 1; stroke-width: 0px; fill: rgb(0, 0, 0); fill-opacity: 1;"/></g><g class="point"><path d="M609.96,820V760.07H614.11V820Z" style="vector-effect: non-scaling-stroke; opacity: 1; stroke-width: 0px; fill: rgb(0, 0, 0); fill-opacity: 1;"/></g><g class="point"><path d="M615.15,820V757.09H619.3V820Z" style="vector-effect: non-scaling-stroke; opacity: 1; stroke-width: 0px; fill: rgb(0, 0, 0); fill-opacity: 1;"/></g></g></g></g></g><g class="overplot"/><path class="xlines-above crisp" d="M0,0" style="fill: none;"/><path class="ylines-above crisp" d="M0,0" style="fill: none;"/><g class="overlines-above"/><g class="xaxislayer-above"><g class="xtick"><text text-anchor="middle" x="0" y="933" transform="translate(150.55,0)" style="font-family: 'Open Sans', verdana, arial, sans-serif; font-size: 12px; fill: rgb(68, 68, 68); fill-opacity: 1; white-space: pre;">0.02</text></g><g class="xtick"><text text-anchor="middle" x="0" y="933" transform="translate(239.54,0)" style="font-family: 'Open Sans', verdana, arial, sans-serif; font-size: 12px; fill: rgb(68, 68, 68); fill-opacity: 1; white-space: pre;">0.04</text></g><g class="xtick"><text text-anchor="middle" x="0" y="933" transform="translate(328.53999999999996,0)" style="font-family: 'Open Sans', verdana, arial, sans-serif; font-size: 12px; fill: rgb(68, 68, 68); fill-opacity: 1; white-space: pre;">0.06</text></g><g class="xtick"><text text-anchor="middle" x="0" y="933" transform="translate(417.53,0)" style="font-family: 'Open Sans', verdana, arial, sans-serif; font-size: 12px; fill: rgb(68, 68, 68); fill-opacity: 1; white-space: pre;">0.08</text></g><g class="xtick"><text text-anchor="middle" x="0" y="933" transform="translate(506.53,0)" style="font-family: 'Open Sans', verdana, arial, sans-serif; font-size: 12px; fill: rgb(68, 68, 68); fill-opacity: 1; white-space: pre;">0.1</text></g><g class="xtick"><text text-anchor="middle" x="0" y="933" transform="translate(595.52,0)" style="font-family: 'Open Sans', verdana, arial, sans-serif; font-size: 12px; fill: rgb(68, 68, 68); fill-opacity: 1; white-space: pre;">0.12</text></g><g class="xtick"><text text-anchor="middle" x="0" y="933" transform="translate(684.52,0)" style="font-family: 'Open Sans', verdana, arial, sans-serif; font-size: 12px; fill: rgb(68, 68, 68); fill-opacity: 1; white-space: pre;">0.14</text></g><g class="xtick"><text text-anchor="middle" x="0" y="933" transform="translate(773.51,0)" style="font-family: 'Open Sans', verdana, arial, sans-serif; font-size: 12px; fill: rgb(68, 68, 68); fill-opacity: 1; white-space: pre;">0.16</text></g></g><g class="yaxislayer-above"><g class="ytick"><text text-anchor="end" x="79" y="4.199999999999999" transform="translate(0,920)" style="font-family: 'Open Sans', verdana, arial, sans-serif; font-size: 12px; fill: rgb(68, 68, 68); fill-opacity: 1; white-space: pre;">0</text></g><g class="ytick"><text text-anchor="end" x="79" y="4.199999999999999" transform="translate(0,819.22)" style="font-family: 'Open Sans', verdana, arial, sans-serif; font-size: 12px; fill: rgb(68, 68, 68); fill-opacity: 1; white-space: pre;">10k</text></g><g class="ytick"><text text-anchor="end" x="79" y="4.199999999999999" transform="translate(0,718.45)" style="font-family: 'Open Sans', verdana, arial, sans-serif; font-size: 12px; fill: rgb(68, 68, 68); fill-opacity: 1; white-space: pre;">20k</text></g><g class="ytick"><text text-anchor="end" x="79" y="4.199999999999999" transform="translate(0,617.67)" style="font-family: 'Open Sans', verdana, arial, sans-serif; font-size: 12px; fill: rgb(68, 68, 68); fill-opacity: 1; white-space: pre;">30k</text></g><g class="ytick"><text text-anchor="end" x="79" y="4.199999999999999" transform="translate(0,516.9)" style="font-family: 'Open Sans', verdana, arial, sans-serif; font-size: 12px; fill: rgb(68, 68, 68); fill-opacity: 1; white-space: pre;">40k</text></g><g class="ytick"><text text-anchor="end" x="79" y="4.199999999999999" transform="translate(0,416.12)" style="font-family: 'Open Sans', verdana, arial, sans-serif; font-size: 12px; fill: rgb(68, 68, 68); fill-opacity: 1; white-space: pre;">50k</text></g><g class="ytick"><text text-anchor="end" x="79" y="4.199999999999999" transform="translate(0,315.34000000000003)" style="font-family: 'Open Sans', verdana, arial, sans-serif; font-size: 12px; fill: rgb(68, 68, 68); fill-opacity: 1; white-space: pre;">60k</text></g><g class="ytick"><text text-anchor="end" x="79" y="4.199999999999999" transform="translate(0,214.57)" style="font-family: 'Open Sans', verdana, arial, sans-serif; font-size: 12px; fill: rgb(68, 68, 68); fill-opacity: 1; white-space: pre;">70k</text></g><g class="ytick"><text text-anchor="end" x="79" y="4.199999999999999" transform="translate(0,113.78999999999999)" style="font-family: 'Open Sans', verdana, arial, sans-serif; font-size: 12px; fill: rgb(68, 68, 68); fill-opacity: 1; white-space: pre;">80k</text></g></g><g class="overaxes-above"/></g></g><g class="polarlayer"/><g class="ternarylayer"/><g class="geolayer"/><g class="funnelarealayer"/><g class="pielayer"/><g class="treemaplayer"/><g class="sunburstlayer"/><g class="glimages"/><defs id="topdefs-87c680"><g class="clips"/><clipPath id="legend87c680"><rect width="162" height="48" x="0" y="0"/></clipPath></defs><g class="layer-above"><g class="imagelayer"/><g class="shapelayer"/></g><g class="infolayer"><g class="legend" pointer-events="all" transform="translate(825.62,100)"><rect class="bg" shape-rendering="crispEdges" style="stroke: rgb(68, 68, 68); stroke-opacity: 1; fill: rgb(255, 255, 255); fill-opacity: 1; stroke-width: 0px;" width="162" height="48" x="0" y="0"/><g class="scrollbox" transform="" clip-path="url('#legend87c680')"><g class="groups"><g class="traces" transform="translate(0,14.5)" style="opacity: 1;"><text class="legendtext" text-anchor="start" x="40" y="4.680000000000001" style="font-family: 'Open Sans', verdana, arial, sans-serif; font-size: 12px; fill: rgb(68, 68, 68); fill-opacity: 1; white-space: pre;">Frequency (nu_eff)</text><g class="layers" style="opacity: 1;"><g class="legendfill"/><g class="legendlines"/><g class="legendsymbols"><g class="legendpoints"><path class="legendundefined" d="M6,6H-6V-6H6Z" transform="translate(20,0)" style="stroke-width: 0px; fill: rgb(70, 130, 180); fill-opacity: 1;"/></g></g></g><rect class="legendtoggle" x="0" y="-9.5" width="157" height="19" style="fill: rgb(0, 0, 0); fill-opacity: 0;"/></g><g class="traces" transform="translate(0,33.5)" style="opacity: 1;"><text class="legendtext" text-anchor="start" x="40" y="4.680000000000001" style="font-family: 'Open Sans', verdana, arial, sans-serif; font-size: 12px; fill: rgb(68, 68, 68); fill-opacity: 1; white-space: pre;">Frequency (nu_meta)</text><g class="layers" style="opacity: 1;"><g class="legendfill"/><g class="legendlines"/><g class="legendsymbols"><g class="legendpoints"><path class="legendundefined" d="M6,6H-6V-6H6Z" transform="translate(20,0)" style="stroke-width: 0px; fill: rgb(0, 0, 0); fill-opacity: 1;"/></g></g></g><rect class="legendtoggle" x="0" y="-9.5" width="157" height="19" style="fill: rgb(0, 0, 0); fill-opacity: 0;"/></g></g></g><rect class="scrollbar" rx="20" ry="3" width="0" height="0" style="fill: rgb(128, 139, 164); fill-opacity: 1;" x="0" y="0"/></g><g class="g-gtitle"><text class="gtitle" x="500" y="50" text-anchor="middle" dy="0em" style="font-family: 'Open Sans', verdana, arial, sans-serif; font-size: 17px; fill: rgb(68, 68, 68); opacity: 1; font-weight: normal; white-space: pre;">Final \nu_{eff}</text></g><g class="g-xtitle"><text class="xtitle" x="445.5" y="972" text-anchor="middle" style="font-family: 'Open Sans', verdana, arial, sans-serif; font-size: 14px; fill: rgb(68, 68, 68); opacity: 1; font-weight: normal; white-space: pre;">Bin Midpoints (seconds)</text></g><g class="g-ytitle"><text class="ytitle" transform="rotate(-90,42,510)" x="42" y="510" text-anchor="middle" style="font-family: 'Open Sans', verdana, arial, sans-serif; font-size: 14px; fill: rgb(68, 68, 68); opacity: 1; font-weight: normal; white-space: pre;">Counts</text></g></g></svg>